SplineFontDB: 3.0
FontName: CMUTypewriter-BoldItalic
FullName: CMU Typewriter Text Bold Italic
FamilyName: CMU Typewriter Text
Weight: Bold
Copyright: Converted by Andrey V. Panov from TeX fonts
UComments: "2009-6-18: Created." 
Version: 0.7.0
ItalicAngle: -14.04
UnderlinePosition: -100
UnderlineWidth: 50
Ascent: 775
Descent: 225
LayerCount: 2
Layer: 0 0 "+BBcEMAQ0BD0EOAQ5 +BD8EOwQwBD0A"  1
Layer: 1 0 "+BB8ENQRABDUENAQ9BDgEOQAA +BD8EOwQwBD0A"  0
NeedsXUIDChange: 1
XUID: [1067 1748419]
FSType: 0
OS2Version: 0
OS2_WeightWidthSlopeOnly: 0
OS2_UseTypoMetrics: 1
CreationTime: 1245315732
ModificationTime: 1245316349
PfmFamily: 17
TTFWeight: 700
TTFWidth: 5
LineGap: 200
VLineGap: 90
Panose: 2 0 8 9 0 0 0 0 0 0
OS2TypoAscent: 0
OS2TypoAOffset: 1
OS2TypoDescent: 0
OS2TypoDOffset: 1
OS2TypoLinegap: 200
OS2WinAscent: 866
OS2WinAOffset: 0
OS2WinDescent: 230
OS2WinDOffset: 0
HheadAscent: 866
HheadAOffset: 0
HheadDescent: -230
HheadDOffset: 0
Lookup: 1 0 0 "Case substitutions"  {"Case substitutions subtable"  } ['case' ('cyrl' <'dflt' > 'grek' <'dflt' > 'latn' <'dflt' > ) ]
Lookup: 3 0 0 "Greek alternatives"  {"Greek alternatives subtable"  } ['salt' ('grek' <'dflt' > ) ]
Lookup: 1 0 0 "Greek substitutions"  {"Greek substitutions subtable"  } ['locl' ('grek' <'dflt' > ) ]
Lookup: 4 0 0 "Latin Dutch ligatures"  {"Latin Dutch ligatures subtable"  } ['dlig' ('latn' <'NLD ' > ) ]
Lookup: 4 0 0 "Latin ligatures excepting Turkic"  {"Latin ligatures excepting Turkic subtable"  } ['dlig' ('latn' <'dflt' 'NLD ' 'VIT ' > ) ]
Lookup: 4 0 0 "Latin ligatures"  {"Latin ligatures subtable"  } ['dlig' ('latn' <'dflt' 'NLD ' 'VIT ' 'TRK ' 'AZE ' > ) ]
Lookup: 4 0 0 "Cyrillic ligatures"  {"Cyrillic ligatures subtable"  } ['dlig' ('cyrl' <'dflt' 'MKD ' 'SRB ' > ) ]
Lookup: 3 0 0 "Latin alternatives"  {"Latin alternatives subtable"  } ['salt' ('latn' <'dflt' > ) ]
Lookup: 3 0 0 "Stilistic set 01"  {"Stilistic set 01 subtable"  } ['ss01' ('latn' <'dflt' > 'grek' <'dflt' > 'cyrl' <'dflt' > ) ]

StartChar: .notdef
Encoding: 0 0 0
Width: 525
Flags: HW
HStem: 10 60<105 420> 705 60<105 420>
VStem: 10 60<112 663> 455 60<112 663>
DStem2: 105 705 70 663 0.508289 -0.861187<18.3797 309.738 396.718 688.585> 70 112 105 70 0.508289 0.861187<0 291.358 378.338 670.205>
LayerCount: 2
Fore
SplineSet
10 10 m 1
 10 765 l 1
 515 765 l 1
 515 10 l 1
 10 10 l 1
70 112 m 1
 232 388 l 1
 70 663 l 1
 70 112 l 1
105 70 m 1
 420 70 l 1
 262 337 l 1
 105 70 l 1
105 705 m 1
 262 438 l 1
 420 705 l 1
 105 705 l 1
292 388 m 1
 455 112 l 1
 455 663 l 1
 292 388 l 1
EndSplineSet
EndChar

StartChar: SF100000
Encoding: 9472 9472 1
Width: 525
Flags: HW
HStem: 240 70<0 525>
LayerCount: 2
Fore
SplineSet
-0 240 m 1
 -0 310 l 1
 525 310 l 1
 525 240 l 1
 -0 240 l 1
EndSplineSet
EndChar

StartChar: SF110000
Encoding: 9474 9474 2
Width: 525
Flags: HW
VStem: 227 70<-355 837>
LayerCount: 2
Fore
SplineSet
227 -355 m 1
 227 837 l 1
 297 837 l 1
 297 -355 l 1
 227 -355 l 1
EndSplineSet
EndChar

StartChar: SF010000
Encoding: 9484 9484 3
Width: 525
Flags: HW
HStem: 240 70<297 525>
VStem: 227 70<-355 240>
LayerCount: 2
Fore
SplineSet
227 310 m 1
 525 310 l 1
 525 240 l 1
 297 240 l 1
 297 -355 l 1
 227 -355 l 1
 227 310 l 1
EndSplineSet
EndChar

StartChar: SF030000
Encoding: 9488 9488 4
Width: 525
Flags: HW
HStem: 240 70<0 227>
VStem: 227 70<-355 240>
LayerCount: 2
Fore
SplineSet
0 240 m 1
 0 310 l 1
 297 310 l 1
 297 -355 l 1
 227 -355 l 1
 227 240 l 1
 0 240 l 1
EndSplineSet
EndChar

StartChar: SF020000
Encoding: 9492 9492 5
Width: 525
Flags: HW
HStem: 240 70<297 525>
VStem: 227 70<310 837>
LayerCount: 2
Fore
SplineSet
227 240 m 1
 227 837 l 1
 297 837 l 1
 297 310 l 1
 525 310 l 1
 525 240 l 1
 227 240 l 1
EndSplineSet
EndChar

StartChar: SF040000
Encoding: 9496 9496 6
Width: 525
Flags: HW
HStem: 240 70<0 227>
VStem: 227 70<310 837>
LayerCount: 2
Fore
SplineSet
0 240 m 1
 0 310 l 1
 227 310 l 1
 227 837 l 1
 297 837 l 1
 297 240 l 1
 0 240 l 1
EndSplineSet
EndChar

StartChar: SF080000
Encoding: 9500 9500 7
Width: 525
Flags: HW
HStem: 240 70<297 525>
VStem: 227 70<-355 240 310 837>
LayerCount: 2
Fore
SplineSet
227 -355 m 1
 227 837 l 1
 297 837 l 1
 297 310 l 1
 525 310 l 1
 525 240 l 1
 297 240 l 1
 297 -355 l 1
 227 -355 l 1
EndSplineSet
EndChar

StartChar: SF090000
Encoding: 9508 9508 8
Width: 525
Flags: HW
HStem: 240 70<0 227>
VStem: 227 70<-355 240 310 837>
LayerCount: 2
Fore
SplineSet
0 240 m 1
 0 310 l 1
 227 310 l 1
 227 837 l 1
 297 837 l 1
 297 -355 l 1
 227 -355 l 1
 227 240 l 1
 0 240 l 1
EndSplineSet
EndChar

StartChar: SF060000
Encoding: 9516 9516 9
Width: 525
Flags: HW
HStem: 240 70<0 227 297 525>
VStem: 227 70<-355 240>
LayerCount: 2
Fore
SplineSet
0 240 m 1
 0 310 l 1
 525 310 l 1
 525 240 l 1
 297 240 l 1
 297 -355 l 1
 227 -355 l 1
 227 240 l 1
 0 240 l 1
EndSplineSet
EndChar

StartChar: SF070000
Encoding: 9524 9524 10
Width: 525
Flags: HW
HStem: 240 70<0 227 297 525>
VStem: 227 70<310 837>
LayerCount: 2
Fore
SplineSet
0 240 m 1
 0 310 l 1
 227 310 l 1
 227 837 l 1
 297 837 l 1
 297 310 l 1
 525 310 l 1
 525 240 l 1
 0 240 l 1
EndSplineSet
EndChar

StartChar: SF050000
Encoding: 9532 9532 11
Width: 525
Flags: HW
HStem: 240 70<0 227 297 525>
VStem: 227 70<-355 240 310 837>
LayerCount: 2
Fore
SplineSet
-0 240 m 1
 -0 310 l 1
 227 310 l 1
 227 837 l 1
 297 837 l 1
 297 310 l 1
 525 310 l 1
 525 240 l 1
 297 240 l 1
 297 -355 l 1
 227 -355 l 1
 227 240 l 1
 -0 240 l 1
EndSplineSet
EndChar

StartChar: SF510000
Encoding: 9554 9554 14
Width: 525
Flags: HW
HStem: 160 70<297 525> 320 70<297 525>
VStem: 227 70<-355 160 230 320>
LayerCount: 2
Fore
SplineSet
227 -355 m 1
 227 390 l 1
 525 390 l 1
 525 320 l 1
 297 320 l 1
 297 230 l 1
 525 230 l 1
 525 160 l 1
 297 160 l 1
 297 -355 l 1
 227 -355 l 1
EndSplineSet
EndChar

StartChar: SF520000
Encoding: 9555 9555 15
Width: 525
Flags: HW
HStem: 240 70<217 307 377 525>
VStem: 147 70<-355 240> 307 70<-355 240>
LayerCount: 2
Fore
SplineSet
147 310 m 1
 525 310 l 1
 525 240 l 1
 377 240 l 1
 377 -355 l 1
 307 -355 l 1
 307 240 l 1
 217 240 l 1
 217 -355 l 1
 147 -355 l 1
 147 310 l 1
EndSplineSet
EndChar

StartChar: SF390000
Encoding: 9556 9556 16
Width: 525
Flags: HW
HStem: 160 70<377 525> 320 70<217 525>
VStem: 147 70<-355 320> 307 70<-355 160>
LayerCount: 2
Fore
SplineSet
147 -355 m 1
 147 390 l 1
 525 390 l 1
 525 320 l 1
 217 320 l 1
 217 -355 l 1
 147 -355 l 1
307 230 m 1
 525 230 l 1
 525 160 l 1
 377 160 l 1
 377 -355 l 1
 307 -355 l 1
 307 230 l 1
EndSplineSet
EndChar

StartChar: SF220000
Encoding: 9557 9557 17
Width: 525
Flags: HW
HStem: 160 70<0 227> 320 70<0 227>
VStem: 227 70<-355 160 230 320>
LayerCount: 2
Fore
SplineSet
0 160 m 1
 0 230 l 1
 227 230 l 1
 227 320 l 1
 0 320 l 1
 0 390 l 1
 297 390 l 1
 297 -355 l 1
 227 -355 l 1
 227 160 l 1
 0 160 l 1
EndSplineSet
EndChar

StartChar: SF210000
Encoding: 9558 9558 18
Width: 525
Flags: HW
HStem: 240 70<0 147 217 307>
VStem: 147 70<-355 240> 307 70<-355 240>
LayerCount: 2
Fore
SplineSet
0 240 m 1
 0 310 l 1
 377 310 l 1
 377 -355 l 1
 307 -355 l 1
 307 240 l 1
 217 240 l 1
 217 -355 l 1
 147 -355 l 1
 147 240 l 1
 0 240 l 1
EndSplineSet
EndChar

StartChar: SF250000
Encoding: 9559 9559 19
Width: 525
Flags: HW
HStem: 160 70<0 147> 320 70<0 307>
VStem: 147 70<-355 160> 307 70<-355 320>
LayerCount: 2
Fore
SplineSet
0 160 m 1
 0 230 l 1
 217 230 l 1
 217 -355 l 1
 147 -355 l 1
 147 160 l 1
 0 160 l 1
0 320 m 1
 0 390 l 1
 377 390 l 1
 377 -355 l 1
 307 -355 l 1
 307 320 l 1
 0 320 l 1
EndSplineSet
EndChar

StartChar: SF500000
Encoding: 9560 9560 20
Width: 525
Flags: HW
HStem: 160 70<297 525> 320 70<297 525>
VStem: 227 70<230 320 390 837>
LayerCount: 2
Fore
SplineSet
227 160 m 1
 227 837 l 1
 297 837 l 1
 297 390 l 1
 525 390 l 1
 525 320 l 1
 297 320 l 1
 297 230 l 1
 525 230 l 1
 525 160 l 1
 227 160 l 1
EndSplineSet
EndChar

StartChar: SF490000
Encoding: 9561 9561 21
Width: 525
Flags: HW
HStem: 240 70<217 307 377 525>
VStem: 147 70<310 837> 307 70<310 837>
LayerCount: 2
Fore
SplineSet
147 240 m 1
 147 837 l 1
 217 837 l 1
 217 310 l 1
 307 310 l 1
 307 837 l 1
 377 837 l 1
 377 310 l 1
 525 310 l 1
 525 240 l 1
 147 240 l 1
EndSplineSet
EndChar

StartChar: SF380000
Encoding: 9562 9562 22
Width: 525
Flags: HW
HStem: 160 70<217 525> 320 70<377 525>
VStem: 147 70<230 837> 307 70<390 837>
LayerCount: 2
Fore
SplineSet
147 160 m 1
 147 837 l 1
 217 837 l 1
 217 230 l 1
 525 230 l 1
 525 160 l 1
 147 160 l 1
307 320 m 1
 307 837 l 1
 377 837 l 1
 377 390 l 1
 525 390 l 1
 525 320 l 1
 307 320 l 1
EndSplineSet
EndChar

StartChar: SF280000
Encoding: 9563 9563 23
Width: 525
Flags: HW
HStem: 160 70<0 227> 320 70<0 227>
VStem: 227 70<230 320 390 837>
LayerCount: 2
Fore
SplineSet
0 160 m 1
 0 230 l 1
 227 230 l 1
 227 320 l 1
 0 320 l 1
 0 390 l 1
 227 390 l 1
 227 837 l 1
 297 837 l 1
 297 160 l 1
 0 160 l 1
EndSplineSet
EndChar

StartChar: SF270000
Encoding: 9564 9564 24
Width: 525
Flags: HW
HStem: 240 70<0 147 217 307>
VStem: 147 70<310 837> 307 70<310 837>
LayerCount: 2
Fore
SplineSet
0 240 m 1
 0 310 l 1
 147 310 l 1
 147 837 l 1
 217 837 l 1
 217 310 l 1
 307 310 l 1
 307 837 l 1
 377 837 l 1
 377 240 l 1
 0 240 l 1
EndSplineSet
EndChar

StartChar: SF260000
Encoding: 9565 9565 25
Width: 525
Flags: HW
HStem: 160 70<0 307> 320 70<0 147>
VStem: 147 70<390 837> 307 70<230 837>
LayerCount: 2
Fore
SplineSet
0 160 m 1
 0 230 l 1
 307 230 l 1
 307 837 l 1
 377 837 l 1
 377 160 l 1
 0 160 l 1
0 320 m 1
 0 390 l 1
 147 390 l 1
 147 837 l 1
 217 837 l 1
 217 320 l 1
 0 320 l 1
EndSplineSet
EndChar

StartChar: SF360000
Encoding: 9566 9566 26
Width: 525
Flags: HW
HStem: 160 70<297 525> 320 70<297 525>
VStem: 227 70<-355 160 230 320 390 837>
LayerCount: 2
Fore
SplineSet
227 -355 m 1
 227 837 l 1
 297 837 l 1
 297 390 l 1
 525 390 l 1
 525 320 l 1
 297 320 l 1
 297 230 l 1
 525 230 l 1
 525 160 l 1
 297 160 l 1
 297 -355 l 1
 227 -355 l 1
EndSplineSet
EndChar

StartChar: SF370000
Encoding: 9567 9567 27
Width: 525
Flags: HW
HStem: 240 70<377 525>
VStem: 147 70<-355 837> 307 70<-355 240 310 837>
LayerCount: 2
Fore
SplineSet
307 -355 m 1
 307 837 l 1
 377 837 l 1
 377 310 l 1
 525 310 l 1
 525 240 l 1
 377 240 l 1
 377 -355 l 1
 307 -355 l 1
EndSplineSet
Refer: 2 9474 S 1 0 0 1 -80 0 2
EndChar

StartChar: SF420000
Encoding: 9568 9568 28
Width: 525
Flags: HW
HStem: 160 70<377 525> 320 70<377 525>
VStem: 147 70<-355 837> 307 218<160 230 320 390> 307 70<-355 160 390 837>
LayerCount: 2
Fore
SplineSet
307 230 m 1xf0
 525 230 l 1
 525 160 l 1xf0
 377 160 l 1
 377 -355 l 1
 307 -355 l 1xe8
 307 230 l 1xf0
307 320 m 1xf0
 307 837 l 1
 377 837 l 1
 377 390 l 1xe8
 525 390 l 1
 525 320 l 1
 307 320 l 1xf0
EndSplineSet
Refer: 2 9474 S 1 0 0 1 -80 0 2
EndChar

StartChar: SF190000
Encoding: 9569 9569 29
Width: 525
Flags: HW
HStem: 160 70<0 227> 320 70<0 227>
VStem: 227 70<-355 160 230 320 390 837>
LayerCount: 2
Fore
SplineSet
0 160 m 1
 0 230 l 1
 227 230 l 1
 227 320 l 1
 0 320 l 1
 0 390 l 1
 227 390 l 1
 227 837 l 1
 297 837 l 1
 297 -355 l 1
 227 -355 l 1
 227 160 l 1
 0 160 l 1
EndSplineSet
EndChar

StartChar: SF200000
Encoding: 9570 9570 30
Width: 525
Flags: HW
HStem: 240 70<0 147>
VStem: 147 70<-355 240 310 837> 307 70<-355 837>
LayerCount: 2
Fore
SplineSet
0 240 m 1
 0 310 l 1
 147 310 l 1
 147 837 l 1
 217 837 l 1
 217 -355 l 1
 147 -355 l 1
 147 240 l 1
 0 240 l 1
EndSplineSet
Refer: 2 9474 S 1 0 0 1 80 0 2
EndChar

StartChar: SF230000
Encoding: 9571 9571 31
Width: 525
Flags: HW
HStem: 160 70<0 147> 320 70<0 147>
VStem: 0 217<160 230 320 390> 147 70<-355 160 390 837> 307 70<-355 837>
LayerCount: 2
Fore
SplineSet
0 160 m 1
 0 230 l 1
 217 230 l 1xe8
 217 -355 l 1
 147 -355 l 1
 147 160 l 1xd8
 0 160 l 1
0 320 m 1xe8
 0 390 l 1xe8
 147 390 l 1
 147 837 l 1
 217 837 l 1xd8
 217 320 l 1
 0 320 l 1xe8
EndSplineSet
Refer: 2 9474 S 1 0 0 1 80 0 2
EndChar

StartChar: SF470000
Encoding: 9572 9572 32
Width: 525
Flags: HW
HStem: 160 70<0 227 297 525> 320 70<0 525>
VStem: 227 70<-355 160>
LayerCount: 2
Fore
SplineSet
0 160 m 1
 0 230 l 1
 525 230 l 1
 525 160 l 1
 297 160 l 1
 297 -355 l 1
 227 -355 l 1
 227 160 l 1
 0 160 l 1
EndSplineSet
Refer: 1 9472 S 1 0 0 1 0 80 2
EndChar

StartChar: SF480000
Encoding: 9573 9573 33
Width: 525
Flags: HW
HStem: 240 70<0 147 217 307 377 525>
VStem: 147 70<-355 240> 307 70<-355 240>
LayerCount: 2
Fore
SplineSet
0 240 m 1
 0 310 l 1
 525 310 l 1
 525 240 l 1
 377 240 l 1
 377 -355 l 1
 307 -355 l 1
 307 240 l 1
 217 240 l 1
 217 -355 l 1
 147 -355 l 1
 147 240 l 1
 0 240 l 1
EndSplineSet
EndChar

StartChar: SF410000
Encoding: 9574 9574 34
Width: 525
Flags: HW
HStem: 160 70<0 147 377 525> 320 70<0 525>
VStem: 147 70<-355 160> 307 70<-355 160>
LayerCount: 2
Fore
SplineSet
0 160 m 1
 0 230 l 1
 217 230 l 1
 217 -355 l 1
 147 -355 l 1
 147 160 l 1
 0 160 l 1
307 230 m 1
 525 230 l 1
 525 160 l 1
 377 160 l 1
 377 -355 l 1
 307 -355 l 1
 307 230 l 1
EndSplineSet
Refer: 1 9472 S 1 0 0 1 0 80 2
EndChar

StartChar: SF450000
Encoding: 9575 9575 35
Width: 525
Flags: HW
HStem: 160 70<0 525> 320 70<0 227 297 525>
VStem: 227 70<390 837>
LayerCount: 2
Fore
SplineSet
0 320 m 1
 0 390 l 1
 227 390 l 1
 227 837 l 1
 297 837 l 1
 297 390 l 1
 525 390 l 1
 525 320 l 1
 0 320 l 1
EndSplineSet
Refer: 1 9472 S 1 0 0 1 0 -80 2
EndChar

StartChar: SF460000
Encoding: 9576 9576 36
Width: 525
Flags: HW
HStem: 240 70<0 147 217 307 377 525>
VStem: 147 70<310 837> 307 70<310 837>
LayerCount: 2
Fore
SplineSet
0 240 m 1
 0 310 l 1
 147 310 l 1
 147 837 l 1
 217 837 l 1
 217 310 l 1
 307 310 l 1
 307 837 l 1
 377 837 l 1
 377 310 l 1
 525 310 l 1
 525 240 l 1
 0 240 l 1
EndSplineSet
EndChar

StartChar: SF400000
Encoding: 9577 9577 37
Width: 525
Flags: HW
HStem: 160 70<0 525> 320 70<0 147 377 525>
VStem: 147 70<390 837> 307 70<390 837>
LayerCount: 2
Fore
SplineSet
0 320 m 1
 0 390 l 1
 147 390 l 1
 147 837 l 1
 217 837 l 1
 217 320 l 1
 0 320 l 1
307 320 m 1
 307 837 l 1
 377 837 l 1
 377 390 l 1
 525 390 l 1
 525 320 l 1
 307 320 l 1
EndSplineSet
Refer: 1 9472 S 1 0 0 1 0 -80 2
EndChar

StartChar: SF540000
Encoding: 9578 9578 38
Width: 525
Flags: HW
HStem: 160 70<0 227 297 525> 320 70<0 227 297 525>
VStem: 227 70<-355 160 230 320 390 837>
LayerCount: 2
Fore
SplineSet
0 160 m 1
 0 230 l 1
 227 230 l 1
 227 320 l 1
 0 320 l 1
 0 390 l 1
 227 390 l 1
 227 837 l 1
 297 837 l 1
 297 390 l 1
 525 390 l 1
 525 320 l 1
 297 320 l 1
 297 230 l 1
 525 230 l 1
 525 160 l 1
 297 160 l 1
 297 -355 l 1
 227 -355 l 1
 227 160 l 1
 0 160 l 1
EndSplineSet
EndChar

StartChar: SF530000
Encoding: 9579 9579 39
Width: 525
Flags: HW
HStem: 240 70<0 147 217 307 377 525>
VStem: 147 70<-355 240 310 837> 307 70<-355 240 310 837>
LayerCount: 2
Fore
SplineSet
-0 240 m 1
 -0 310 l 1
 147 310 l 1
 147 837 l 1
 217 837 l 1
 217 310 l 1
 307 310 l 1
 307 837 l 1
 377 837 l 1
 377 310 l 1
 525 310 l 1
 525 240 l 1
 377 240 l 1
 377 -355 l 1
 307 -355 l 1
 307 240 l 1
 217 240 l 1
 217 -355 l 1
 147 -355 l 1
 147 240 l 1
 -0 240 l 1
EndSplineSet
EndChar

StartChar: uni262D
Encoding: 9773 9773 40
Width: 525
Flags: HW
TeX: 117 0
HStem: 0 20G<30.5 60.5 462.5 467> 39 76<244.267 355.503> 102 51<98.531 128.337>
VStem: 89 43<98.6716 137.734> 431 65<186.303 382.211>
DStem2: 84 357 128 301 0.626941 0.779067<0 63.6069 102.652 165.701>
LayerCount: 2
Fore
SplineSet
18 18 m 0
 18 64 89 102 89 128 c 0
 89 148 93 153 104 153 c 0xb8
 115 153 118 159 132 180 c 1
 175 152 232 115 298 115 c 0
 336 115 356 128 356 129 c 0
 356 135 311 186 178 363 c 1
 128 301 l 1
 84 357 l 1
 188 486 l 1
 264 470 l 1
 203 393 l 1
 373 190 l 1
 396 165 l 1
 401 165 431 218 431 295 c 0
 431 473 263 587 263 593 c 1
 301 593 496 478 496 267 c 0
 496 167 458 114 450 100 c 1
 493 46 496 44 496 38 c 0
 496 17 470 -1 464 -1 c 0xd8
 461 -1 462 -3 409 62 c 1
 387 51 366 39 328 39 c 0xd8
 225 39 147 138 136 138 c 0
 132 138 132 134 132 130 c 2
 132 118 l 2
 132 108 128 102 120 102 c 0
 91 102 84 0 37 0 c 0
 24 0 18 7 18 18 c 0
EndSplineSet
EndChar

StartChar: longs
Encoding: 383 383 41
Width: 525
Flags: HW
TeX: 108 0
HStem: -226 75<128.279 190.68> 369 75<196.254 298> 540 75<410.963 485.619>
VStem: 485 85<501.369 539.314>
DStem2: 224 -38 339 115 0.179604 0.983739<-77.6162 413.672 489.967 606.541>
AnchorPoint: "above" 452 611 basechar 0
AnchorPoint: "below" 259 0 basechar 0
LayerCount: 2
Fore
SplineSet
44 -157 m 0
 44 -121 69 -106 90 -106 c 0
 112 -106 131 -120 129 -148 c 1
 140 -150 148 -151 155 -151 c 0
 196 -151 213 -84 224 -38 c 0
 242 38 289 307 298 369 c 1
 228 369 l 2
 204 369 192 381 192 400 c 0
 192 417 198 444 232 444 c 2
 312 444 l 1
 327 535 330 615 453 615 c 0
 501 615 570 604 570 546 c 0
 570 515 550 494 524 494 c 0
 508 494 484 504 485 537 c 1
 478 538 461 540 447 540 c 0
 406 540 412 534 396 444 c 2
 339 115 l 2
 323 23 303 -88 281 -132 c 0
 271 -154 239 -205 191 -221 c 0
 183 -224 168 -226 151 -226 c 0
 107 -226 44 -212 44 -157 c 0
EndSplineSet
EndChar

StartChar: uni03F5
Encoding: 1013 1013 42
Width: 525
Flags: HW
TeX: 117 0
HStem: -4 82<256.506 462.415> 172 84<191 446.5> 359 89<344.453 545.203>
LayerCount: 2
Fore
SplineSet
85 178 m 0
 85 340 258 446 527 448 c 0
 556 448 561 431 561 419 c 1
 560 410 556 383 546 374 c 0
 529 358 512 368 427 359 c 0
 269 342 217 292 191 256 c 1
 417 256 l 2
 445 256 455 246 455 228 c 0
 455 223 453 217 452 211 c 0
 444 179 438 172 411 172 c 2
 170 172 l 1
 196 64 420 86 449 78 c 0
 457 76 469 68 469 53 c 0
 469 -5 436 -4 426 -4 c 2
 418 -4 l 1
 131 0 85 105 85 178 c 0
EndSplineSet
EndChar

StartChar: circumflex.cap
Encoding: 65536 -1 43
Width: 525
Flags: HW
HStem: 664 201
AnchorPoint: "above" 416 619 mark 0
LayerCount: 2
Fore
SplineSet
271 711 m 0
 271 731 266 723 444 853 c 0
 451 858 460 865 471 865 c 0
 485 865 493 856 506 842 c 0
 607 726 609 726 609 711 c 0
 609 691 577 664 559 664 c 0
 538 664 537 675 461 772 c 1
 383 715 335 665 313 665 c 0
 288 665 271 699 271 711 c 0
EndSplineSet
EndChar

StartChar: dieresis.cap
Encoding: 65537 -1 44
Width: 525
Flags: HW
HStem: 674 120<304.181 386.185 505.996 589.598>
VStem: 284 122<694.117 773.883> 487 122<693.625 774.375>
AnchorPoint: "above" 418 619 mark 0
LayerCount: 2
Fore
SplineSet
487 727 m 0
 487 764 521 794 555 794 c 0
 583 794 609 772 609 741 c 0
 609 704 575 674 541 674 c 0
 512 674 487 695 487 727 c 0
EndSplineSet
Refer: 45 -1 S 1 0 0 1 -100 5 2
EndChar

StartChar: dotaccent.cap
Encoding: 65538 -1 45
Width: 525
Flags: HW
HStem: 669 120<404.181 486.185>
VStem: 384 122<689.117 768.883>
AnchorPoint: "above" 417 619 mark 0
LayerCount: 2
Fore
SplineSet
384 722 m 0
 384 758 418 789 453 789 c 0
 481 789 506 768 506 736 c 0
 506 702 474 669 437 669 c 0
 409 669 384 690 384 722 c 0
EndSplineSet
EndChar

StartChar: caron.cap
Encoding: 65539 -1 46
Width: 525
Flags: HW
HStem: 622 187
VStem: 314 287
AnchorPoint: "above" 418 619 mark 0
LayerCount: 2
Fore
SplineSet
314 778 m 0
 314 794 326 809 344 809 c 0
 362 809 364 802 416 738 c 0
 422 730 429 722 435 713 c 1
 502 761 549 809 571 809 c 0
 587 809 601 796 601 778 c 0
 601 760 604 766 455 637 c 0
 448 630 439 622 426 622 c 0
 404 622 395 644 387 655 c 0
 314 767 314 765 314 778 c 0
EndSplineSet
EndChar

StartChar: ring.cap
Encoding: 65540 -1 47
Width: 525
Flags: HW
HStem: 582 75<387.677 476.441> 791 75<411.116 498.682>
VStem: 320 62<663.228 761.276> 504 62<686.695 785.078>
AnchorPoint: "above" 417 619 mark 0
LayerCount: 2
Back
SplineSet
138 137 m 0
 138 165 143 191 149 214 c 2
 229 535 l 1
 215 535 l 1
 190 536 179 548 179 566 c 0
 179 608 205 611 221 611 c 2
 339 611 l 1
 328 627 320 643 320 674 c 0
 320 733 361 866 479 866 c 0
 515 866 566 848 566 774 c 0
 566 718 542 653 490 611 c 1
 594 611 l 2
 628 611 632 588 632 580 c 0
 632 559 623 535 588 535 c 2
 562 535 l 1
 560 523 556 511 553 499 c 2
 482 214 l 2
 478 196 473 179 467 162 c 0
 430 53 348 -8 268 -8 c 0
 216 -8 138 21 138 137 c 0
222 136 m 0
 222 77 251 67 271 67 c 0
 297 67 365 83 400 229 c 1
 477 535 l 1
 464 535 l 1
 435 536 427 549 427 566 c 0
 427 572 428 578 429 584 c 1
 405 582 l 1
 385 584 l 1
 382 537 358 535 341 535 c 2
 315 535 l 1
 312 522 308 510 305 497 c 2
 230 196 l 2
 227 184 222 160 222 136 c 0
382 702 m 0
 382 675 399 657 427 657 c 0
 474 657 504 706 504 746 c 0
 504 765 495 791 459 791 c 0
 413 791 382 743 382 702 c 0
EndSplineSet
Fore
SplineSet
320 674 m 0
 320 733 361 866 479 866 c 0
 515 866 566 848 566 774 c 0
 566 687 506 582 405 582 c 0
 376 582 320 600 320 674 c 0
382 702 m 0
 382 675 399 657 427 657 c 0
 474 657 504 706 504 746 c 0
 504 765 495 791 459 791 c 0
 413 791 382 743 382 702 c 0
EndSplineSet
EndChar

StartChar: breve.cap
Encoding: 65541 -1 48
Width: 525
Flags: HW
HStem: 657 78<379.61 512.742>
VStem: 283 76<754.721 857.114> 574 79<791.964 857.609>
AnchorPoint: "above" 418 619 mark 0
LayerCount: 2
Fore
SplineSet
283 798 m 0
 283 858 307 861 325 861 c 0
 354 861 362 842 362 832 c 0
 362 826 359 815 359 803 c 0
 359 759 396 735 439 735 c 0
 499 735 555 777 574 824 c 0
 581 841 582 861 615 861 c 0
 650 861 653 838 653 830 c 0
 653 788 576 657 435 657 c 0
 345 657 283 716 283 798 c 0
EndSplineSet
EndChar

StartChar: grave
Encoding: 96 96 49
Width: 525
Flags: HW
TeX: 610 0
ItalicCorrection: 173
HStem: 526 115<348.389 404.697>
VStem: 287 177<562.146 606.294>
LayerCount: 2
Fore
SplineSet
287 596 m 0
 287 618 306 641 330 641 c 0
 341 641 361 634 436 609 c 0
 450 604 464 597 464 578 c 0
 464 569 450 526 422 526 c 0
 409 526 310 560 307 562 c 0
 301 565 287 576 287 596 c 0
EndSplineSet
EndChar

StartChar: acute
Encoding: 180 180 50
Width: 525
Flags: HW
TeX: 610 0
ItalicCorrection: 173
HStem: 526 84<351.003 455.553> 621 20G<493 510.5>
VStem: 348 189<565.778 606.461>
LayerCount: 2
Fore
SplineSet
348 575 m 0
 348 603 371 608 379 610 c 0
 474 637 487 641 499 641 c 0
 522 641 537 621 537 602 c 0
 537 560 501 558 397 529 c 0
 392 528 386 526 380 526 c 0
 349 526 348 557 348 575 c 0
EndSplineSet
EndChar

StartChar: circumflex
Encoding: 710 710 51
Width: 525
Flags: HW
TeX: 652 0
HStem: 536 162
LayerCount: 2
Fore
SplineSet
241 585 m 0
 241 608 244 606 407 691 c 0
 414 695 422 698 430 698 c 0
 443 698 453 687 463 681 c 0
 575 601 576 604 576 585 c 0
 576 568 550 535 529 535 c 0
 513 535 503 547 450 590 c 0
 441 598 431 604 422 612 c 1
 288 535 291 536 279 536 c 0
 249 536 241 577 241 585 c 0
EndSplineSet
EndChar

StartChar: tilde
Encoding: 732 732 52
Width: 525
Flags: HW
TeX: 652 0
ItalicCorrection: 173
HStem: 468 143<376.532 415.776>
LayerCount: 2
Fore
SplineSet
215 509 m 0
 215 529 235 542 293 580 c 0
 308 589 342 611 372 611 c 0
 420 611 430 560 433 552 c 1
 480 565 519 610 541 610 c 0
 563 610 578 584 578 570 c 0
 578 548 546 528 500 498 c 0
 485 489 451 468 421 468 c 0
 379 468 367 504 360 527 c 1
 314 514 275 468 252 468 c 0
 230 468 215 495 215 509 c 0
EndSplineSet
EndChar

StartChar: dieresis
Encoding: 168 168 53
Width: 525
Flags: HW
TeX: 610 0
ItalicCorrection: 173
HStem: 491 120<256.961 339.422 460.578 543.039>
VStem: 237 122<510.625 590.883> 441 122<511.117 591.375>
LayerCount: 2
Fore
SplineSet
441 544 m 0
 441 581 475 611 509 611 c 0
 537 611 563 590 563 558 c 0
 563 519 526 491 495 491 c 0
 465 491 441 512 441 544 c 0
EndSplineSet
Refer: 59 729 S 1 0 0 1 -124 0 2
EndChar

StartChar: ring
Encoding: 730 730 55
Width: 525
Flags: HW
TeX: 652 0
ItalicCorrection: 173
HStem: 491 44<374 412.768> 656 43<408.803 433.998>
VStem: 330 57<535.338 636.885> 434 57<552.574 649.992>
LayerCount: 2
Fore
SplineSet
330 555 m 0
 330 611 367 699 436 699 c 0
 458 699 491 687 491 636 c 0
 491 578 453 491 385 491 c 0
 363 491 330 504 330 555 c 0
387 553 m 0
 387 543 388 535 395 535 c 0
 413 535 434 605 434 637 c 0
 434 654 431 656 428 656 c 2
 427 656 l 2
 406 656 387 577 387 553 c 0
EndSplineSet
EndChar

StartChar: caron
Encoding: 711 711 56
Width: 525
Flags: HW
TeX: 652 0
HStem: 508 186
VStem: 284 288<651 679>
LayerCount: 2
Fore
SplineSet
284 663 m 0
 284 679 297 694 315 694 c 0
 331 694 340 681 346 674 c 0
 395 616 400 609 406 601 c 1
 525 690 528 694 542 694 c 0
 558 694 572 681 572 663 c 0
 572 648 559 639 553 633 c 0
 411 511 415 508 397 508 c 0
 380 508 373 519 358 541 c 0
 285 653 284 651 284 663 c 0
EndSplineSet
EndChar

StartChar: breve
Encoding: 728 728 57
Width: 525
Flags: HW
TeX: 652 0
ItalicCorrection: 173
HStem: 514 78<332.283 484.086>
VStem: 241 76<608.912 690.621> 532 79<631.844 690.547>
LayerCount: 2
Fore
SplineSet
241 639 m 0
 241 682 257 694 281 694 c 0
 313 694 319 676 319 663 c 0
 319 656 317 650 317 643 c 0
 317 613 356 592 402 592 c 0
 454 592 512 617 532 658 c 0
 540 675 540 694 573 694 c 0
 606 694 611 673 611 662 c 0
 611 625 543 514 399 514 c 0
 309 514 241 564 241 639 c 0
EndSplineSet
EndChar

StartChar: macron
Encoding: 175 175 58
Width: 525
Flags: HW
TeX: 610 0
ItalicCorrection: 173
HStem: 542 77<251.255 562.615>
VStem: 246 322<546.331 614.533>
LayerCount: 2
Fore
SplineSet
246 573 m 0
 246 585 250 619 288 619 c 2
 531 619 l 2
 565 619 568 594 568 588 c 0
 568 582 566 542 527 542 c 2
 281 542 l 1
 249 543 246 566 246 573 c 0
EndSplineSet
EndChar

StartChar: dotaccent
Encoding: 729 729 59
Width: 525
Flags: HW
TeX: 610 0
ItalicCorrection: 173
HStem: 491 120<380.961 463.422>
VStem: 361 122<510.625 590.883>
LayerCount: 2
Fore
SplineSet
361 544 m 0
 361 583 398 611 429 611 c 0
 459 611 483 590 483 558 c 0
 483 521 449 491 415 491 c 0
 387 491 361 512 361 544 c 0
EndSplineSet
EndChar

StartChar: cedilla
Encoding: 184 184 60
Width: 525
Flags: HW
TeX: 0 194
ItalicCorrection: 173
HStem: -210 72<95.3988 257.798>
VStem: 212 98<0.468754 48.3438> 226 84<-16.3599 58.7475> 279 84<-116.741 -66.8701>
LayerCount: 2
Fore
SplineSet
92 -179 m 0
 92 -163 99 -145 112 -138 c 0
 128 -130 279 -146 279 -86 c 0x90
 279 -52 212 -78 212 -35 c 0xc0
 212 -23 218 -1 226 31 c 0xa0
 233 61 254 61 266 61 c 2
 273 61 l 2
 307 61 310 38 310 31 c 0xc0
 310 20 306 10 304 0 c 1
 324 -8 363 -33 363 -83 c 0
 363 -128 334 -174 269 -195 c 0
 226 -208 185 -210 134 -210 c 2
 129 -210 l 2
 96 -210 92 -187 92 -179 c 0
EndSplineSet
EndChar

StartChar: ogonek
Encoding: 731 731 61
Width: 525
Flags: HW
TeX: 0 222
ItalicCorrection: 173
HStem: -196 80<219.743 293.242>
VStem: 131 88<-139.499 -77.5852>
LayerCount: 2
Fore
SplineSet
131 -114 m 0
 131 -20 277 19 326 53 c 0
 335 59 343 67 356 67 c 0
 377 67 388 48 388 31 c 0
 388 -15 263 -39 223 -95 c 0
 221 -98 219 -103 219 -106 c 0
 219 -112 224 -116 239 -116 c 0
 256 -116 283 -108 315 -76 c 0
 331 -60 337 -50 352 -50 c 0
 369 -50 392 -69 392 -89 c 0
 392 -114 313 -196 228 -196 c 0
 174 -196 131 -163 131 -114 c 0
EndSplineSet
EndChar

StartChar: guilsinglleft
Encoding: 8249 8249 63
Width: 525
Flags: HW
TeX: 427 0
ItalicCorrection: 173
HStem: -0 21G<324.5 359.5>
VStem: 151 321
DStem2: 171 244 239 209 0.799566 0.600579<33.3502 330.662>
LayerCount: 2
Fore
SplineSet
151 214 m 0
 151 230 163 238 171 244 c 2
 392 410 l 1
 407 420 411 427 434 427 c 2
 435 427 l 2
 467 427 472 407 472 398 c 0
 472 380 456 373 445 364 c 2
 239 209 l 1
 239 208 l 1
 380 40 379 43 379 29 c 0
 379 21 376 0 343 -0 c 0
 340 0 337 0 334 -0 c 0
 315 0 314 6 164 186 c 0
 158 193 151 202 151 214 c 0
EndSplineSet
EndChar

StartChar: guilsinglright
Encoding: 8250 8250 64
Width: 525
Flags: HW
TeX: 427 0
ItalicCorrection: 173
HStem: 0 21G<181 203>
VStem: 160 321
DStem2: 186 64 228 9 0.8 0.6<-29.1529 258>
LayerCount: 2
Fore
SplineSet
160 29 m 0
 160 48 177 58 186 64 c 2
 393 218 l 1
 253 386 252 382 252 398 c 0
 252 405 254 427 287 427 c 0
 308 427 312 426 329 406 c 0
 479 226 481 228 481 214 c 0
 481 202 473 193 460 183 c 2
 228 9 l 2
 216 0 209 0 197 0 c 0
 165 0 160 17 160 29 c 0
EndSplineSet
EndChar

StartChar: quotedblleft
Encoding: 8220 8220 65
Width: 525
Flags: HW
TeX: 610 0
ItalicCorrection: 173
HStem: 472 138<227 288 520 581>
VStem: 128 162<354.036 455.693> 422 162<354.036 455.693>
LayerCount: 2
Fore
SplineSet
128 407 m 0
 128 513 251 610 288 610 c 0
 307 610 325 586 325 569 c 0
 324 533 277 547 227 472 c 1
 265 471 290 446 290 410 c 0
 290 368 254 323 203 323 c 0
 158 323 128 358 128 407 c 0
422 407 m 0
 422 513 544 610 581 610 c 0
 600 610 619 586 619 569 c 0
 618 533 570 547 520 472 c 1
 558 471 584 445 584 409 c 0
 584 367 548 323 497 323 c 0
 452 323 422 358 422 407 c 0
EndSplineSet
EndChar

StartChar: quotedblright
Encoding: 8221 8221 66
Width: 525
Flags: HW
TeX: 610 0
ItalicCorrection: 173
HStem: 323 138<175 236 492 505> 591 20G<234.5 282.5 527.5 575.5>
VStem: 173 162<477.57 579.964> 466 162<478.242 579.964>
LayerCount: 2
Fore
SplineSet
137 364 m 0
 137 400 185 385 236 461 c 1
 198 462 173 488 173 524 c 0
 173 566 209 611 260 611 c 0
 305 611 335 576 335 527 c 0
 335 480 299 383 196 330 c 0
 190 327 183 323 175 323 c 0
 155 323 137 350 137 364 c 0
431 365 m 0
 431 400 480 386 530 461 c 1
 492 462 466 488 466 524 c 0
 466 566 502 611 553 611 c 0
 598 611 628 576 628 527 c 0
 628 421 505 323 468 323 c 0
 451 323 431 345 431 365 c 0
EndSplineSet
EndChar

StartChar: quotedblbase
Encoding: 8222 8222 67
Width: 525
Flags: HW
TeX: 149 138
ItalicCorrection: 173
HStem: -138 138<60 121 377 390>
VStem: 58 162<16.3074 117.964> 351 162<16.3074 117.964>
LayerCount: 2
Fore
SplineSet
22 -98 m 0
 22 -62 72 -75 121 -0 c 1
 83 1 58 27 58 63 c 0
 58 105 94 149 145 149 c 0
 190 149 220 114 220 65 c 0
 220 -41 97 -138 60 -138 c 0
 40 -138 22 -112 22 -98 c 0
316 -97 m 0
 316 -60 364 -78 415 -0 c 1
 377 1 351 27 351 63 c 0
 351 105 387 149 438 149 c 0
 483 149 513 114 513 65 c 0
 513 -41 390 -138 353 -138 c 0
 337 -138 316 -117 316 -97 c 0
EndSplineSet
EndChar

StartChar: dotlessi
Encoding: 305 305 73
Width: 525
Flags: HW
TeX: 444 0
ItalicCorrection: 173
HStem: -4 76<314.135 380.063> 372 76<256.085 322.514>
VStem: 137 81<268.451 329.502> 227 86<73.6819 146.83> 323 85<297.546 370.318> 414 84<108.73 174.993>
AnchorPoint: "below" 261 0 basechar 0
AnchorPoint: "above" 374 448 basechar 0
LayerCount: 2
Fore
SplineSet
137 297 m 1
 141 347 207 448 304 448 c 0
 360 448 408 412 408 358 c 2
 408 352 l 2
 408 337 403 328 317 108 c 0
 315 102 313 96 313 90 c 0
 313 78 324 72 336 72 c 0
 368 73 400 105 414 148 c 0
 419 162 422 177 452 177 c 2
 457 177 l 2
 476 177 497 176 498 148 c 1
 496 104 432 -4 331 -4 c 0
 274 -4 227 32 227 86 c 2
 227 92 l 2
 227 118 323 341 323 354 c 0
 323 365 312 372 300 372 c 0
 242 371 218 285 218 285 c 1
 210 268 194 267 184 267 c 2
 175 267 l 2
 161 267 137 268 137 297 c 1
EndSplineSet
EndChar

StartChar: dotlessj
Encoding: 567 567 74
Width: 525
Flags: HW
TeX: 444 222
ItalicCorrection: 173
HStem: -226 75<165.413 255.204> 373 75<322.363 407.277>
VStem: 193 84<268.813 327.593> 408 84<260.125 370.29>
DStem2: 265.236 -226 351.737 -226 0.242599 0.970127<109.283 592.139>
AnchorPoint: "below" 245 -222 basechar 0
AnchorPoint: "above" 476 448 basechar 0
LayerCount: 2
Fore
SplineSet
89 -166 m 0
 89 -138 109 -117 135 -117 c 0
 158 -117 169 -132 174 -150 c 1
 181 -150 189 -151 196 -151 c 0
 220 -151 286 -143 317 -19 c 2
 404 329 l 2
 406 336 408 342 408 349 c 0
 407 359 399 373 376 373 c 0
 347 373 302 349 277 294 c 0
 265 268 256 267 239 267 c 0
 235 267 231 267 227 267 c 0
 196 267 193 286 193 295 c 0
 193 333 270 448 382 448 c 0
 443 448 492 410 492 352 c 0
 492 333 486 314 483 302 c 2
 400 -33 l 2
 390 -72 376 -126 319 -177 c 0
 283 -209 243 -226 192 -226 c 0
 146 -226 89 -217 89 -166 c 0
EndSplineSet
EndChar

StartChar: ff
Encoding: 64256 64256 75
Width: 525
Flags: HW
TeX: 610 222
ItalicCorrection: 173
HStem: -226 121<8.76602 67.4844 217.883 276.445> -226 76<280 307.016> 369 75<100.815 175 276 425 525 611.681> 494 121<344.919 402.908 545.656 607.112> 540 75<294.152 341>
VStem: -10 150<-197.311 -123.669> 472 156<526.84 593.883>
DStem2: 175 369 260 369 0.204414 0.978885<-231.783 0 94.0622 194.173> 411 302 416 -72 0.206506 0.978445<-245.969 68.4469 162.481 243.919>
LayerCount: 2
Fore
SplineSet
-10 -158 m 0
 -10 -120 17 -105 37 -105 c 0
 46 -105 57 -109 68 -120 c 1
 69 -42 101 34 120 104 c 0
 134 156 152 263 175 369 c 1
 135 369 l 2
 123 369 97 371 97 402 c 0
 97 442 127 444 140 444 c 0
 157 444 174 444 191 444 c 1
 205 519 212 615 331 615 c 0xae
 388 615 426 587 426 545 c 0
 426 509 400 494 380 494 c 0x36
 364 494 339 505 341 538 c 1
 333 539 326 540 321 540 c 0x2e
 292 540 293 528 276 444 c 1
 440 444 l 1
 449 487 459 546 472 570 c 0
 490 601 521 614 551 614 c 0
 591 614 628 589 628 546 c 0
 628 509 601 494 581 494 c 0
 560 494 547 507 542 525 c 1
 525 444 l 1x36
 577 444 l 2
 591 444 616 442 616 411 c 0
 616 402 613 370 576 369 c 1
 510 369 l 1
 509 361 443 26 416 -72 c 0
 376 -216 307 -226 280 -226 c 0x76
 233 -226 196 -198 196 -156 c 0
 196 -126 216 -105 242 -105 c 0xa6
 259 -105 282 -116 280 -150 c 1x66
 318 -145 334 -77 411 302 c 0
 415 324 421 347 425 369 c 1
 260 369 l 1
 195 51 162 -116 140 -163 c 0
 129 -187 105 -226 60 -226 c 0
 23 -226 -10 -199 -10 -158 c 0
EndSplineSet
Ligature2: "Latin ligatures subtable" f f
EndChar

StartChar: fi
Encoding: 64257 64257 76
Width: 525
Flags: HW
TeX: 610 222
ItalicCorrection: 173
HStem: -226 121<10.2532 67.5138> -4 76<421.201 458.712> 369 75<117.854 208 307 402> 540 75<325.375 445.343>
VStem: 336 85<73.5257 186.495> 459 103<79.4038 157.377>
LayerCount: 2
Fore
SplineSet
-14 -156 m 0
 -14 -126 7 -105 32 -105 c 0
 53 -105 73 -120 71 -149 c 1
 83 -150 l 1
 90 -148 l 1
 116 -110 134 -24 208 369 c 1
 153 369 l 2
 137 369 114 371 114 402 c 0
 114 412 117 444 153 444 c 2
 222 444 l 1
 241 547 249 615 393 615 c 0
 455 615 531 613 531 552 c 0
 531 525 513 502 486 502 c 0
 463 502 448 518 446 537 c 1
 432 539 417 540 401 540 c 2
 393 540 l 2
 322 540 322 539 307 444 c 1
 459 444 l 2
 488 444 497 433 497 416 c 0
 497 410 496 402 494 395 c 2
 424 113 l 2
 422 106 421 100 421 95 c 0
 421 75 433 72 438 72 c 0
 444 72 452 76 459 90 c 0
 483 139 469 177 513 177 c 2
 525 177 l 2
 557 177 562 158 562 148 c 0
 562 140 532 -4 436 -4 c 0
 400 -4 336 16 336 96 c 0
 336 111 338 115 402 369 c 1
 292 369 l 1
 285 324 226 7 203 -82 c 0
 186 -145 154 -226 78 -226 c 0
 27 -226 -14 -198 -14 -156 c 0
EndSplineSet
Ligature2: "Latin ligatures excepting Turkic subtable" f i
EndChar

StartChar: fl
Encoding: 64258 64258 77
Width: 525
Flags: HW
TeX: 610 222
ItalicCorrection: 173
HStem: -226 121<-2.70963 57.5559> -4 77<428.844 460.658> 369 75<87.6171 174 273 409> 540 75<290.594 367.727>
VStem: 343 85<73.7569 185.359> 482 80<94.3639 175.511>
DStem2: 73 -110 165 -95 0.196428 0.980518<-37.5548 489.507 582.493 680.646> 260.209 -226 345.727 -226 0.242599 0.970127<363.821 613.322 691.661 764.664 795.951 853.891>
LayerCount: 2
Fore
SplineSet
-23 -157 m 0
 -23 -121 3 -105 23 -105 c 0
 37 -105 59 -111 63 -147 c 1
 69 -133 69 -132 73 -110 c 0
 89 -12 107 17 136 170 c 0
 166 329 171 349 174 369 c 1
 122 369 l 2
 108 369 83 371 83 402 c 0
 83 412 87 444 124 444 c 2
 188 444 l 1
 204 529 209 615 341 615 c 0
 444 615 451 567 454 546 c 1
 466 605 471 611 503 611 c 0
 534 611 546 603 546 583 c 0
 546 577 545 569 543 560 c 2
 429 107 l 2
 428 104 428 99 428 93 c 0
 428 78 436 73 442 73 c 0
 463 73 476 149 482 161 c 0
 490 177 506 177 517 177 c 2
 530 177 l 2
 549 177 562 163 562 148 c 0
 562 143 536 -4 439 -4 c 0
 389 -4 343 33 343 90 c 0
 343 107 340 94 409 369 c 1
 259 369 l 1
 259 369 191 1 165 -95 c 0
 149 -153 121 -226 55 -226 c 0
 12 -226 -23 -199 -23 -157 c 0
273 444 m 1
 428 444 l 1
 428 445 l 1
 445 516 l 1
 431 496 415 494 407 494 c 0
 387 494 367 509 368 537 c 1
 367 538 348 540 335 540 c 0
 294 540 293 534 286 509 c 0
 283 496 275 457 273 444 c 1
EndSplineSet
Ligature2: "Latin ligatures subtable" f l
EndChar

StartChar: ffi
Encoding: 64259 64259 78
Width: 525
Flags: HW
TeX: 610 222
ItalicCorrection: 173
HStem: -226 121<123.377 183.869> -4 21G<433 491.5> 369 75<64.5572 133 234 317 418 448> 494 121<269.938 331.06> 540 75<437.822 491.626>
VStem: 149 85<444 476.375> 266 85<501.375 540> 381 180<70.5481 163.524>
DStem2: -15.7915 -226 79.9883 -226 0.242599 0.970127<153.723 348.474> 236 -1 338 60 0.212977 0.977057<-152.036 378.762 473.552 575.301>
LayerCount: 2
Fore
SplineSet
-20 -167 m 0
 -20 -133 -6 -111 22 -105 c 1
 21 -99 21 -93 21 -87 c 0
 21 -21 59 51 77 110 c 0
 88 148 115 292 133 369 c 1
 101 369 l 2
 87 369 61 370 60 400 c 1
 63 443 86 444 102 444 c 0
 118 444 133 444 149 444 c 1
 159 501 171 549 184 570 c 0
 201 596 236 615 273 615 c 0
 317 615 351 588 351 547 c 0
 351 507 323 494 305 494 c 0xf7
 284 494 266 510 266 533 c 0
 266 535 267 538 267 540 c 1
 257 537 l 1
 250 518 l 1
 234 444 l 1
 333 444 l 1
 350 524 355 615 479 615 c 2
 480 615 l 2
 562 615 578 577 578 552 c 0
 578 526 560 502 532 502 c 0
 509 502 494 519 492 539 c 1
 484 540 477 540 471 540 c 0xef
 435 540 437 534 418 444 c 1
 511 444 l 2
 537 444 544 425 544 418 c 0
 544 392 510 283 483 165 c 1
 495 176 501 177 510 177 c 0
 531 177 534 178 540 176 c 0
 549 173 561 166 561 147 c 0
 561 143 559 138 558 132 c 0
 548 93 528 -4 455 -4 c 0
 411 -4 381 32 381 82 c 0
 381 104 382 106 448 369 c 1
 402 369 l 1
 399 351 396 333 392 316 c 2
 338 60 l 1
 304 -95 275 -226 180 -226 c 0
 165 -226 110 -220 102 -161 c 1
 88 -205 60 -226 32 -226 c 0
 1 -226 -20 -202 -20 -167 c 0
110 -127 m 1
 113 -124 126 -105 149 -105 c 0xe7
 169 -105 190 -121 188 -149 c 1
 204 -130 206 -116 236 -1 c 0
 265 109 271 147 317 369 c 1
 218 369 l 1
 218 368 l 1
 163 108 l 1
 122 -58 l 1
 114 -100 l 1
 110 -127 l 1
EndSplineSet
Ligature2: "Latin ligatures excepting Turkic subtable" ff i
Ligature2: "Latin ligatures excepting Turkic subtable" f f i
EndChar

StartChar: ffl
Encoding: 64260 64260 79
Width: 525
Flags: HW
TeX: 610 222
ItalicCorrection: 173
HStem: -226 121<127.726 189.414> -4 21G<434 478> 369 75<71.1868 139 240 322 422 450> 494 121<274.938 335.71 431.9 481.498>
VStem: 271 85<501.318 540> 382 179<67.5805 167.047>
DStem2: -9.79146 -226 87.741 -226 0.242599 0.970127<148.946 264.16 302.302 361.926 507.917 613.322 710.584 810.766> 269 118 340 52 0.20501 0.97876<-247.73 256.534 350.442 404.673> 301.209 -226 386.473 -226 0.242599 0.970127<428.738 613.322 691.661 764.664 799.832 851.952>
LayerCount: 2
Fore
SplineSet
-10 -170 m 0
 -10 -118 19 -109 27 -107 c 1
 26 -100 25 -92 25 -85 c 0
 25 -3 72 51 94 157 c 0
 130 327 134 348 139 369 c 1
 108 369 l 2
 93 369 67 369 67 401 c 0
 67 440 96 444 108 444 c 0
 124 444 139 444 155 444 c 1
 170 518 176 548 190 570 c 0
 207 596 242 615 278 615 c 0
 321 615 356 587 356 546 c 0
 356 511 332 494 310 494 c 0
 289 494 271 510 271 533 c 2
 271 540 l 1
 257 533 260 532 240 444 c 1
 338 444 l 1
 343 469 358 548 369 570 c 0
 381 593 408 614 437 615 c 0
 460 615 491 604 495 550 c 1
 507 604 510 611 543 611 c 0
 550 611 558 612 565 610 c 0
 573 608 587 598 587 581 c 0
 587 575 585 570 584 564 c 2
 485 168 l 1
 495 176 498 177 518 177 c 0
 525 177 533 178 540 176 c 0
 556 171 561 157 561 149 c 0
 561 138 547 77 529 45 c 0
 521 31 500 -4 456 -4 c 0
 412 -4 382 32 382 81 c 0
 382 103 380 92 450 369 c 1
 407 369 l 1
 340 52 l 1
 307 -99 277 -226 184 -226 c 0
 164 -226 119 -219 108 -165 c 1
 99 -188 80 -226 39 -226 c 0
 7 -226 -10 -201 -10 -170 c 0
116 -127 m 1
 119 -124 131 -105 154 -105 c 0
 165 -105 193 -111 194 -148 c 1
 203 -132 l 1
 219 -83 253 42 269 118 c 2
 322 369 l 1
 224 369 l 1
 163 83 l 1
 129 -49 l 1
 120 -97 l 1
 116 -127 l 1
422 444 m 1
 468 444 l 1
 469 445 l 1
 486 516 l 1
 475 504 467 494 448 494 c 0
 444 494 438 495 433 496 c 1
 422 444 l 1
EndSplineSet
Ligature2: "Latin ligatures subtable" ff l
Ligature2: "Latin ligatures subtable" f f l
EndChar

StartChar: uni2423
Encoding: 9251 9251 80
Width: 525
Flags: HW
TeX: 444 111
ItalicCorrection: 173
HStem: -138 53<109 372>
DStem2: 42.7435 -138 95.7463 -138 0.242599 0.970127<68.3365 381.452>
LayerCount: 2
Fore
SplineSet
50 -118 m 0
 50 -107 60 -69 66 -45 c 2
 128 202 l 2
 129 207 135 240 164 240 c 0
 171 240 185 236 185 220 c 0
 185 212 181 204 180 197 c 2
 118 -50 l 2
 115 -62 112 -74 109 -85 c 1
 372 -85 l 1
 372 -84 l 1
 374 -74 420 110 444 207 c 0
 452 236 470 240 479 240 c 0
 491 240 500 232 500 220 c 0
 500 214 497 207 496 201 c 2
 422 -96 l 2
 418 -114 413 -138 378 -138 c 2
 77 -138 l 2
 66 -138 51 -136 50 -118 c 0
EndSplineSet
EndChar

StartChar: exclam
Encoding: 33 33 81
Width: 525
Flags: HW
TeX: 610 0
ItalicCorrection: 173
HStem: 0 149<236.25 325.32> 599 20G<394 427>
VStem: 205 152<31.3839 118.036>
LayerCount: 2
Fore
SplineSet
205 65 m 0
 205 108 245 149 292 149 c 0
 328 149 357 123 357 85 c 0
 357 43 318 0 270 0 c 0
 234 0 205 26 205 65 c 0
266 252 m 0
 266 259 268 265 269 272 c 2
 321 534 l 2
 323 546 325 557 330 568 c 0
 345 599 378 619 410 619 c 0
 444 619 475 595 475 557 c 0
 475 542 470 527 467 518 c 2
 389 260 l 2
 382 237 378 222 348 222 c 0
 333 222 318 222 303 222 c 0
 294 222 266 224 266 252 c 0
EndSplineSet
EndChar

StartChar: quotedbl
Encoding: 34 34 82
Width: 525
Flags: HW
TeX: 610 0
ItalicCorrection: 173
HStem: 336 275<281.397 301.335 457.397 477.928>
VStem: 228 306
LayerCount: 2
Fore
SplineSet
228 367 m 0
 228 376 227 368 271 559 c 0
 273 569 279 611 319 611 c 0
 339 611 358 596 358 572 c 0
 358 563 359 570 305 370 c 0
 303 362 299 337 271 336 c 1
 263 336 l 1
 232 337 228 359 228 367 c 0
404 367 m 0
 404 376 410 398 447 559 c 0
 449 567 455 611 495 611 c 0
 517 611 534 595 534 572 c 0
 534 563 536 571 481 368 c 0
 479 360 474 336 447 336 c 2
 437 336 l 2
 419 336 404 349 404 367 c 0
EndSplineSet
EndChar

StartChar: numbersign
Encoding: 35 35 83
Width: 525
Flags: HW
TeX: 610 0
ItalicCorrection: 173
HStem: 0 21G<165 184.5 304 323.5> 156 76<123.579 177 284 316 422 497.531> 379 76<178.538 254 360 393 499 553.203> 590 20G<352.5 373 491.5 512>
VStem: 328 70<532.781 606.889> 467 70<532.781 606.889>
DStem2: 177 156 210 21 0.327931 0.944702<-124.388 -0.604433 106.886 235.919 342.477 467.555> 316 156 349 21 0.327931 0.944702<-124.388 -0.604433 106.558 235.919 342.477 467.555>
LayerCount: 2
Fore
SplineSet
120 194 m 0
 120 215 134 228 150 231 c 0
 156 232 163 232 169 232 c 2
 204 232 l 1
 254 379 l 1
 222 379 l 2
 182 379 175 402 175 417 c 0
 175 429 180 455 223 455 c 2
 280 455 l 1
 327 591 325 585 328 591 c 0
 334 602 344 610 361 610 c 0
 385 610 398 589 398 575 c 0
 398 559 372 495 360 455 c 1
 419 455 l 1
 466 591 464 585 467 591 c 0
 473 602 483 610 500 610 c 0
 524 610 537 589 537 575 c 0
 537 559 511 495 499 455 c 1
 510 455 l 2
 552 455 557 427 557 417 c 0
 557 398 543 383 526 380 c 0
 520 379 514 379 508 379 c 2
 472 379 l 1
 422 232 l 1
 456 232 l 2
 494 232 501 209 501 194 c 0
 501 182 496 156 453 156 c 2
 396 156 l 1
 396 155 352 27 349 21 c 0
 343 10 332 0 315 0 c 0
 293 0 278 21 278 37 c 0
 278 48 285 65 316 156 c 1
 257 156 l 1
 257 155 213 27 210 21 c 0
 204 10 193 0 176 0 c 0
 154 0 139 21 139 37 c 0
 139 48 146 65 177 156 c 1
 166 156 l 2
 123 156 120 185 120 194 c 0
284 232 m 1
 342 232 l 1
 393 379 l 1
 334 379 l 1
 284 232 l 1
EndSplineSet
EndChar

StartChar: dollar
Encoding: 36 36 84
Width: 525
Flags: HW
TeX: 694 83
ItalicCorrection: 173
VStem: 128 84<82.8077 205.391> 198 81<378.112 487.521> 402 80<133.5 256.313> 466 85<417.969 528.219>
DStem2: 201.994 -83 279.744 -83 0.242599 0.970127<31.7015 86.5866 187.971 378.847 466.155 633.019 733.192 787.016>
LayerCount: 2
Fore
SplineSet
128 127 m 0
 128 173 139 217 180 217 c 0
 203 217 218 199 218 179 c 0
 218 169 212 150 212 130 c 0xa0
 212 87 239 78 243 76 c 1
 295 286 l 1
 221 308 198 369 198 414 c 0
 198 493 260 597 376 612 c 1
 377 613 l 1
 391 678 395 694 425 694 c 2
 429 694 l 2
 458 694 465 675 465 663 c 0
 465 652 459 638 453 610 c 1
 503 599 551 561 551 488 c 0
 551 453 541 406 500 406 c 0
 479 406 461 421 461 444 c 0
 461 452 466 469 466 485 c 0x50
 466 516 451 527 434 535 c 1
 388 349 l 1
 431 336 482 295 482 214 c 0x20
 482 137 427 19 300 -2 c 1
 286 -65 283 -83 251 -83 c 0
 250 -83 249 -83 248 -83 c 0
 215 -83 211 -61 211 -53 c 0
 211 -44 215 -31 223 1 c 1
 166 15 128 58 128 127 c 0
279 425 m 0x40
 279 396 295 378 316 369 c 1
 356 531 l 1
 297 508 279 452 279 425 c 0x40
321 81 m 1
 374 103 402 162 402 205 c 0x20
 402 233 391 253 368 266 c 1
 321 81 l 1
EndSplineSet
EndChar

StartChar: percent
Encoding: 37 37 85
Width: 525
Flags: HW
TeX: 694 83
ItalicCorrection: 173
HStem: -83 266<369.906 413.25>
VStem: 202 70<517 597.836> 310 70<7 86.0848>
DStem2: 103 -12 179 -47 0.506632 0.862163<-30.9525 815.175>
LayerCount: 2
Fore
SplineSet
92 -42 m 0
 92 -30 98 -21 103 -12 c 2
 502 667 l 2
 506 674 518 694 542 694 c 0
 567 694 583 673 583 652 c 0
 583 640 578 633 573 624 c 2
 179 -47 l 2
 171 -60 161 -83 134 -83 c 0
 112 -83 92 -65 92 -42 c 0
202 505 m 0
 202 553 234 694 310 694 c 0
 332 694 366 679 366 616 c 0
 366 560 329 428 258 428 c 0
 235 428 202 442 202 505 c 0
272 517 m 1
 285 541 293 572 297 605 c 1
 282 582 273 537 272 517 c 1
EndSplineSet
Refer: 720 8320 S 1 0 0 1 118 0 2
EndChar

StartChar: ampersand
Encoding: 38 38 86
Width: 525
Flags: HW
TeX: 610 0
ItalicCorrection: 173
HStem: -8 75<212.052 383.432> 543 76<284.501 329.286> 591 20G<558 596>
VStem: 89 84<104.195 262.526> 155 180<324.371 432.068> 330 86<493.483 542.283> 382 84<294.477 345.705> 497 85<297 351.862>
LayerCount: 2
Fore
SplineSet
89 164 m 0xb3
 89 265 155 355 155 368 c 0xa9
 155 372 154 376 154 382 c 0
 154 471 211 619 324 619 c 0
 373 619 416 589 416 540 c 0
 416 499 388 486 369 486 c 0
 348 486 330 501 330 524 c 2
 330 534 l 2xc5
 330 539 326 543 320 543 c 0
 305 543 266 523 245 436 c 1
 254 439 269 443 283 443 c 0
 318 443 335 416 335 383 c 0xc9
 335 340 311 267 252 267 c 0
 238 267 221 272 202 282 c 1
 197 270 173 210 173 166 c 0
 173 93 231 67 291 67 c 0
 436 67 465 189 472 215 c 1
 426 221 382 253 382 310 c 0
 382 394 465 410 505 476 c 0
 547 545 530 611 586 611 c 0
 606 611 625 595 625 572 c 0
 625 557 602 469 563 417 c 1
 563 416 l 1
 574 398 582 378 582 346 c 0
 582 298 556 201 545 170 c 0
 494 27 381 -8 288 -8 c 0
 172 -8 89 50 89 164 c 0xb3
466 313 m 0x83
 466 305 469 301 474 294 c 1
 485 296 l 1
 493 297 l 1
 497 331 l 1
 496 353 l 1
 489 347 466 333 466 313 c 0x83
EndSplineSet
EndChar

StartChar: quoteright
Encoding: 8217 8217 87
Width: 525
Flags: HW
TeX: 610 0
ItalicCorrection: 173
HStem: 591 20G<383.5 430.5>
VStem: 319 167<478.367 579.32>
LayerCount: 2
Fore
SplineSet
256 294 m 0
 256 314 276 322 286 328 c 0
 337 359 376 404 399 462 c 1
 394 461 389 461 384 461 c 0
 347 461 319 487 319 524 c 0
 319 570 360 611 407 611 c 0
 454 611 486 575 486 517 c 0
 486 378 331 253 294 253 c 0
 275 253 256 278 256 294 c 0
EndSplineSet
EndChar

StartChar: parenleft
Encoding: 40 40 88
Width: 525
Flags: HW
TeX: 694 83
ItalicCorrection: 173
VStem: 234 83<41.1039 312.399>
LayerCount: 2
Fore
SplineSet
234 172 m 0
 234 330 315 558 504 684 c 0
 518 693 524 694 537 694 c 2
 538 694 l 2
 570 694 575 676 575 665 c 0
 575 649 562 641 552 634 c 0
 400 527 317 328 317 162 c 0
 317 6 395 -23 395 -55 c 0
 395 -62 392 -83 358 -83 c 0
 339 -83 329 -81 299 -42 c 0
 248 24 234 108 234 172 c 0
EndSplineSet
EndChar

StartChar: parenright
Encoding: 41 41 89
Width: 525
Flags: HW
TeX: 694 83
ItalicCorrection: 173
VStem: 359 83<298.517 570.96>
LayerCount: 2
Fore
SplineSet
101 -54 m 0
 101 -36 119 -27 127 -21 c 0
 277 86 359 285 359 446 c 0
 359 608 281 633 281 665 c 0
 281 673 284 694 316 694 c 2
 319 694 l 2
 333 694 340 693 355 678 c 0
 379 654 442 583 442 439 c 0
 442 280 361 53 172 -73 c 0
 156 -83 152 -83 141 -83 c 2
 139 -83 l 2
 108 -83 101 -66 101 -54 c 0
EndSplineSet
EndChar

StartChar: asterisk
Encoding: 42 42 90
Width: 525
Flags: HW
TeX: 529 0
ItalicCorrection: 173
VStem: 253 102<135.139 189.525> 353 70<423.257 522.879>
LayerCount: 2
Fore
SplineSet
149 208 m 0
 149 240 177 250 234 280 c 2
 282 305 l 1
 282 306 l 1
 205 362 193 366 193 385 c 0
 193 404 214 433 242 433 c 0
 258 433 262 425 321 368 c 1
 347 506 350 500 353 505 c 0
 362 518 377 527 393 527 c 0
 410 527 423 517 423 500 c 0x40
 423 487 422 487 386 368 c 1
 474 425 481 433 497 433 c 0
 513 433 527 421 527 403 c 0
 527 371 506 365 394 305 c 1
 482 241 483 243 483 226 c 0
 483 203 458 178 434 178 c 0
 417 178 407 192 355 243 c 1
 334 139 334 84 282 84 c 0x80
 267 84 253 95 253 111 c 0x80
 253 124 259 138 290 243 c 1
 202 185 194 178 178 178 c 0
 162 178 149 190 149 208 c 0
EndSplineSet
EndChar

StartChar: plus
Encoding: 43 43 91
Width: 525
Flags: HW
TeX: 529 -80
ItalicCorrection: 173
HStem: 268 75<152.691 290 386 522.863>
VStem: 254 75<84.656 200.596>
DStem2: 243.237 81 320.237 81 0.242599 0.970127<38.9138 192.758 288.807 442.62>
LayerCount: 2
Fore
SplineSet
149 305 m 0
 149 316 153 343 196 343 c 2
 309 343 l 1
 309 344 l 1
 312 358 316 372 344 486 c 0
 347 498 353 530 385 530 c 0
 404 530 422 515 422 493 c 0
 422 484 409 435 386 343 c 1
 481 343 l 2
 522 343 527 314 527 305 c 0
 527 294 522 268 481 268 c 2
 367 268 l 1
 364 253 360 237 329 115 c 0
 325 98 314 81 291 81 c 0
 272 81 254 96 254 118 c 0
 254 127 256 133 290 268 c 1
 194 268 l 2
 154 268 149 296 149 305 c 0
EndSplineSet
EndChar

StartChar: comma
Encoding: 44 44 92
Width: 525
Flags: HW
TeX: 149 138
ItalicCorrection: 173
HStem: -138 287
VStem: 204 163<17.2886 117.046>
LayerCount: 2
Fore
SplineSet
158 -97 m 0
 158 -57 212 -80 268 0 c 1
 229 1 204 27 204 63 c 0
 204 105 241 149 292 149 c 0
 337 149 367 114 367 65 c 0
 367 18 329 -88 215 -134 c 0
 209 -136 202 -138 196 -138 c 0
 176 -138 158 -112 158 -97 c 0
EndSplineSet
EndChar

StartChar: hyphen
Encoding: 45 45 93
Width: 525
Flags: HW
TeX: 444 0
ItalicCorrection: 173
HStem: 185 75<173.376 461.069>
VStem: 168 298<189.273 255.379>
LayerCount: 2
Fore
SplineSet
168 215 m 0
 168 223 171 260 210 260 c 2
 429 260 l 2
 464 260 466 235 466 229 c 0
 466 223 464 185 425 185 c 2
 214 185 l 2
 211 185 208 184 205 184 c 0
 172 184 168 208 168 215 c 0
EndSplineSet
EndChar

StartChar: period
Encoding: 46 46 94
Width: 525
Flags: HW
TeX: 149 0
ItalicCorrection: 173
HStem: 0 149<236.689 325.477>
VStem: 204 152<30.9643 116.682>
LayerCount: 2
Fore
SplineSet
204 64 m 0
 204 107 245 149 292 149 c 0
 328 149 356 123 356 85 c 0
 356 41 316 0 269 0 c 0
 233 0 204 26 204 64 c 0
EndSplineSet
EndChar

StartChar: slash
Encoding: 47 47 95
Width: 525
Flags: HW
TeX: 694 83
ItalicCorrection: 173
DStem2: 523 670 586 628 0.533435 0.845841<-841.992 28.002>
LayerCount: 2
Fore
SplineSet
79 -46 m 0
 79 -34 84 -26 91 -15 c 2
 523 670 l 2
 527 677 537 694 559 694 c 0
 580 694 597 677 597 657 c 0
 597 645 591 636 586 628 c 2
 160 -47 l 2
 152 -59 142 -83 117 -83 c 0
 96 -83 79 -68 79 -46 c 0
EndSplineSet
EndChar

StartChar: zero
Encoding: 48 48 96
Width: 525
Flags: HW
TeX: 610 0
ItalicCorrection: 173
HStem: -8 75<238.643 331.466> 544 75<346.422 440.397>
VStem: 130 86<88.2491 311.44> 464 83<300.44 518.593>
LayerCount: 2
Fore
SplineSet
130 167 m 0
 130 343 244 619 417 619 c 0
 469 619 547 587 547 442 c 0
 547 348 502 142 386 44 c 0
 327 -6 275 -8 260 -8 c 0
 208 -8 130 25 130 167 c 0
216 179 m 0
 216 137 225 67 279 67 c 0
 387 67 464 325 464 433 c 0
 464 513 433 544 398 544 c 0
 289 544 216 303 216 179 c 0
EndSplineSet
Substitution2: "LGC old numerals subtable" zerooldstyle
EndChar

StartChar: one
Encoding: 49 49 97
Width: 525
Flags: HW
TeX: 610 0
ItalicCorrection: 173
HStem: -0 75<134.474 250 336 427.713> 419 66<231.656 310.042> 596 20G<419.5 429>
VStem: 130 332
DStem2: 231.245 -0 317.245 -0 0.242599 0.970127<98.173 455.665>
LayerCount: 2
Fore
SplineSet
130 31 m 0
 130 47 136 75 170 75 c 2
 250 75 l 1
 342 442 l 1
 327 433 296 419 264 419 c 0
 238 419 230 435 230 451 c 0
 230 465 237 479 243 485 c 0
 267 506 315 472 394 592 c 0
 404 608 411 616 428 616 c 0
 430 616 432 615 434 615 c 1
 434 616 l 1
 461 610 462 591 462 585 c 0
 462 580 461 575 460 570 c 2
 349 128 l 2
 345 110 340 93 336 75 c 1
 394 75 l 2
 409 75 432 74 432 43 c 0
 432 32 429 0 391 -0 c 2
 168 -0 l 2
 134 0 130 21 130 31 c 0
EndSplineSet
Substitution2: "LGC old numerals subtable" oneoldstyle
EndChar

StartChar: two
Encoding: 50 50 98
Width: 525
Flags: HW
TeX: 610 0
ItalicCorrection: 173
HStem: -8 82<289.132 415.963> 544 75<311.776 438.044>
VStem: 160 85<416.752 483.237> 459 84<124.021 195.379 385.212 523.489>
LayerCount: 2
Fore
SplineSet
79 21 m 0
 79 49 126 188 266 261 c 0
 379 320 459 355 459 463 c 0
 459 527 416 544 381 544 c 0
 324 544 264 501 245 446 c 0
 236 419 231 415 204 415 c 2
 199 415 l 2
 183 415 160 416 160 444 c 0
 160 497 247 619 385 619 c 0
 477 619 543 563 543 465 c 0
 543 278 359 228 281 176 c 0
 256 160 235 140 216 118 c 1
 270 110 326 74 368 74 c 0
 421 74 450 143 457 166 c 0
 463 185 465 198 500 198 c 0
 523 198 542 192 542 168 c 0
 542 137 483 -8 365 -8 c 0
 290 -8 237 44 191 44 c 0
 152 44 176 -8 126 -8 c 0
 123 -8 119 -8 116 -8 c 0
 83 -8 79 11 79 21 c 0
EndSplineSet
Substitution2: "LGC old numerals subtable" twooldstyle
EndChar

StartChar: three
Encoding: 51 51 99
Width: 525
Flags: HW
TeX: 610 0
ItalicCorrection: 173
HStem: -8 75<205.087 330.72> 280 75<265.62 381.851> 450 21G<242 272> 544 75<334.229 455.833>
VStem: 111 84<77.7162 181.198> 211 87<452.825 512.068> 396 83<131.573 267.851> 466 85<415.349 533.924>
LayerCount: 2
Fore
SplineSet
111 118 m 0
 111 179 140 190 160 190 c 0
 181 190 199 173 199 151 c 0
 199 141 195 134 195 120 c 0
 195 96 207 67 253 67 c 0
 305 67 396 96 396 212 c 0
 396 263 370 280 332 280 c 2
 300 280 l 2
 283 280 261 282 261 312 c 0
 261 321 264 355 301 355 c 2xfe
 339 355 l 2
 432 355 466 441 466 488 c 0
 466 533 434 544 405 544 c 0
 362 544 316 521 298 485 c 0
 287 462 290 450 254 450 c 2
 249 450 l 2
 235 450 211 452 211 479 c 0
 211 526 285 619 409 619 c 0
 488 619 551 575 551 490 c 0xfd
 551 422 513 348 449 310 c 1
 466 286 479 261 479 214 c 0
 479 66 368 -8 246 -8 c 0
 154 -8 111 56 111 118 c 0
EndSplineSet
Substitution2: "LGC old numerals subtable" threeoldstyle
EndChar

StartChar: four
Encoding: 52 52 100
Width: 525
Flags: HW
TeX: 610 222
ItalicCorrection: 173
HStem: -37 87<388.979 457.345> 0 21G<92 111> 599 20G<422 444>
VStem: 249 86<-213.731 -93.3511> 393 80<521.742 613.967>
DStem2: 237.736 -222 322.737 -222 0.242599 0.970127<41.3442 211.318 288.687 430.287>
LayerCount: 2
Fore
SplineSet
64 41 m 0
 64 71 90 64 170 149 c 0
 340 331 383 571 393 592 c 0
 397 599 410 619 434 619 c 0
 454 619 473 604 473 581 c 0
 473 570 415 290 211 85 c 1
 244 81 276 70 307 57 c 1
 335 171 337 213 382 213 c 0
 403 213 421 199 421 176 c 0
 421 170 416 151 388 38 c 1
 409 40 423 50 436 50 c 0
 454 50 473 23 473 8 c 0xb8
 473 -20 416 -37 380 -37 c 2
 369 -37 l 1xb8
 366 -51 363 -65 335 -176 c 0
 333 -184 325 -222 288 -222 c 0
 266 -222 249 -206 249 -183 c 0
 249 -167 274 -88 289 -17 c 1
 231 3 229 11 169 11 c 0
 111 11 118 0 104 0 c 0x78
 80 0 64 28 64 41 c 0
EndSplineSet
Substitution2: "LGC old numerals subtable" fouroldstyle
EndChar

StartChar: five
Encoding: 53 53 101
Width: 525
Flags: HW
TeX: 610 0
ItalicCorrection: 173
HStem: -8 75<210.458 329.028> 310 76<286.035 400.333> 535 76<326 549.119>
VStem: 117 84<76.7143 171.92> 410 84<158.978 301.399>
DStem2: 104.479 -8 190.224 -8 0.242599 0.970127<411.472 580.52>
LayerCount: 2
Fore
SplineSet
117 112 m 0
 117 169 146 181 165 181 c 0
 189 181 205 163 205 142 c 0
 205 132 201 125 201 116 c 0
 201 97 212 67 255 67 c 0
 354 67 410 165 410 246 c 0
 410 277 400 310 356 310 c 0
 346 310 300 310 258 268 c 0
 245 256 243 248 219 248 c 0
 212 248 205 248 199 250 c 0
 187 254 178 266 178 279 c 0
 178 284 179 291 180 294 c 2
 250 572 l 2
 255 590 258 611 290 611 c 2
 515 611 l 2
 548 611 554 592 554 580 c 0
 554 568 549 535 515 535 c 2
 326 535 l 1
 285 371 l 1
 314 381 334 386 361 386 c 0
 443 386 494 331 494 248 c 0
 494 108 388 -8 251 -8 c 0
 160 -8 117 54 117 112 c 0
EndSplineSet
Substitution2: "LGC old numerals subtable" fiveoldstyle
EndChar

StartChar: six
Encoding: 54 54 102
Width: 525
Flags: HW
TeX: 610 0
ItalicCorrection: 173
HStem: -8 75<230.355 338.294> 323 75<287.045 404.946> 544 75<380.572 470.426>
VStem: 131 84<82.0473 244.637> 419 85<164.552 309.281> 471 84<483.284 543.556>
LayerCount: 2
Fore
SplineSet
131 160 m 0
 131 213 151 319 180 391 c 0
 237 533 346 619 457 619 c 0
 513 619 555 591 555 536 c 0
 555 487 526 475 507 475 c 0
 486 475 469 490 469 513 c 0
 469 521 471 526 471 531 c 0xf4
 471 536 467 544 450 544 c 0
 372 544 292 461 256 360 c 1
 291 383 326 398 373 398 c 0
 478 398 504 312 504 260 c 0xf8
 504 148 425 -8 269 -8 c 0
 214 -8 131 18 131 160 c 0
215 151 m 0
 215 110 227 67 275 67 c 0xf8
 376 67 419 193 419 253 c 0
 419 285 406 323 355 323 c 0
 304 323 215 280 215 151 c 0
EndSplineSet
Substitution2: "LGC old numerals subtable" sixoldstyle
EndChar

StartChar: seven
Encoding: 55 55 103
Width: 525
Flags: HW
TeX: 610 0
ItalicCorrection: 173
HStem: -8 21G<303.5 335.5> 490 76<444.985 477> 537 82<299.623 407.831>
VStem: 277 86<-0.346924 106.821>
LayerCount: 2
Fore
SplineSet
135 444 m 0
 135 455 134 450 205 594 c 0
 214 612 221 619 243 619 c 2xb0
 251 619 l 2
 268 619 280 618 289 599 c 1
 310 608 346 619 378 619 c 0xb0
 446 619 443 566 477 566 c 0xd0
 495 566 527 575 553 603 c 0
 563 613 567 619 588 619 c 2
 598 619 l 2xb0
 631 619 635 599 635 590 c 0
 635 576 623 564 617 555 c 0
 488 376 406 201 363 37 c 0
 361 31 354 -8 317 -8 c 0
 290 -8 277 13 277 28 c 0
 277 57 335 267 477 490 c 1
 470 490 l 2xd0
 408 490 406 537 373 537 c 0
 344 537 266 517 222 443 c 0
 207 418 204 415 179 415 c 2
 171 415 l 2
 143 415 135 432 135 444 c 0
EndSplineSet
Substitution2: "LGC old numerals subtable" sevenoldstyle
EndChar

StartChar: eight
Encoding: 56 56 104
Width: 525
Flags: HW
TeX: 610 0
ItalicCorrection: 173
HStem: -8 75<221.665 346.335> 292 76<297.131 390.165> 544 75<332.064 452.084>
VStem: 115 86<86.9641 218.585> 200 84<382.197 494.428> 411 85<138.687 272.189> 466 87<417.392 528.786>
LayerCount: 2
Fore
SplineSet
115 123 m 0xf4
 115 170 135 274 243 321 c 0
 250 324 257 327 264 330 c 1
 235 342 200 367 200 422 c 0
 200 498 272 619 416 619 c 0
 498 619 553 578 553 501 c 0xea
 553 450 530 369 423 330 c 1
 466 313 496 277 496 223 c 0
 496 135 420 -8 258 -8 c 0
 169 -8 115 41 115 123 c 0xf4
201 143 m 0
 201 98 228 67 278 67 c 0
 363 67 411 151 411 216 c 0xf4
 411 261 384 292 334 292 c 0
 249 292 201 208 201 143 c 0
284 430 m 0
 284 380 324 368 353 368 c 0
 425 368 466 429 466 481 c 0
 466 531 426 544 397 544 c 0xea
 326 544 284 482 284 430 c 0
EndSplineSet
Substitution2: "LGC old numerals subtable" eightoldstyle
EndChar

StartChar: nine
Encoding: 57 57 105
Width: 525
Flags: HW
TeX: 610 0
ItalicCorrection: 173
HStem: -8 75<207.046 302.615> 212 76<273.067 389.901> 544 75<339.111 447.157>
VStem: 121 86<68.0541 127.791> 172 85<301.542 449.332> 462 84<367.193 530.48>
LayerCount: 2
Fore
SplineSet
121 76 m 0
 121 124 150 136 169 136 c 0
 190 136 207 121 207 98 c 0xf4
 207 93 206 88 206 83 c 0
 206 74 210 67 234 67 c 0
 309 67 385 148 421 252 c 1
 394 233 352 212 302 212 c 0
 198 212 172 299 172 350 c 0xec
 172 379 183 448 210 496 c 0
 227 526 290 619 411 619 c 0
 465 619 546 592 546 455 c 0
 546 372 506 141 367 40 c 0
 327 11 279 -8 230 -8 c 0
 170 -8 121 18 121 76 c 0
257 358 m 0
 257 331 267 288 320 288 c 0
 377 288 462 335 462 461 c 0xec
 462 522 439 544 404 544 c 0
 311 544 257 432 257 358 c 0
EndSplineSet
Substitution2: "LGC old numerals subtable" nineoldstyle
EndChar

StartChar: less
Encoding: 60 60 108
Width: 525
Flags: HW
TeX: 569 -41
ItalicCorrection: 173
DStem2: 261 299 186 269 0.696258 -0.717792<0 290.925> 194 345 261 299 0.827076 0.56209<29.5579 401.091>
LayerCount: 2
Fore
SplineSet
165 305 m 0
 165 329 186 340 194 345 c 2
 503 555 l 2
 509 559 518 565 530 565 c 0
 549 565 567 551 567 528 c 0
 567 504 548 495 533 484 c 2
 261 299 l 1
 279 282 297 264 436 120 c 0
 446 110 456 100 456 82 c 0
 456 63 441 46 419 46 c 0
 399 46 388 61 380 69 c 2
 186 269 l 2
 177 278 165 288 165 305 c 0
EndSplineSet
EndChar

StartChar: equal
Encoding: 61 61 109
Width: 525
Flags: HW
TeX: 424 -186
ItalicCorrection: 173
HStem: 190 75<134.564 504.377> 346 75<173.586 543.361>
LayerCount: 2
Fore
SplineSet
131 227 m 0
 131 246 144 261 162 264 c 0
 169 265 175 265 182 265 c 2
 464 265 l 2
 490 265 508 250 508 227 c 0
 508 218 504 190 461 190 c 2
 176 190 l 2
 135 190 131 217 131 227 c 0
170 383 m 0
 170 394 175 421 217 421 c 2
 501 421 l 2
 543 421 547 393 547 383 c 0
 547 373 542 346 503 346 c 2
 213 346 l 2
 175 346 170 373 170 383 c 0
EndSplineSet
EndChar

StartChar: greater
Encoding: 62 62 110
Width: 525
Flags: HW
TeX: 569 -41
ItalicCorrection: 173
DStem2: 143 127 174 56 0.827076 0.56209<-41.7943 328.951> 297 542 240 492 0.696202 -0.717846<-43.0064 247.256>
LayerCount: 2
Fore
SplineSet
109 83 m 0
 109 107 132 119 143 127 c 2
 366 278 l 2
 382 289 399 300 415 312 c 1
 240 492 l 2
 231 501 220 513 220 528 c 0
 220 554 243 565 258 565 c 0
 278 565 289 550 297 542 c 2
 490 343 l 2
 499 333 511 324 511 306 c 0
 511 282 491 271 483 266 c 2
 174 56 l 2
 166 51 158 46 147 46 c 0
 125 46 109 64 109 83 c 0
EndSplineSet
EndChar

StartChar: question
Encoding: 63 63 111
Width: 525
Flags: HW
TeX: 610 0
ItalicCorrection: 173
HStem: 0 120<235.961 318.168> 544 75<330.187 449.076>
VStem: 212 79<448.85 506.825> 216 121<18.9844 99.8832> 453 79<454.818 538.737>
LayerCount: 2
Fore
SplineSet
212 483 m 0xe8
 212 536 289 619 408 619 c 0
 478 619 532 583 532 509 c 0
 532 450 499 404 462 375 c 0
 451 367 440 360 348 305 c 1
 342 293 l 1
 337 278 l 1
 385 295 355 325 406 325 c 2
 411 325 l 2
 427 325 450 323 450 295 c 0
 450 257 395 200 321 200 c 0
 283 200 258 228 258 269 c 0
 258 303 273 343 300 367 c 0
 346 408 453 433 453 506 c 0
 453 536 429 544 404 544 c 0
 309 544 291 470 291 470 c 1
 285 458 270 444 250 444 c 0
 230 444 212 460 212 483 c 0xe8
216 53 m 0
 216 92 253 120 284 120 c 0
 312 120 337 99 337 67 c 0
 337 30 304 0 270 0 c 0xd8
 239 0 216 23 216 53 c 0
EndSplineSet
EndChar

StartChar: at
Encoding: 64 64 112
Width: 525
Flags: HW
TeX: 610 0
ItalicCorrection: 173
HStem: -4 75<247.306 374.498> 105 76<330.293 399.188> 430 76<389.564 459.399> 539 76<365.241 473.605>
VStem: 138 69<113.006 321.701> 256 69<183.597 336.073> 464 88<334.326 508.535>
LayerCount: 2
Fore
SplineSet
138 194 m 0
 138 358 249 615 443 615 c 0
 484 615 552 596 552 481 c 0
 552 407 521 294 511 262 c 0
 479 164 415 105 352 105 c 0
 314 105 256 130 256 229 c 0
 256 314 314 506 438 506 c 0
 455 506 469 501 481 495 c 1
 475 532 457 539 438 539 c 0
 297 539 207 332 207 201 c 0
 207 93 268 71 309 71 c 0
 364 71 394 111 410 116 c 0
 416 118 421 117 427 117 c 2
 431 117 l 2
 464 117 467 96 467 88 c 0
 467 61 391 -4 304 -4 c 0
 233 -4 138 41 138 194 c 0
325 235 m 0
 325 196 339 181 357 181 c 0
 418 181 464 305 464 376 c 0
 464 415 450 430 432 430 c 0
 371 430 325 305 325 235 c 0
EndSplineSet
EndChar

StartChar: A
Encoding: 65 65 113
Width: 525
Flags: HW
TeX: 610 0
ItalicCorrection: 173
HStem: -0 75<77.0349 134 220 253.849 289.697 342 427 466.228> 150 75<282 348> 599 20G<387 447>
VStem: 73 185<3.37881 72.3308> 285 186<4.49066 70.6484>
DStem2: 134 75 220 75 0.391455 0.920197<33.6651 114.815 195.965 439.243> 342 75 427 75 0.086343 0.996265<7.33916 75.238 150.562 400.688>
AnchorPoint: "ogonek" 396 0 basechar 0
AnchorPoint: "below" 262 0 basechar 0
AnchorPoint: "above" 420 619 basechar 0
LayerCount: 2
Fore
SplineSet
73 31 m 0
 73 72 101 76 112 76 c 0
 115 76 117 75 117 75 c 1
 134 75 l 1
 345 571 l 2
 359 604 368 619 406 619 c 2
 434 619 l 2
 460 619 466 605 466 587 c 0
 466 584 465 582 465 579 c 2
 431 124 l 2
 430 108 429 91 427 75 c 1
 429 75 l 2
 442 75 471 75 471 45 c 0
 471 31 466 0 428 -0 c 2
 322 -0 l 2
 292 0 285 19 285 31 c 0
 285 45 290 75 327 75 c 2
 342 75 l 1
 348 150 l 1
 251 150 l 1
 220 75 l 1
 255 75 258 54 258 45 c 0
 258 0 226 0 217 -0 c 2
 140 -0 l 2
 135 0 128 -1 120 -1 c 0
 99 -1 73 4 73 31 c 0
282 225 m 1
 355 225 l 1
 356 241 370 417 397 541 c 1
 369 443 338 364 282 225 c 1
EndSplineSet
EndChar

StartChar: B
Encoding: 66 66 114
Width: 525
Flags: HW
TeX: 610 0
ItalicCorrection: 173
HStem: -0 75<66.8471 130 215 361.715> 280 75<285 404.512> 535 76<201.25 244 330 458.347>
VStem: 413 83<133.124 273.329> 464 86<412.62 530.441>
DStem2: 111.245 -0 196.245 -0 0.242599 0.970127<97.9304 309.179 386.548 551.224>
AnchorPoint: "below" 215 0 basechar 0
AnchorPoint: "above" 369 619 basechar 0
LayerCount: 2
Fore
SplineSet
62 31 m 0
 62 45 67 75 106 75 c 2
 130 75 l 1
 244 535 l 1
 232 535 l 1
 200 536 196 560 196 566 c 0
 196 570 197 611 235 611 c 2
 442 611 l 2
 491 611 550 589 550 505 c 0xe8
 550 458 529 358 428 320 c 1
 481 305 496 261 496 221 c 0
 496 147 441 0 303 -0 c 2
 100 -0 l 2
 67 0 62 23 62 31 c 0
215 75 m 1
 306 75 l 2
 389 75 413 176 413 220 c 0xf0
 413 272 387 280 362 280 c 2
 266 280 l 1
 215 75 l 1
285 355 m 1
 359 355 l 2
 434 355 464 444 464 487 c 0xe8
 464 524 445 535 418 535 c 2
 330 535 l 1
 285 355 l 1
EndSplineSet
EndChar

StartChar: C
Encoding: 67 67 115
Width: 525
Flags: HW
TeX: 610 0
ItalicCorrection: 173
HStem: -8 75<249.671 353.688> 544 75<365.953 466.989>
VStem: 134 85<100.61 317.967> 403 87<118.562 192.789>
AnchorPoint: "below" 285 0 basechar 0
AnchorPoint: "above" 426 619 basechar 0
LayerCount: 2
Fore
SplineSet
134 181 m 0
 134 340 237 619 426 619 c 0
 466 619 490 606 516 585 c 1
 542 616 549 619 564 619 c 0
 590 619 596 600 596 590 c 0
 596 583 597 588 559 436 c 0
 551 407 536 407 520 407 c 2
 512 407 l 2
 496 407 475 409 475 440 c 0
 475 451 477 464 477 479 c 0
 477 504 468 544 432 544 c 0
 304 544 219 315 219 188 c 0
 219 88 268 67 299 67 c 0
 346 67 387 115 403 159 c 0
 411 182 412 196 446 196 c 0
 466 196 490 193 490 166 c 0
 490 118 408 -8 283 -8 c 0
 224 -8 134 29 134 181 c 0
EndSplineSet
EndChar

StartChar: D
Encoding: 68 68 116
Width: 525
Flags: HW
TeX: 610 0
ItalicCorrection: 173
HStem: -0 75<66.1611 103 103 124 210 323.247> 535 76<200.495 239 325 427.251>
VStem: 458 87<294.281 504.32>
DStem2: 105.245 -0 191.245 -0 0.242599 0.970127<98.173 551.467>
AnchorPoint: "below" 216 0 basechar 0
AnchorPoint: "above" 371 619 basechar 0
LayerCount: 2
Fore
SplineSet
62 30 m 0
 62 72 91 76 101 76 c 0
 103 76 103 75 103 75 c 1
 124 75 l 1
 239 535 l 1
 235 535 l 2
 222 535 195 537 195 566 c 0
 195 577 199 611 238 611 c 2
 418 611 l 2
 519 611 545 518 545 440 c 0
 545 293 453 0 265 -0 c 2
 100 -0 l 2
 65 0 62 21 62 30 c 0
210 75 m 1
 262 75 l 2
 400 75 458 327 458 416 c 0
 458 474 442 535 377 535 c 2
 325 535 l 1
 210 75 l 1
EndSplineSet
EndChar

StartChar: E
Encoding: 69 69 117
Width: 525
Flags: HW
TeX: 610 0
ItalicCorrection: 173
HStem: 0 75<67.8615 132 218 403.364> 279 75<287 347> 441 170<502.328 559.572> 535 76<201.448 247 332 495>
VStem: 342 85<224.507 276.772> 366 91<355.399 406.201> 480 110<488.707 533.325>
DStem2: 113.245 0 199.245 0 0.242599 0.970127<98.173 308.209 385.578 551.467>
AnchorPoint: "ogonek" 259 0 basechar 0
AnchorPoint: "below" 259 0 basechar 0
AnchorPoint: "above" 414 619 basechar 0
LayerCount: 2
Fore
SplineSet
63 31 m 0
 63 42 68 69 91 74 c 0
 96 75 102 75 107 75 c 2
 132 75 l 1
 247 535 l 1
 234 535 l 2
 208 535 197 547 197 566 c 0
 197 578 201 611 234 611 c 2xda
 553 611 l 2
 586 611 590 589 590 580 c 0
 590 568 562 463 560 459 c 0
 551 441 534 441 523 441 c 0xea
 516 441 509 440 502 442 c 0
 485 447 480 461 480 470 c 0
 480 480 486 499 495 535 c 1
 332 535 l 1
 287 354 l 1
 366 354 l 1
 366 355 l 1
 377 404 382 411 413 411 c 0
 422 411 432 411 439 407 c 0
 448 402 457 393 457 380 c 0xd6
 457 374 458 379 427 255 c 0
 419 223 403 222 385 222 c 2
 380 222 l 2
 347 222 342 241 342 253 c 0
 342 262 345 271 347 279 c 1
 268 279 l 1
 218 75 l 1
 398 75 l 1
 423 174 419 185 460 185 c 2xda
 462 185 l 2
 473 185 502 184 502 157 c 0
 502 141 493 111 475 41 c 0
 468 14 465 0 434 0 c 2
 100 0 l 2
 66 0 63 23 63 31 c 0
EndSplineSet
EndChar

StartChar: F
Encoding: 70 70 118
Width: 525
Flags: HW
TeX: 610 0
ItalicCorrection: 173
HStem: -0 75<68.1133 136 221 285.7> 268 75<288 353> 535 76<202.448 250 336 503>
VStem: 488 110<488.707 533.325>
DStem2: 117.245 -0 202.245 -0 0.242599 0.970127<97.9304 296.81 374.178 551.224>
AnchorPoint: "below" 254 0 basechar 0
AnchorPoint: "above" 409 619 basechar 0
LayerCount: 2
Fore
SplineSet
64 31 m 0
 64 50 71 75 107 75 c 2
 136 75 l 1
 250 535 l 1
 235 535 l 2
 209 535 198 547 198 566 c 0
 198 582 204 611 235 611 c 2
 560 611 l 2
 593 611 598 590 598 580 c 0
 598 568 570 463 568 459 c 0
 559 441 542 441 531 441 c 0
 524 441 518 440 511 442 c 0
 494 447 488 461 488 470 c 0
 488 480 494 499 503 535 c 1
 336 535 l 1
 288 343 l 1
 372 343 l 1
 382 384 381 400 419 400 c 2
 425 400 l 2
 439 400 462 399 462 369 c 0
 462 355 456 338 453 325 c 0
 427 219 430 211 391 211 c 2
 388 211 l 2
 375 211 348 213 348 243 c 0
 348 253 352 263 353 268 c 1
 269 268 l 1
 221 75 l 1
 251 75 l 2
 284 75 290 56 290 44 c 0
 290 3 260 0 250 -0 c 2
 102 -0 l 2
 68 0 64 21 64 31 c 0
EndSplineSet
EndChar

StartChar: G
Encoding: 71 71 119
Width: 525
Flags: HW
TeX: 610 0
ItalicCorrection: 173
HStem: -8 75<237.35 325.463> -1 21G<375 399> 192 76<325.725 381 463.171 513.484> 543 76<356.606 443.301>
VStem: 130 84<88.9653 312.116> 321 197<196.219 263.849>
AnchorPoint: "below" 267 0 basechar 0
AnchorPoint: "above" 406 619 basechar 0
LayerCount: 2
Fore
SplineSet
130 174 m 0
 130 262 172 468 285 567 c 0
 318 596 362 619 407 619 c 0
 436 619 465 610 488 588 c 1
 489 588 l 1
 510 612 517 619 535 619 c 0
 561 619 567 600 567 590 c 0
 567 583 567 589 530 439 c 0
 522 408 509 407 489 407 c 2
 484 407 l 2
 467 407 446 409 446 438 c 0
 446 450 449 464 449 482 c 0
 449 533 431 543 413 543 c 0
 387 543 335 524 285 438 c 0
 236 353 214 229 214 177 c 0
 214 130 227 67 278 67 c 0
 340 67 373 166 381 192 c 1xbc
 358 192 l 2
 332 192 321 206 321 225 c 0
 321 235 325 268 362 268 c 2
 481 268 l 2
 490 268 518 268 518 237 c 0
 518 217 510 192 476 192 c 2
 468 192 l 1
 465 176 461 161 430 37 c 1
 422 0 409 -1 389 -1 c 2
 382 -1 l 2x7c
 368 -1 357 -1 346 16 c 1
 324 3 298 -8 265 -8 c 0
 211 -8 130 28 130 174 c 0
EndSplineSet
EndChar

StartChar: H
Encoding: 72 72 120
Width: 525
Flags: HW
TeX: 610 0
ItalicCorrection: 173
HStem: -0 75<67.7711 127 213 254.358 288.771 349 435 475.765> 280 75<283 400> 535 76<201.238 242 328 388.61 423.238 464 549 609.547>
VStem: 63 196<3.61539 72.0499> 197 196<539.193 607.31> 284 196<3.61539 72.0499> 419 195<539.078 607.562>
DStem2: 108.245 -0 194.245 -0 0.242599 0.970127<98.173 309.422 386.79 551.467> 330.245 -0 416.245 -0 0.242599 0.970127<98.173 288.558 365.927 551.467>
AnchorPoint: "below" 262 0 basechar 0
AnchorPoint: "above" 417 619 basechar 0
LayerCount: 2
Fore
SplineSet
63 31 m 0xf4
 66 75 91 75 104 75 c 0
 112 75 119 75 127 75 c 1
 242 535 l 1
 235 535 l 2
 214 535 197 542 197 569 c 0
 197 580 201 611 237 611 c 2
 356 611 l 2
 389 611 393 591 393 580 c 0
 393 539 363 535 353 535 c 2
 328 535 l 1
 283 355 l 1
 419 355 l 1
 464 535 l 1
 457 535 l 2
 436 535 419 542 419 569 c 0
 419 580 423 611 459 611 c 2
 577 611 l 2
 611 611 614 590 614 580 c 0xea
 614 559 606 535 572 535 c 2
 549 535 l 1
 435 75 l 1
 442 75 l 2
 472 75 480 60 480 43 c 0
 480 33 477 0 441 -0 c 2
 322 -0 l 2
 290 0 284 19 284 31 c 0
 287 75 312 75 325 75 c 0xe4
 333 75 341 75 349 75 c 1
 400 280 l 1
 264 280 l 1
 213 75 l 1
 220 75 l 2
 250 75 259 60 259 43 c 0
 259 33 255 0 219 -0 c 2
 100 -0 l 2
 68 0 63 19 63 31 c 0xf4
EndSplineSet
EndChar

StartChar: I
Encoding: 73 73 121
Width: 525
Flags: HW
TeX: 610 0
ItalicCorrection: 173
HStem: -0 75<107.453 237 323 434.287> 535 76<240.705 352 438 568.117>
DStem2: 218.245 -0 304.245 -0 0.242599 0.970127<98.173 551.467>
AnchorPoint: "ogonek" 261 0 basechar 0
AnchorPoint: "below" 261 0 basechar 0
AnchorPoint: "above" 416 619 basechar 0
LayerCount: 2
Fore
SplineSet
103 31 m 0
 103 46 108 75 144 75 c 2
 237 75 l 1
 352 535 l 1
 274 535 l 2
 242 535 236 556 236 567 c 0
 239 609 262 611 277 611 c 2
 535 611 l 2
 569 611 573 589 573 580 c 0
 573 566 568 535 532 535 c 2
 438 535 l 1
 323 75 l 1
 402 75 l 2
 434 75 439 55 439 44 c 0
 436 2 413 0 398 -0 c 2
 140 -0 l 2
 106 0 103 22 103 31 c 0
EndSplineSet
EndChar

StartChar: J
Encoding: 74 74 122
Width: 525
Flags: HW
TeX: 610 0
ItalicCorrection: 173
HStem: -8 75<202.472 304.041> 535 76<344.462 434 514.375 584.522>
VStem: 116 85<70.5101 135.208>
DStem2: 298.488 -8 383.74 -8 0.242599 0.970127<89.3834 559.654>
AnchorPoint: "below" 269 0 basechar 0
AnchorPoint: "above" 498 619 basechar 0
LayerCount: 2
Fore
SplineSet
116 86 m 0
 116 131 144 143 163 143 c 0
 185 143 202 127 202 105 c 0
 202 100 201 96 201 91 c 0
 201 75 223 67 247 67 c 0
 326 67 337 148 340 158 c 2
 434 535 l 1
 379 535 l 2
 364 535 340 537 340 568 c 0
 340 582 345 611 383 611 c 2
 549 611 l 2
 570 611 589 604 589 580 c 0
 589 556 579 535 546 535 c 2
 519 535 l 1
 516 520 513 506 509 492 c 2
 418 129 l 1
 394 28 313 -8 243 -8 c 0
 169 -8 116 29 116 86 c 0
EndSplineSet
EndChar

StartChar: K
Encoding: 75 75 123
Width: 525
Flags: HW
TeX: 610 0
ItalicCorrection: 173
HStem: -0 75<66.023 124 194 232.953 317.776 353 427 463.915> 535 76<200.058 239 309 367.111 528 589.139>
VStem: 62 175<2.90399 71.0781> 196 175<538.342 607.623> 313 155<3.03492 71.2776> 427 167<539.641 606.844>
DStem2: 105.245 -0 175.245 -0 0.242599 0.970127<94.2914 217.257 347.984 551.467> 256 321 309 289 0.667195 0.744883<0 11.5251 102.209 288.996> 369 357 309 289 0.201457 -0.979497<54.5184 272.995>
AnchorPoint: "below" 255 0 basechar 0
AnchorPoint: "above" 410 619 basechar 0
LayerCount: 2
Fore
SplineSet
62 31 m 0xe8
 62 52 70 75 104 75 c 2
 124 75 l 1
 239 535 l 1
 220 535 196 537 196 567 c 0
 196 585 202 611 236 611 c 2
 335 611 l 2
 361 611 371 598 371 579 c 0
 371 557 363 535 330 535 c 2
 309 535 l 1
 256 321 l 1
 448 537 l 1
 434 544 427 552 427 566 c 0xd4
 427 580 432 611 468 611 c 2xc8
 557 611 l 2
 591 611 594 588 594 580 c 0
 594 563 588 535 550 535 c 2
 528 535 l 1
 369 357 l 1
 427 75 l 1xc4
 447 75 468 72 468 46 c 0
 468 41 467 35 466 29 c 0
 460 1 438 0 429 -0 c 2
 351 -0 l 2
 322 0 313 15 313 31 c 0
 313 41 317 75 353 75 c 1
 309 289 l 1
 236 209 l 1
 225 194 l 1
 213 156 204 114 194 75 c 1
 213 75 237 73 237 44 c 0xe8
 237 25 230 0 199 -0 c 2
 98 -0 l 2
 64 0 62 23 62 31 c 0xe8
EndSplineSet
EndChar

StartChar: L
Encoding: 76 76 124
Width: 525
Flags: HW
TeX: 610 0
ItalicCorrection: 173
HStem: -0 75<69.313 140 226 391.365> 535 76<204.219 255 340 428.256>
VStem: 200 232<538.612 607.519>
DStem2: 121.245 -0 207.245 -0 0.242599 0.970127<98.173 551.467>
AnchorPoint: "below" 255 0 basechar 0
AnchorPoint: "above" 409 619 basechar 0
LayerCount: 2
Fore
SplineSet
65 31 m 0
 65 72 95 76 106 76 c 0
 109 76 110 75 110 75 c 1
 140 75 l 1
 255 535 l 1
 238 535 l 2
 211 535 200 547 200 566 c 0
 200 588 208 611 240 611 c 2
 393 611 l 2
 425 611 432 592 432 579 c 0
 432 536 403 535 385 535 c 2
 340 535 l 1
 226 75 l 1
 387 75 l 1
 412 176 408 185 448 185 c 1
 448 185 465 186 473 183 c 0
 478 181 491 171 491 155 c 0
 491 144 487 132 464 41 c 0
 457 14 454 1 424 -0 c 1
 102 -0 l 2
 68 0 65 23 65 31 c 0
EndSplineSet
EndChar

StartChar: M
Encoding: 77 77 125
Width: 525
Flags: HW
TeX: 610 0
ItalicCorrection: 173
HStem: -0 75<63.697 114 184 215.142 327.218 377 447 478.465> 535 76<197.725 229 562 611.88>
VStem: 59 160<3.31948 70.6484> 193 157<536.855 606.849> 323 160<3.83799 71.3741>
DStem2: 95.2448 -0 165.245 -0 0.242599 0.970127<94.2914 549.773> 358.245 -0 428.245 -0 0.242599 0.970127<94.2914 531.821>
AnchorPoint: "below" 261 0 basechar 0
AnchorPoint: "above" 416 619 basechar 0
LayerCount: 2
Fore
SplineSet
59 31 m 0xe8
 59 45 64 75 101 75 c 2
 114 75 l 1
 229 535 l 1
 228 535 l 2
 203 535 193 551 193 568 c 0
 193 578 197 611 234 611 c 2
 315 611 l 2
 333 611 350 604 350 576 c 2xd0
 350 526 l 1xd0
 346 327 338 326 331 277 c 1
 346 336 385 420 452 558 c 0
 465 583 475 611 514 611 c 2
 579 611 l 2
 611 611 617 591 617 580 c 0
 614 536 587 535 575 535 c 2
 562 535 l 1
 447 75 l 1
 473 75 483 60 483 43 c 0
 483 30 478 0 442 -0 c 2
 361 -0 l 2
 330 0 323 16 323 33 c 0
 323 43 326 75 364 75 c 2
 377 75 l 1
 487 516 l 1
 471 462 423 359 373 258 c 0
 363 238 351 204 313 204 c 0
 286 204 279 222 279 241 c 0
 279 434 294 517 294 517 c 1
 184 75 l 1
 210 75 219 60 219 43 c 0
 219 30 215 0 179 -0 c 2
 98 -0 l 2
 63 0 59 23 59 31 c 0xe8
EndSplineSet
EndChar

StartChar: N
Encoding: 78 78 126
Width: 525
Flags: HW
TeX: 610 0
ItalicCorrection: 173
HStem: 0 75<67.0129 127 197 238.763> 535 76<200.776 242 438.622 480 544.225 609.676>
VStem: 63 180<4.00078 71.2792> 306 65<83.8367 526.234> 434 180<538.938 606.999>
DStem2: 108.245 0 178.245 0 0.242599 0.970127<94.2914 551.467> 346.244 0 415.497 0 0.242599 0.970127<85.5558 551.467>
CounterMasks: 1 38
AnchorPoint: "below" 261 0 basechar 0
AnchorPoint: "above" 416 619 basechar 0
LayerCount: 2
Fore
SplineSet
63 31 m 0
 63 50 69 75 105 75 c 2
 127 75 l 1
 242 535 l 1
 218 535 196 537 196 569 c 0
 196 579 201 611 237 611 c 2
 325 611 l 2
 380 611 363 587 371 307 c 1
 371 282 l 1
 372 265 l 1
 372 201 l 1
 371 187 l 1
 371 171 l 1
 370 109 368 101 367 83 c 1
 480 535 l 1
 473 535 l 2
 452 535 434 542 434 569 c 0
 434 580 439 611 475 611 c 2
 577 611 l 2
 610 611 614 589 614 580 c 0
 614 558 606 535 572 535 c 2
 549 535 l 1
 546 519 542 504 538 489 c 2
 425 38 l 2
 419 11 412 0 383 0 c 2
 349 0 l 1
 315 1 313 22 312 39 c 0
 307 209 307 295 306 323 c 1
 306 385 l 2
 306 500 309 500 310 529 c 1
 197 75 l 1
 205 75 l 2
 226 75 243 69 243 42 c 0
 243 27 237 0 200 0 c 2
 100 0 l 2
 67 0 63 22 63 31 c 0
EndSplineSet
EndChar

StartChar: O
Encoding: 79 79 127
Width: 525
Flags: HW
TeX: 610 0
ItalicCorrection: 173
HStem: -8 75<217.383 351.211> 544 75<324.084 461.376>
VStem: 120 91<58.5 209.016> 467 89<401.913 577>
AnchorPoint: "ogonek" 261 0 basechar 0
AnchorPoint: "below" 261 0 basechar 0
AnchorPoint: "above" 418 619 basechar 0
LayerCount: 2
Fore
SplineSet
120 66 m 0
 120 162 195 425 212 475 c 0
 251 591 278 619 408 619 c 2
 429 619 l 2
 511 619 556 610 556 544 c 0
 556 451 481 183 464 133 c 0
 424 15 392 -5 282 -8 c 1
 259 -8 l 2
 216 -8 155 -10 131 23 c 0
 122 35 120 51 120 66 c 0
211 114 m 0
 211 86 226 67 281 67 c 0
 358 68 370 113 377 131 c 0
 404 197 467 443 467 498 c 0
 467 526 453 544 399 544 c 0
 328 544 313 515 302 489 c 0
 271 418 211 165 211 114 c 0
EndSplineSet
EndChar

StartChar: P
Encoding: 80 80 128
Width: 525
Flags: HW
TeX: 610 0
ItalicCorrection: 173
HStem: -0 75<67.1133 132 218 264.227> 230 75<275 405.093> 535 76<200.895 247 332 454.52>
VStem: 63 205<3.4375 70.7969> 472 87<380.419 519.219>
DStem2: 113.245 -0 199.245 -0 0.242599 0.970127<98.173 257.761 335.13 551.467>
AnchorPoint: "below" 214 0 basechar 0
AnchorPoint: "above" 369 619 basechar 0
LayerCount: 2
Fore
SplineSet
63 31 m 0
 63 50 70 75 106 75 c 2
 132 75 l 1
 247 535 l 1
 233 535 l 2
 209 535 197 547 197 566 c 0
 197 610 228 611 237 611 c 2
 437 611 l 2
 535 611 559 543 559 487 c 0
 559 397 501 230 335 230 c 2
 256 230 l 1
 218 75 l 1
 231 75 l 2
 257 75 268 62 268 44 c 0
 268 2 238 0 229 -0 c 2
 100 -0 l 2
 66 0 63 21 63 31 c 0
275 305 m 1
 335 305 l 2
 444 305 472 416 472 460 c 0
 472 531 420 536 396 536 c 0
 392 536 389 535 387 535 c 2
 332 535 l 1
 275 305 l 1
EndSplineSet
EndChar

StartChar: Q
Encoding: 81 81 129
Width: 525
Flags: HW
TeX: 610 138
ItalicCorrection: 173
HStem: -8 75<216.976 271> 544 75<325.415 458.323>
VStem: 120 90<33 208.156> 466 90<401.376 573.5>
DStem2: 363 101 271 67 0.141421 -0.989949<-53.4605 0 96.4494 215.901>
AnchorPoint: "below" 206 -222 basechar 0
AnchorPoint: "above" 418 619 basechar 0
LayerCount: 2
Fore
SplineSet
120 68 m 0
 120 153 187 392 194 418 c 0
 243 588 267 619 406 619 c 2
 431 619 l 2
 520 619 556 604 556 543 c 0
 556 463 496 239 475 168 c 0
 443 63 423 26 378 7 c 1
 390 -72 396 -100 396 -113 c 0
 396 -121 394 -123 390 -127 c 0
 383 -136 375 -139 359 -139 c 0
 348 -139 337 -139 326 -139 c 0
 310 -139 299 -136 297 -115 c 0
 285 -30 283 -19 282 -8 c 1
 272 -8 262 -8 252 -8 c 0
 173 -8 120 -2 120 68 c 0
210 113 m 0
 210 77 235 70 271 67 c 1
 266 110 261 129 261 141 c 0
 261 171 291 171 300 171 c 2
 336 171 l 2
 357 171 351 168 363 101 c 1
 399 161 466 446 466 497 c 0
 466 534 440 543 397 544 c 1
 319 544 307 502 299 482 c 0
 276 425 210 173 210 113 c 0
EndSplineSet
EndChar

StartChar: R
Encoding: 82 82 130
Width: 525
Flags: HW
TeX: 610 0
ItalicCorrection: 173
HStem: -8 21G<383 438.5> 0 75<67.7711 127 213 254.57> 268 75<280 346.656> 535 76<200.929 242 328 419.492>
VStem: 63 196<4.21257 72.0499> 325 83<67.1191 176.626> 353 84<128.166 265.007> 408 97<68.7585 119.299> 437 86<397.174 519.538>
DStem2: 106.244 -8 192.244 -8 0.242599 0.970127<106.419 305.299 382.667 559.713>
AnchorPoint: "below" 214 0 basechar 0
AnchorPoint: "above" 369 619 basechar 0
LayerCount: 2
Fore
SplineSet
63 31 m 0
 66 75 91 75 104 75 c 0
 112 75 119 75 127 75 c 1
 242 535 l 1
 236 535 l 2
 220 535 197 538 197 569 c 0
 197 579 200 611 237 611 c 2
 392 611 l 2
 497 611 523 548 523 492 c 0x7a80
 523 422 484 336 416 297 c 1
 430 273 437 253 437 226 c 0x7a
 437 182 408 113 408 76 c 2
 408 67 l 1
 428 95 411 130 463 130 c 2
 466 130 l 2
 479 130 505 129 505 99 c 0x7d
 505 72 471 -8 406 -8 c 0
 360 -8 325 23 325 80 c 0xbc
 325 127 353 194 353 225 c 0xba
 353 265 328 268 312 268 c 0
 295 268 278 268 261 268 c 1
 213 75 l 1
 220 75 l 2
 250 75 259 60 259 43 c 0
 259 29 254 0 216 0 c 2
 100 0 l 2
 68 0 63 18 63 31 c 0
280 343 m 1
 309 343 l 2
 421 343 437 441 437 469 c 0
 437 501 422 535 363 535 c 2x3880
 328 535 l 1
 280 343 l 1
EndSplineSet
EndChar

StartChar: S
Encoding: 83 83 131
Width: 525
Flags: HW
TeX: 610 0
ItalicCorrection: 173
HStem: -8 75<225.13 349.699> 544 75<325.14 431.631>
VStem: 91 116<13 154.218> 193 82<380.858 492.384> 405 81<130.088 257.418>
AnchorPoint: "below" 288 0 basechar 0
AnchorPoint: "above" 388 619 basechar 0
LayerCount: 2
Fore
SplineSet
91 21 m 0
 91 28 90 22 127 172 c 0
 135 203 149 203 167 203 c 2
 174 203 l 2
 189 203 211 201 211 174 c 0
 211 162 207 148 207 135 c 0xe8
 207 81 253 67 290 67 c 0
 370 67 405 161 405 206 c 0
 405 262 369 264 348 271 c 0
 292 288 193 300 193 416 c 0
 193 500 260 619 388 619 c 0
 448 619 476 594 488 585 c 1
 502 606 509 619 531 619 c 0
 557 619 563 600 563 590 c 0
 563 583 564 589 527 440 c 0
 520 413 510 408 487 408 c 0xd8
 485 408 482 407 480 407 c 0
 462 407 442 409 442 441 c 0
 442 452 444 463 444 473 c 0
 444 511 432 544 383 544 c 0
 314 543 275 473 275 425 c 0xd8
 275 355 357 370 421 336 c 0
 446 323 486 287 486 215 c 0
 486 128 422 -8 286 -8 c 0
 215 -8 182 18 168 28 c 1
 148 -3 141 -8 123 -8 c 0
 103 -8 91 5 91 21 c 0
EndSplineSet
EndChar

StartChar: T
Encoding: 84 84 132
Width: 525
Flags: HW
TeX: 610 0
ItalicCorrection: 173
HStem: -0 75<154.187 238 324 387.939> 441 170<209.74 262.732 518.327 575.793> 535 76<277.767 353 438 510>
VStem: 495 110<470 580>
DStem2: 219.245 -0 305.245 -0 0.242599 0.970127<98.173 551.467>
AnchorPoint: "below" 262 0 basechar 0
AnchorPoint: "above" 417 619 basechar 0
LayerCount: 2
Fore
SplineSet
150 31 m 0
 150 72 179 76 191 76 c 0
 194 76 196 75 196 75 c 1
 238 75 l 1
 353 535 l 1
 282 535 l 1xb0
 263 444 257 441 226 441 c 2
 221 441 l 2xd0
 208 441 183 441 182 471 c 0
 182 482 185 494 207 580 c 0
 212 603 222 611 245 611 c 2
 567 611 l 2
 601 611 605 590 605 580 c 0
 605 575 588 507 579 470 c 0
 572 442 553 441 541 441 c 2
 538 441 l 2xd0
 531 441 525 440 518 442 c 0
 501 447 495 461 495 470 c 0
 495 480 501 499 510 535 c 1
 438 535 l 1
 324 75 l 1
 352 75 l 2
 374 75 392 69 392 44 c 0
 392 25 385 0 350 -0 c 2
 190 -0 l 2
 156 0 150 19 150 31 c 0
EndSplineSet
EndChar

StartChar: U
Encoding: 85 85 133
Width: 525
Flags: HW
TeX: 610 0
ItalicCorrection: 173
HStem: -8 75<232.905 324.4> 535 76<183.062 229 309.699 379.484 431.062 477 562 626.992>
VStem: 138 84<76.0858 250.805> 179 205<539.359 607.466> 427 205<539.641 607.699>
DStem2: 93.4845 -8 178.736 -8 0.242599 0.970127<171.969 559.655> 340.733 -8 426.485 -8 0.242599 0.970127<121.104 559.837>
AnchorPoint: "ogonek" 270 0 basechar 0
AnchorPoint: "below" 270 0 basechar 0
AnchorPoint: "above" 416 619 basechar 0
LayerCount: 2
Fore
SplineSet
138 137 m 0xe8
 138 166 143 190 149 214 c 2
 229 535 l 1
 216 535 l 2
 190 535 179 547 179 566 c 0
 179 610 210 611 219 611 c 2
 346 611 l 2
 378 611 384 592 384 580 c 0xd8
 384 561 377 535 341 535 c 2
 315 535 l 1
 312 521 308 507 304 493 c 2
 230 197 l 2
 227 185 222 160 222 136 c 0
 222 78 251 67 271 67 c 0
 297 67 364 85 400 229 c 2
 477 535 l 1
 464 535 l 2
 438 535 427 547 427 566 c 0
 427 610 457 611 466 611 c 2
 594 611 l 2
 629 611 632 588 632 580 c 0xe8
 632 563 625 535 588 535 c 2
 562 535 l 1
 482 214 l 2
 478 196 473 179 467 162 c 0
 430 53 348 -8 268 -8 c 0
 215 -8 138 21 138 137 c 0xe8
EndSplineSet
EndChar

StartChar: V
Encoding: 86 86 134
Width: 525
Flags: HW
TeX: 610 0
ItalicCorrection: 173
HStem: -5 21G<230.5 291> 535 76<202.271 240 325 376.21 433.766 467 552 607.484>
VStem: 198 183<538.723 607.31> 240 85<284.188 535> 429 183<539.375 606.921>
AnchorPoint: "below" 260 0 basechar 0
AnchorPoint: "above" 417 619 basechar 0
LayerCount: 2
Fore
SplineSet
198 566 m 0
 198 587 206 611 239 611 c 2
 344 611 l 2
 377 611 381 591 381 580 c 0
 381 564 375 535 341 535 c 2xe8
 325 535 l 1
 314 253 281 74 281 74 c 1
 305 170 407 399 467 535 c 1
 465 535 l 2
 437 535 429 554 429 566 c 0
 429 584 436 611 471 611 c 2
 577 611 l 2
 605 611 612 591 612 581 c 0
 612 561 605 535 569 535 c 2
 552 535 l 1
 334 42 l 2
 319 8 310 -5 272 -5 c 2
 245 -5 l 1
 216 -4 211 11 211 28 c 2
 211 35 l 1
 236 478 l 2
 237 497 238 516 240 535 c 1xd8
 226 535 198 536 198 566 c 0
EndSplineSet
EndChar

StartChar: W
Encoding: 87 87 135
Width: 525
Flags: HW
TeX: 610 0
ItalicCorrection: 173
HStem: -5 21G<170 189.5 334 354.5> 535 76<283.264 346.492 463.891 506 566.326 612.454>
VStem: 193 157<538.877 607.546> 460 157<539.359 607.699>
AnchorPoint: "below" 261 0 basechar 0
AnchorPoint: "above" 416 619 basechar 0
LayerCount: 2
Fore
SplineSet
145 22 m 2
 145 32 l 1
 210 485 l 2
 212 502 215 519 217 536 c 1
 215 538 193 542 193 566 c 0
 193 581 197 611 233 611 c 2
 313 611 l 2
 343 611 350 593 350 576 c 0
 350 555 341 535 306 535 c 2
 285 535 l 1
 248 259 209 77 209 77 c 1
 226 149 290 325 306 346 c 0
 317 360 337 368 355 368 c 0
 374 368 391 361 391 335 c 0
 391 252 354 78 354 78 c 1
 375 172 490 489 506 535 c 1
 502 535 l 2
 483 535 460 536 460 567 c 0
 460 609 489 611 499 611 c 2
 579 611 l 2
 614 611 617 588 617 580 c 0
 617 561 610 535 574 535 c 1
 568 517 561 500 555 482 c 2
 394 32 l 1
 385 3 365 -5 344 -5 c 2
 341 -5 l 2
 327 -5 302 -5 302 24 c 0
 302 30 303 39 304 54 c 0
 317 231 327 242 334 289 c 1
 312 197 234 24 233 23 c 0
 218 -5 196 -5 183 -5 c 2
 178 -5 l 2
 162 -5 145 -1 145 22 c 2
EndSplineSet
EndChar

StartChar: X
Encoding: 88 88 136
Width: 525
Flags: HW
TeX: 610 0
ItalicCorrection: 173
HStem: 0 75<75.313 139 226 251.419 290.889 332 421 466.065> 535 76<219.79 265 355 385.297 512 575.425>
VStem: 71 185<4.49805 71.807> 215 175<538.126 606.726> 287 183<3.78125 71.6578> 405 175<539.359 607.202>
DStem2: 139 75 226 75 0.526355 0.850265<45.7929 213.498 438.737 547.233> 355 535 265 535 0.144131 -0.989559<0 88.2536 306.503 451.882>
AnchorPoint: "below" 261 0 basechar 0
AnchorPoint: "above" 416 619 basechar 0
LayerCount: 2
Fore
SplineSet
71 31 m 0xe8
 71 72 101 76 112 76 c 0
 115 76 116 75 116 75 c 1
 139 75 l 1
 299 328 l 1
 265 535 l 1
 252 535 l 2
 219 535 215 559 215 567 c 0
 215 577 218 611 257 611 c 2
 352 611 l 2
 383 611 390 591 390 580 c 0
 390 572 388 537 355 535 c 1
 370 448 l 1
 425 537 l 1
 414 543 405 551 405 566 c 0
 405 607 434 611 443 611 c 2
 543 611 l 2
 577 611 580 588 580 580 c 0
 580 561 573 535 536 535 c 2
 512 535 l 1
 386 338 l 1
 381 327 l 1
 382 315 l 1
 421 75 l 1xd4
 434 75 l 2
 459 75 470 62 470 44 c 0
 470 22 462 0 428 -0 c 2
 324 -0 l 2
 297 0 287 13 287 31 c 0
 287 53 295 75 328 75 c 2
 332 75 l 1
 312 219 l 1
 226 75 l 2
 227 75 256 72 256 44 c 0
 256 36 254 0 214 0 c 2
 110 0 l 2
 76 0 71 22 71 31 c 0xe8
EndSplineSet
EndChar

StartChar: Y
Encoding: 89 89 137
Width: 525
Flags: HW
TeX: 610 0
ItalicCorrection: 173
HStem: 0 75<177.771 238 322 364.743> 535 76<202.103 245 335 377.049 545 607.526>
VStem: 173 196<3.79373 72.0499> 198 183<538.228 607.203> 427 185<539.193 606.099>
AnchorPoint: "below" 260 0 basechar 0
AnchorPoint: "above" 415 619 basechar 0
LayerCount: 2
Fore
SplineSet
173 31 m 0xe8
 176 75 201 75 214 75 c 2
 238 75 l 1
 280 245 l 1
 245 535 l 1
 236 535 l 2
 209 535 198 548 198 566 c 0
 198 589 206 611 240 611 c 2
 344 611 l 2
 372 611 381 597 381 580 c 0
 381 538 354 535 340 535 c 2
 335 535 l 1
 338 504 346 443 346 382 c 0
 346 356 345 349 341 317 c 1
 358 377 427 487 456 535 c 1
 451 536 427 542 427 567 c 0
 427 574 430 611 470 611 c 2
 574 611 l 2
 608 611 612 589 612 580 c 0
 612 539 582 535 571 535 c 2xd8
 545 535 l 1
 373 259 l 1
 365 245 l 1
 322 75 l 1
 331 75 l 2
 349 75 369 70 369 41 c 0
 369 30 364 0 328 0 c 2
 210 0 l 2
 178 0 173 18 173 31 c 0xe8
EndSplineSet
EndChar

StartChar: Z
Encoding: 90 90 138
Width: 525
Flags: HW
TeX: 610 0
ItalicCorrection: 173
HStem: -0 75<203 385.872> 535 76<305.783 473>
DStem2: 107 73 203 75 0.620139 0.784492<61.1023 589.406>
AnchorPoint: "below" 264 0 basechar 0
AnchorPoint: "above" 419 619 basechar 0
LayerCount: 2
Fore
SplineSet
88 24 m 1
 90 54 104 69 107 73 c 2
 473 535 l 1
 310 535 l 1
 291 444 286 441 252 441 c 2
 248 441 l 2
 239 441 210 442 210 470 c 0
 210 484 218 508 234 574 c 0
 239 593 243 611 274 611 c 2
 558 611 l 2
 572 611 588 607 588 587 c 0
 587 557 571 540 569 538 c 2
 203 75 l 1
 381 75 l 1
 409 187 403 189 447 189 c 0
 481 189 485 167 485 160 c 0
 485 146 477 120 457 39 c 0
 452 19 449 0 417 -0 c 2
 119 -0 l 2
 111 0 88 0 88 24 c 1
EndSplineSet
EndChar

StartChar: bracketleft
Encoding: 91 91 139
Width: 525
Flags: HW
TeX: 694 83
ItalicCorrection: 173
HStem: -83 75<293 434.344> 619 75<450 609.21>
DStem2: 188.246 -83 274.245 -83 0.242599 0.970127<98.1726 744.53>
LayerCount: 2
Fore
SplineSet
198 -52 m 0
 198 -45 199 -39 201 -32 c 2
 374 659 l 2
 380 682 386 694 415 694 c 2
 577 694 l 2
 610 694 614 672 614 663 c 0
 614 659 612 629 590 621 c 0
 584 619 577 619 570 619 c 2
 450 619 l 1
 293 -8 l 1
 399 -8 l 2
 413 -8 438 -9 438 -42 c 0
 438 -60 431 -83 396 -83 c 2
 230 -83 l 1
 203 -82 198 -62 198 -52 c 0
EndSplineSet
EndChar

StartChar: backslash
Encoding: 92 92 140
Width: 525
Flags: HW
TeX: 694 83
ItalicCorrection: 173
VStem: 255 77<595.517 689.618> 346 76<-78.776 14.8889>
LayerCount: 2
Fore
SplineSet
255 656 m 0
 255 678 274 694 292 694 c 0
 329 694 331 654 332 649 c 2
 421 -31 l 2
 422 -36 422 -40 422 -45 c 0
 422 -69 402 -83 385 -83 c 0
 349 -83 347 -44 346 -38 c 2
 256 642 l 2
 255 647 255 651 255 656 c 0
EndSplineSet
EndChar

StartChar: bracketright
Encoding: 93 93 141
Width: 525
Flags: HW
TeX: 694 83
ItalicCorrection: 173
HStem: -83 75<67.5088 227> 619 75<241.335 384>
DStem2: 208.245 -83 294.248 -83 0.242599 0.970127<77.3095 723.667>
LayerCount: 2
Fore
SplineSet
63 -53 m 0
 63 -49 64 -18 86 -10 c 0
 92 -8 99 -8 106 -8 c 2
 227 -8 l 1
 384 619 l 1
 278 619 l 2
 264 619 238 620 238 653 c 0
 238 691 268 694 279 694 c 2
 446 694 l 2
 464 694 479 682 479 663 c 0
 479 656 477 650 475 643 c 2
 303 -48 l 2
 297 -72 291 -83 262 -83 c 2
 99 -83 l 2
 65 -83 63 -59 63 -53 c 0
EndSplineSet
EndChar

StartChar: asciicircum
Encoding: 94 94 142
Width: 525
Flags: HW
TeX: 610 0
ItalicCorrection: 173
VStem: 216 331<473 505.126>
LayerCount: 2
Fore
SplineSet
216 476 m 0
 216 498 235 504 247 509 c 0
 387 567 387 569 397 569 c 2
 398 569 l 2
 407 569 408 568 523 507 c 0
 532 502 547 493 547 476 c 0
 547 459 523 425 502 425 c 2
 500 425 l 2
 490 425 490 427 402 479 c 0
 391 485 388 485 378 480 c 0
 277 434 262 425 250 425 c 0
 218 425 216 473 216 476 c 0
EndSplineSet
EndChar

StartChar: underscore
Encoding: 95 95 143
Width: 525
Flags: HW
TeX: 0 113
ItalicCorrection: 173
HStem: -114 84<75.5312 411.469>
LayerCount: 2
Fore
SplineSet
70 -72 m 0
 70 -61 76 -30 119 -30 c 2
 368 -30 l 2
 411 -30 417 -61 417 -72 c 0
 417 -83 412 -114 368 -114 c 2
 119 -114 l 2
 76 -114 70 -84 70 -72 c 0
EndSplineSet
EndChar

StartChar: quoteleft
Encoding: 8216 8216 144
Width: 525
Flags: HW
TeX: 610 0
ItalicCorrection: 173
VStem: 271 166<354.087 456.392>
LayerCount: 2
Fore
SplineSet
271 416 m 0
 271 478 314 599 440 672 c 0
 447 676 455 680 463 680 c 0
 483 680 500 654 500 639 c 0
 500 619 481 611 471 605 c 0
 420 574 381 529 358 471 c 1
 363 472 368 472 373 472 c 0
 410 472 437 446 437 409 c 0
 437 361 395 323 350 323 c 0
 303 323 271 358 271 416 c 0
EndSplineSet
EndChar

StartChar: a
Encoding: 97 97 145
Width: 525
Flags: HW
TeX: 444 0
ItalicCorrection: 173
HStem: -4 75<211.878 300.196 427.235 456.694> 373 75<287.936 372.721>
VStem: 117 84<79.6176 254.321> 473 87<80.2031 174.249>
AnchorPoint: "ogonek" 359 0 basechar 0
AnchorPoint: "affricate-below" 469 -222 basechar 0
AnchorPoint: "affricate-above" 678 611 basechar 0
AnchorPoint: "below" 229 0 basechar 0
AnchorPoint: "above" 341 448 basechar 0
LayerCount: 2
Fore
SplineSet
117 143 m 0
 117 264 197 448 341 448 c 0
 391 448 418 422 424 417 c 1
 425 417 l 1
 436 428 446 435 461 435 c 0
 482 435 500 420 500 397 c 0
 500 390 498 382 496 376 c 2
 433 124 l 2
 430 111 427 101 427 92 c 0
 427 76 437 72 440 72 c 0
 456 72 469 123 473 138 c 0
 482 172 487 177 519 177 c 2
 521 177 l 2
 533 177 560 176 560 148 c 0
 560 141 534 -4 438 -4 c 0
 424 -4 382 -1 356 40 c 1
 332 20 292 -4 243 -4 c 0
 191 -4 117 29 117 143 c 0
201 142 m 0
 201 109 212 71 248 71 c 0
 330 71 384 217 384 300 c 0
 384 362 355 373 336 373 c 0
 311 373 245 348 212 221 c 0
 206 195 201 172 201 142 c 0
EndSplineSet
EndChar

StartChar: b
Encoding: 98 98 146
Width: 525
Flags: HW
TeX: 610 0
ItalicCorrection: 173
HStem: -4 75<226.898 329.717> 373 75<300.964 407.478> 535 76<123.58 215>
VStem: 119 191<537.695 606.762> 127 84<86.7028 252.571> 423 84<189.364 357.583>
AnchorPoint: "affricate-below" 469 -222 basechar 0
AnchorPoint: "affricate-above" 678 611 basechar 0
AnchorPoint: "below" 261 0 basechar 0
AnchorPoint: "above" 414 611 basechar 0
LayerCount: 2
Fore
SplineSet
119 566 m 0
 119 582 125 611 161 611 c 2
 271 611 l 2
 305 611 310 591 310 580 c 0xf4
 310 572 273 427 272 423 c 1
 302 438 331 448 367 448 c 0
 448 448 507 393 507 295 c 0
 507 171 421 -4 268 -4 c 0
 186 -4 127 53 127 149 c 0xec
 127 189 136 220 143 249 c 2
 215 535 l 1
 157 535 l 2
 122 535 119 557 119 566 c 0
211 148 m 0xec
 211 114 223 71 272 71 c 0
 364 71 423 206 423 293 c 0
 423 361 387 373 362 373 c 0
 272 373 211 243 211 148 c 0xec
EndSplineSet
EndChar

StartChar: c
Encoding: 99 99 147
Width: 525
Flags: HW
TeX: 444 0
ItalicCorrection: 173
HStem: -4 75<238.807 450.03> 373 75<312.579 425.872>
VStem: 129 84<95.5587 254.574> 427 85<295.35 369.523>
AnchorPoint: "affricate-below" 469 -222 basechar 0
AnchorPoint: "affricate-above" 678 611 basechar 0
AnchorPoint: "below" 303 0 basechar 0
AnchorPoint: "above" 392 448 basechar 0
LayerCount: 2
Fore
SplineSet
129 159 m 0
 129 291 227 448 392 448 c 0
 461 448 512 408 512 348 c 0
 512 301 484 287 465 287 c 0
 445 287 426 303 426 325 c 0
 426 332 427 338 427 344 c 0
 427 361 412 373 389 373 c 0
 272 372 213 244 213 161 c 0
 213 89 257 71 306 71 c 0
 473 71 449 107 482 107 c 0
 498 107 526 82 526 62 c 0
 526 36 486 -4 302 -4 c 0
 164 -4 129 88 129 159 c 0
EndSplineSet
EndChar

StartChar: d
Encoding: 100 100 148
Width: 525
Flags: HW
TeX: 610 0
ItalicCorrection: 173
HStem: -4 75<212.249 300.587 427.235 456.899> 373 75<287.936 372.696> 535 76<370.443 450>
VStem: 117 84<80.7639 254.321> 366 179<541.141 606.661> 480 80<93.9288 174.974>
DStem2: 315.97 -4 401.461 -4 0.242599 0.970127<437.056 555.414>
AnchorPoint: "affricate-below" 469 -222 basechar 0
AnchorPoint: "affricate-above" 678 611 basechar 0
AnchorPoint: "below" 298 0 basechar 0
AnchorPoint: "above" 389 611 basechar 0
LayerCount: 2
Fore
SplineSet
117 143 m 0
 117 264 197 448 341 448 c 0
 369 448 397 440 422 420 c 1
 450 535 l 1
 404 535 l 2
 390 535 366 537 366 568 c 0
 366 581 371 611 408 611 c 2
 507 611 l 2
 536 611 545 598 545 580 c 0xf8
 545 574 545 568 543 562 c 2
 431 117 l 2
 429 109 427 101 427 93 c 0
 427 77 438 73 440 73 c 0
 462 73 471 143 480 160 c 0
 486 171 504 178 521 178 c 0
 541 178 560 169 560 148 c 0xf4
 560 142 534 -4 438 -4 c 0
 424 -4 382 -1 356 40 c 1
 324 14 287 -4 243 -4 c 0
 193 -4 117 25 117 143 c 0
201 142 m 0
 201 109 212 71 248 71 c 0
 330 71 384 218 384 300 c 0xf0
 384 362 355 373 336 373 c 0
 311 373 245 348 212 221 c 0
 206 195 201 172 201 142 c 0
EndSplineSet
EndChar

StartChar: e
Encoding: 101 101 149
Width: 525
Flags: HW
TeX: 444 0
ItalicCorrection: 173
HStem: -4 75<239.195 450.133> 176 76<233 395.782> 373 75<317.228 432.539>
VStem: 128 84<94.5721 214.081> 438 85<286.639 366.116>
AnchorPoint: "ogonek" 306 0 basechar 0
AnchorPoint: "affricate-below" 469 -222 basechar 0
AnchorPoint: "affricate-above" 678 611 basechar 0
AnchorPoint: "below" 306 0 basechar 0
AnchorPoint: "above" 393 448 basechar 0
LayerCount: 2
Fore
SplineSet
128 155 m 0
 128 278 224 448 393 448 c 0
 466 448 523 403 523 335 c 0
 523 308 513 219 378 189 c 0
 338 180 295 177 248 176 c 1
 213 176 l 1
 212 165 212 162 212 158 c 0
 212 77 272 71 309 71 c 0
 473 71 450 107 483 107 c 0
 502 107 527 78 527 62 c 0
 527 36 484 -4 307 -4 c 2
 302 -4 l 2
 163 -4 128 86 128 155 c 0
233 252 m 1
 245 252 l 2
 304 252 438 252 438 332 c 0
 438 357 418 373 388 373 c 0
 327 373 265 328 233 252 c 1
EndSplineSet
EndChar

StartChar: f
Encoding: 102 102 150
Width: 525
Flags: HW
TeX: 610 222
ItalicCorrection: 173
HStem: -226 75<128.223 189.409> 369 75<195.789 298 396 518.111> 540 75<410.943 484.437>
VStem: 44 85<-150.911 -112.881>
DStem2: 286 297 300 -75 0.174167 0.984716<-234.628 72.9896 163.912 262.542>
AnchorPoint: "affricate-below" 469 -222 basechar 0
AnchorPoint: "affricate-above" 678 611 basechar 0
AnchorPoint: "above" 450 611 basechar 0
AnchorPoint: "below" 259 0 basechar 0
LayerCount: 2
Fore
SplineSet
44 -157 m 0
 44 -122 69 -105 90 -105 c 0
 112 -105 130 -122 129 -148 c 1
 140 -150 148 -151 154 -151 c 0
 210 -151 224 -59 286 297 c 0
 290 321 294 345 298 369 c 1
 228 369 l 2
 202 369 192 383 192 400 c 0
 192 442 222 444 230 444 c 2
 312 444 l 1
 328 535 330 615 451 615 c 0
 555 615 570 574 570 546 c 0
 570 509 544 494 524 494 c 0
 508 494 483 505 485 537 c 1
 473 539 460 540 447 540 c 2
 446 540 l 2
 406 540 414 539 396 444 c 1
 485 444 l 2
 512 444 522 430 522 413 c 0
 522 392 514 369 481 369 c 2
 383 369 l 1
 383 368 l 1
 383 368 324 18 300 -75 c 0
 263 -215 184 -226 155 -226 c 0
 107 -226 44 -213 44 -157 c 0
EndSplineSet
EndChar

StartChar: g
Encoding: 103 103 151
Width: 525
Flags: HW
TeX: 444 222
ItalicCorrection: 173
HStem: -226 75<154.75 290.25> 0 76<227.81 334.452> 373 75<301.046 408.502>
VStem: 128 84<91.0425 257.762> 423 117<252.5 408.5>
AnchorPoint: "affricate-below" 469 -222 basechar 0
AnchorPoint: "affricate-above" 678 611 basechar 0
AnchorPoint: "below" 201 -222 basechar 0
AnchorPoint: "above" 373 448 basechar 0
LayerCount: 2
Fore
SplineSet
69 -165 m 0
 69 -138 90 -117 115 -117 c 0
 131 -117 148 -125 154 -148 c 1
 170 -150 186 -151 203 -151 c 0
 280 -151 316 -115 331 -89 c 1
 331 -89 337 -90 363 25 c 1
 329 9 303 0 269 0 c 0
 186 0 128 57 128 152 c 0
 128 278 216 448 367 448 c 0
 411 448 438 434 463 414 c 1
 466 417 478 435 501 435 c 0
 521 435 540 420 540 397 c 0
 540 390 539 384 537 377 c 2
 427 -62 l 2
 418 -97 409 -134 362 -173 c 0
 353 -180 299 -226 206 -226 c 2
 194 -226 l 2
 150 -226 69 -223 69 -165 c 0
212 155 m 0
 212 88 249 76 274 76 c 0
 367 76 423 211 423 294 c 0
 423 339 407 373 362 373 c 0
 265 373 212 232 212 155 c 0
EndSplineSet
EndChar

StartChar: h
Encoding: 104 104 152
Width: 525
Flags: HW
TeX: 610 0
ItalicCorrection: 173
HStem: -4 76<413.794 449.41> 373 75<302.385 395.341> 535 76<126.598 206>
VStem: 82 80<0.238731 103.56> 122 179<537.676 607.878> 397 84<240.023 370.671>
AnchorPoint: "affricate-below" 469 -222 basechar 0
AnchorPoint: "affricate-above" 678 611 basechar 0
AnchorPoint: "below" 235 0 basechar 0
AnchorPoint: "above" 388 611 basechar 0
LayerCount: 2
Fore
SplineSet
82 35 m 0xf4
 82 44 85 52 87 61 c 2
 206 535 l 1
 160 535 l 2
 147 535 122 536 122 568 c 0
 122 583 129 611 159 611 c 2
 262 611 l 2
 275 611 301 609 301 580 c 0
 301 573 303 579 262 416 c 1
 292 435 322 448 366 448 c 0
 416 448 481 427 481 341 c 0
 481 293 457 219 416 102 c 0
 411 85 412 80 415 72 c 1
 419 72 l 2
 427 72 435 74 448 89 c 0
 491 140 458 177 520 177 c 0
 534 177 561 177 561 148 c 0
 561 121 513 -4 415 -4 c 0
 366 -4 328 32 328 83 c 0
 328 127 397 273 397 337 c 0xec
 397 359 389 373 359 373 c 0
 225 373 176 53 162 23 c 0
 159 15 146 -4 121 -4 c 0
 102 -4 82 11 82 35 c 0xf4
EndSplineSet
EndChar

StartChar: i
Encoding: 105 105 153
Width: 525
Flags: HW
TeX: 610 0
ItalicCorrection: 173
HStem: -4 76<314.135 380.063> 372 76<256.085 322.514> 528 83<370.178 439.419>
VStem: 137 81<268.451 329.502> 227 86<73.6819 146.83> 323 85<297.546 370.318> 363 83<535.066 603.617> 414 84<108.73 174.993>
AnchorPoint: "above" 409 591 basechar 0
AnchorPoint: "ogonek" 262 0 basechar 0
AnchorPoint: "affricate-below" 469 -222 basechar 0
AnchorPoint: "affricate-above" 678 611 basechar 0
AnchorPoint: "below" 261 0 basechar 0
LayerCount: 2
Fore
SplineSet
363 566 m 0xfa
 363 592 386 611 408 611 c 0xfc
 431 611 446 591 446 572 c 0
 446 546 423 528 401 528 c 0xfa
 382 528 363 543 363 566 c 0xfa
EndSplineSet
Refer: 73 305 S 1 0 0 1 -0 0 3
EndChar

StartChar: j
Encoding: 106 106 154
Width: 525
Flags: HW
TeX: 610 222
ItalicCorrection: 173
HStem: -226 75<167.616 251.442> 373 75<323.498 407.468> 528 83<473.178 542.419>
VStem: 193 85<268.813 326.465> 408 85<259.109 370.29> 466 83<535.066 603.617>
DStem2: 266.236 -226 351.486 -226 0.242599 0.970127<114.379 591.897>
AnchorPoint: "affricate-below" 469 -222 basechar 0
AnchorPoint: "affricate-above" 678 611 basechar 0
AnchorPoint: "below" 238 -222 basechar 0
LayerCount: 2
Fore
SplineSet
90 -166 m 0
 90 -138 111 -117 136 -117 c 0
 159 -117 171 -132 175 -150 c 1
 179 -150 184 -151 188 -151 c 0
 214 -151 288 -140 318 -19 c 2
 405 330 l 2
 407 336 408 342 408 349 c 0xf8
 407 359 400 373 377 373 c 0
 337 373 297 335 278 294 c 0
 266 268 257 267 240 267 c 2
 227 267 l 2
 196 267 193 286 193 295 c 0
 193 334 273 448 382 448 c 0
 444 448 493 410 493 352 c 0
 493 333 486 314 483 302 c 2
 400 -32 l 2
 391 -69 377 -124 319 -174 c 0
 283 -205 239 -226 185 -226 c 0
 106 -226 90 -190 90 -166 c 0
466 566 m 0
 466 592 489 611 511 611 c 0
 534 611 549 591 549 572 c 0
 549 546 526 528 504 528 c 0xf4
 485 528 466 543 466 566 c 0
EndSplineSet
EndChar

StartChar: k
Encoding: 107 107 155
Width: 525
Flags: HW
TeX: 610 0
ItalicCorrection: 173
HStem: -4 76<398.365 452.231> 276 172<465.559 525.757> 535 76<123.219 215>
VStem: 119 191<539.781 607.308> 313 85<73.5862 157.575> 450 92<301.58 370.377> 482 78<106.078 175.505>
DStem2: 80.2459 -4 165.238 -4 0.242599 0.970127<39.7924 208.322 304.085 555.589>
AnchorPoint: "affricate-below" 469 -222 basechar 0
AnchorPoint: "affricate-above" 678 611 basechar 0
AnchorPoint: "below" 250 0 basechar 0
AnchorPoint: "above" 402 611 basechar 0
LayerCount: 2
Fore
SplineSet
91 34 m 0
 91 41 93 48 95 55 c 2
 215 535 l 1
 154 535 l 1
 125 536 119 554 119 569 c 0
 119 582 124 611 160 611 c 2
 273 611 l 2
 305 611 310 589 310 580 c 0
 310 570 307 561 305 553 c 2
 234 271 l 1
 313 330 373 448 475 448 c 0
 529 448 542 405 542 370 c 0
 542 349 535 313 529 301 c 0
 525 294 513 276 489 276 c 0
 466 276 450 295 450 314 c 0xfc
 450 326 456 337 461 372 c 1
 409 360 394 334 301 237 c 1
 347 224 402 194 402 130 c 0
 402 117 398 105 398 95 c 0
 398 76 415 72 424 72 c 0
 460 72 476 153 482 163 c 0
 490 176 503 177 510 177 c 2xfa
 523 177 l 2
 543 177 560 171 560 148 c 0xfa
 560 126 519 -4 421 -4 c 0
 368 -4 313 29 313 90 c 0
 313 103 317 115 317 126 c 0
 317 146 301 169 210 175 c 1
 207 161 204 148 177 40 c 0
 175 32 168 -4 131 -4 c 0
 108 -4 91 14 91 34 c 0
EndSplineSet
EndChar

StartChar: l
Encoding: 108 108 156
Width: 525
Flags: HW
TeX: 610 0
ItalicCorrection: 173
HStem: -4 76<295.838 376.26> 535 76<190.273 316>
VStem: 185 226<537.5 606.949> 209 85<77.3516 188.875> 406 81<103.441 175.899>
DStem2: 180.99 -4 267.492 -4 0.242599 0.970127<125.534 555.652>
AnchorPoint: "affricate-below" 469 -222 basechar 0
AnchorPoint: "affricate-above" 678 611 basechar 0
AnchorPoint: "below" 225 0 basechar 0
AnchorPoint: "above" 378 611 basechar 0
LayerCount: 2
Fore
SplineSet
185 566 m 0
 185 574 188 611 226 611 c 2
 375 611 l 2
 400 611 411 599 411 580 c 0xe0
 411 576 411 571 410 566 c 2
 296 110 l 2
 294 101 294 100 294 97 c 0
 296 78 326 72 343 72 c 0
 386 72 399 145 406 159 c 0
 414 176 428 177 443 177 c 2xd8
 456 177 l 2
 475 177 487 164 487 148 c 0
 487 127 444 -4 338 -4 c 0
 282 -4 209 24 209 94 c 0xd8
 209 111 214 129 217 140 c 2
 316 535 l 1
 224 535 l 2
 213 535 185 536 185 566 c 0
EndSplineSet
EndChar

StartChar: m
Encoding: 109 109 157
Width: 525
Flags: HW
TeX: 444 0
ItalicCorrection: 173
HStem: 0 75<513.001 541.025> 373 75<253.381 294 295 315.18 443.53 508.279>
VStem: 237 86<2.03424 122.417> 444 102<19.8352 73.7559> 444 69<75 173.117> 509 69<246.603 372.54>
AnchorPoint: "affricate-below" 469 -222 basechar 0
AnchorPoint: "affricate-above" 678 611 basechar 0
AnchorPoint: "below" 267 0 basechar 0
AnchorPoint: "above" 380 448 basechar 0
LayerCount: 2
Fore
SplineSet
45 30 m 0
 45 44 78 168 100 231 c 0
 114 270 146 416 153 428 c 0
 159 438 168 444 182 444 c 0
 197 444 210 439 216 421 c 1
 238 435 264 448 298 448 c 0
 347 448 370 419 379 396 c 1
 405 420 437 448 490 448 c 0
 527 448 578 429 578 352 c 0xe4
 578 267 513 139 513 91 c 0xe8
 513 86 514 80 515 75 c 1
 542 74 546 53 546 47 c 0xf0
 546 35 542 0 510 0 c 0
 484 0 444 19 444 82 c 0xe8
 444 156 509 272 509 342 c 0
 509 361 503 373 485 373 c 0
 399 373 338 99 323 38 c 1
 323 38 319 -4 278 -4 c 0
 262 -4 237 9 237 29 c 0xe4
 237 74 317 290 317 342 c 0
 317 365 308 373 295 373 c 1
 294 372 l 1
 232 372 186 230 181 215 c 0
 120 37 142 14 104 1 c 0
 101 0 93 -4 86 -4 c 0
 71 -4 45 8 45 30 c 0
EndSplineSet
EndChar

StartChar: n
Encoding: 110 110 158
Width: 525
Flags: HW
TeX: 444 0
ItalicCorrection: 173
HStem: -4 21G<148 166 399 471> 267 181<96 156.201> 373 75<332.751 409.575>
VStem: 119 78<-0.173157 83.4> 342 84<71.6383 154.012> 411 84<242.023 371.708> 482 79<102.998 175.874>
AnchorPoint: "affricate-below" 469 -222 basechar 0
AnchorPoint: "affricate-above" 678 611 basechar 0
AnchorPoint: "below" 261 0 basechar 0
AnchorPoint: "above" 373 448 basechar 0
LayerCount: 2
Fore
SplineSet
74 296 m 0
 74 297 96 448 191 448 c 0
 225 448 255 430 270 400 c 1
 304 430 340 448 389 448 c 0
 453 448 495 412 495 344 c 0xb4
 495 262 426 111 426 81 c 0
 426 78 426 74 427 71 c 1
 465 80 473 145 482 162 c 0
 490 177 505 177 515 177 c 0xba
 520 177 525 177 530 177 c 0
 549 177 561 164 561 148 c 0
 561 126 519 -4 423 -4 c 0
 375 -4 342 33 342 81 c 0xba
 342 126 411 275 411 340 c 0
 411 363 401 373 384 373 c 0
 263 373 214 47 197 18 c 0
 189 4 174 -4 158 -4 c 0
 138 -4 119 11 119 34 c 0
 119 42 122 52 123 57 c 2
 189 321 l 2
 192 332 195 342 195 355 c 0
 195 366 191 369 187 373 c 1xb4
 144 311 178 267 116 267 c 2
 109 267 l 2xd4
 83 267 74 284 74 296 c 0
EndSplineSet
EndChar

StartChar: o
Encoding: 111 111 159
Width: 525
Flags: HW
TeX: 444 0
ItalicCorrection: 173
HStem: -4 75<221.631 337.726> 373 75<297.496 413.87>
VStem: 119 84<88.6752 254.916> 432 83<190.557 354.543>
AnchorPoint: "ogonek" 269 0 basechar 0
AnchorPoint: "affricate-below" 469 -222 basechar 0
AnchorPoint: "affricate-above" 678 611 basechar 0
AnchorPoint: "below" 269 0 basechar 0
AnchorPoint: "above" 367 448 basechar 0
LayerCount: 2
Fore
SplineSet
119 154 m 0
 119 281 210 448 367 448 c 0
 431 448 515 413 515 291 c 0
 515 162 424 -4 268 -4 c 0
 208 -4 119 28 119 154 c 0
203 155 m 0
 203 105 224 71 273 71 c 0
 371 71 432 201 432 290 c 0
 432 363 386 373 362 373 c 0
 266 373 203 249 203 155 c 0
EndSplineSet
EndChar

StartChar: p
Encoding: 112 112 160
Width: 525
Flags: HW
TeX: 444 222
ItalicCorrection: 173
HStem: -222 75<8.31299 89.6567 170 250.15> -4 76<260.762 346.794> 373 75<176.133 206.868 333.627 422.246>
VStem: 75 75<268.549 339.428> 433 84<194.074 363.378>
DStem2: 65.2448 -222 151.245 -222 0.242599 0.970127<98.173 274.254>
AnchorPoint: "affricate-below" 469 -222 basechar 0
AnchorPoint: "affricate-above" 678 611 basechar 0
AnchorPoint: "below" 230 -222 basechar 0
AnchorPoint: "above" 398 448 basechar 0
LayerCount: 2
Fore
SplineSet
4 -191 m 0
 4 -150 34 -146 45 -146 c 0
 48 -146 49 -147 49 -147 c 1
 84 -147 l 1
 88 -130 93 -114 97 -97 c 2
 203 330 l 2
 205 337 207 345 207 352 c 0
 207 365 200 371 193 371 c 0
 171 371 162 290 150 277 c 0
 142 268 131 267 124 267 c 2
 111 267 l 2
 81 267 75 283 75 294 c 0
 75 323 109 448 196 448 c 0
 229 448 260 433 278 404 c 1
 310 430 346 448 391 448 c 0
 451 448 517 408 517 301 c 0
 517 189 441 -4 293 -4 c 0
 258 -4 236 7 212 24 c 1
 170 -147 l 1
 216 -147 l 2
 228 -147 254 -149 254 -180 c 0
 254 -196 248 -222 211 -222 c 2
 44 -222 l 2
 9 -222 4 -201 4 -191 c 0
250 142 m 0
 250 111 259 72 297 72 c 0
 376 72 433 214 433 300 c 0
 433 362 405 373 386 373 c 0
 306 373 250 231 250 142 c 0
EndSplineSet
EndChar

StartChar: q
Encoding: 113 113 161
Width: 525
Flags: HW
TeX: 444 222
ItalicCorrection: 173
HStem: -222 75<209.238 320 405 496.687> -4 75<226.898 331.671> 373 75<300.183 407.414>
VStem: 127 84<86.5151 251.351> 423 122<249.5 427>
DStem2: 301.245 -222 386.245 -222 0.242599 0.970127<97.9304 250.48>
AnchorPoint: "affricate-below" 469 -222 basechar 0
AnchorPoint: "affricate-above" 678 611 basechar 0
AnchorPoint: "below" 205 -222 basechar 0
AnchorPoint: "above" 373 448 basechar 0
LayerCount: 2
Fore
SplineSet
127 150 m 0
 127 277 215 448 366 448 c 0
 418 448 448 427 470 406 c 1
 494 447 506 448 515 448 c 0
 530 448 545 436 545 418 c 0
 545 412 543 406 542 400 c 2
 419 -95 l 2
 415 -112 410 -130 405 -147 c 1
 462 -147 l 2
 477 -147 501 -149 501 -180 c 0
 501 -191 497 -222 460 -222 c 2
 243 -222 l 2
 227 -222 205 -218 205 -189 c 0
 205 -179 209 -147 245 -147 c 2
 320 -147 l 1
 362 21 l 1
 337 8 305 -4 268 -4 c 0
 186 -4 127 51 127 150 c 0
211 148 m 0
 211 114 223 71 272 71 c 0
 364 71 423 206 423 293 c 0
 423 361 386 373 361 373 c 0
 273 373 211 245 211 148 c 0
EndSplineSet
EndChar

StartChar: r
Encoding: 114 114 162
Width: 525
Flags: HW
TeX: 444 0
ItalicCorrection: 173
HStem: -4 21G<186.5 209.5> 372 76<189.735 234.862 376.992 487.101>
VStem: 87 87<268.92 359.832> 161 79<0.412842 104.83> 493 85<283.685 363.978>
AnchorPoint: "affricate-below" 469 -222 basechar 0
AnchorPoint: "affricate-above" 678 611 basechar 0
AnchorPoint: "below" 200 0 basechar 0
AnchorPoint: "above" 331 448 basechar 0
LayerCount: 2
Fore
SplineSet
87 296 m 0xe8
 87 309 120 448 216 448 c 0
 257 448 293 428 309 397 c 1
 341 425 378 448 436 448 c 0
 517 448 578 404 578 338 c 0
 578 288 550 276 531 276 c 0
 508 276 492 295 492 315 c 0
 492 321 493 327 493 334 c 0
 493 365 451 373 432 373 c 0
 303 373 255 56 240 23 c 0
 234 10 220 -4 199 -4 c 0
 174 -4 161 12 161 35 c 0xd8
 161 40 162 46 163 52 c 2
 234 336 l 2
 235 340 235 344 235 348 c 0
 235 361 229 372 213 372 c 0
 197 372 188 356 174 306 c 0
 164 267 155 267 132 267 c 2
 123 267 l 2xe8
 95 267 87 284 87 296 c 0xe8
EndSplineSet
EndChar

StartChar: s
Encoding: 115 115 163
Width: 525
Flags: HW
TeX: 444 0
ItalicCorrection: 173
HStem: -4 75<191.621 367.257> 373 75<286.8 421.211>
VStem: 98 85<85.2344 145.212> 182 82<289.642 353.163> 405 82<103.898 174.276> 422 86<312.561 369.504>
AnchorPoint: "affricate-below" 469 -222 basechar 0
AnchorPoint: "affricate-above" 678 611 basechar 0
AnchorPoint: "below" 273 0 basechar 0
AnchorPoint: "above" 367 448 basechar 0
LayerCount: 2
Fore
SplineSet
98 94 m 0
 98 140 126 153 145 153 c 0
 165 153 184 139 184 114 c 0
 184 108 183 104 183 100 c 0
 183 95 184 90 191 85 c 0
 204 76 233 71 276 71 c 0
 388 71 405 128 405 146 c 0xe8
 405 183 331 191 294 198 c 0
 196 214 182 276 182 304 c 0
 182 326 197 448 367 448 c 0
 429 448 508 430 508 360 c 0
 508 318 480 305 461 305 c 0xd4
 437 305 420 320 422 352 c 1
 421 362 414 373 358 373 c 2
 357 373 l 1
 286 372 264 338 264 314 c 0xd4
 264 286 312 281 356 273 c 0
 479 252 487 179 487 156 c 0
 487 101 444 -4 272 -4 c 2
 266 -4 l 2
 126 -4 98 55 98 94 c 0
EndSplineSet
EndChar

StartChar: t
Encoding: 116 116 164
Width: 525
Flags: HW
TeX: 610 0
ItalicCorrection: 173
HStem: -4 76<286.494 369.734> 369 75<160.56 267 372 477.681> 595 20G<356.5 377.5>
VStem: 202 84<74.6768 186.893> 417 85<117.897 175.181>
AnchorPoint: "affricate-below" 469 -222 basechar 0
AnchorPoint: "affricate-above" 678 611 basechar 0
AnchorPoint: "below" 278 0 basechar 0
AnchorPoint: "above" 371 615 basechar 0
LayerCount: 2
Fore
SplineSet
156 399 m 0
 157 441 185 444 194 444 c 2
 286 444 l 1
 286 445 l 1
 286 445 319 582 327 594 c 0
 335 606 349 615 364 615 c 0
 391 615 403 592 403 577 c 0
 403 564 398 550 372 444 c 1
 446 444 l 2
 472 444 482 429 482 412 c 0
 482 402 479 369 442 369 c 2
 353 369 l 1
 343 321 286 111 286 96 c 0
 287 81 300 72 317 72 c 0
 357 72 398 110 417 151 c 0
 428 177 441 177 456 177 c 2
 469 177 l 2
 495 177 502 158 502 148 c 0
 502 117 428 -4 312 -4 c 0
 250 -4 202 35 202 93 c 0
 202 113 199 97 267 369 c 1
 193 369 l 1
 163 370 156 387 156 399 c 0
EndSplineSet
EndChar

StartChar: u
Encoding: 117 117 165
Width: 525
Flags: HW
TeX: 444 0
ItalicCorrection: 173
HStem: -4 76<240.336 318.015> 428 20G<168 241>
VStem: 74 79<268.761 336.64> 152 84<75.5288 221.82> 215 84<291.356 371.904> 432 77<354.375 440.178> 481 80<93.9288 175.265>
AnchorPoint: "ogonek" 366 0 basechar 0
AnchorPoint: "affricate-below" 469 -222 basechar 0
AnchorPoint: "affricate-above" 678 611 basechar 0
AnchorPoint: "below" 262 0 basechar 0
AnchorPoint: "above" 374 448 basechar 0
LayerCount: 2
Fore
SplineSet
74 296 m 0
 74 322 120 448 216 448 c 0
 266 448 299 411 299 362 c 0xe8
 299 313 236 198 236 119 c 0
 236 92 243 72 273 72 c 0
 380 72 403 376 432 422 c 0
 440 435 454 444 470 444 c 0
 491 444 509 429 509 406 c 0xd4
 509 397 506 387 504 378 c 2
 439 118 l 2
 437 109 434 101 434 92 c 0
 434 77 443 68 451 78 c 0
 467 99 474 147 481 161 c 0
 487 173 495 177 525 177 c 0
 554 177 561 160 561 148 c 0
 561 142 536 -4 442 -4 c 0
 396 -4 374 24 365 35 c 1
 340 12 307 -4 268 -4 c 0
 218 -4 152 20 152 117 c 0xd2
 152 208 215 331 215 360 c 0
 215 364 215 368 214 373 c 1
 172 367 162 297 153 281 c 0
 145 268 133 267 123 267 c 2xe8
 109 267 l 2
 88 267 74 278 74 296 c 0
EndSplineSet
EndChar

StartChar: v
Encoding: 118 118 166
Width: 525
Flags: HW
TeX: 444 0
ItalicCorrection: 173
HStem: -4 75<270.693 368.91> 372 76<189.675 237.118>
VStem: 176 84<82.6723 226.588> 238 85<290.377 371.55> 453 85<243.549 420.316>
AnchorPoint: "affricate-below" 469 -222 basechar 0
AnchorPoint: "affricate-above" 678 611 basechar 0
AnchorPoint: "below" 321 0 basechar 0
AnchorPoint: "above" 355 448 basechar 0
LayerCount: 2
Fore
SplineSet
74 297 m 1
 76 334 132 448 229 448 c 0
 281 448 323 412 323 359 c 0xd8
 323 312 260 204 260 130 c 0
 260 85 290 71 325 71 c 0
 349 71 366 82 386 116 c 0
 422 179 453 328 453 358 c 0
 453 383 445 390 445 404 c 0
 445 426 465 448 490 448 c 0
 531 448 538 396 538 365 c 0
 538 308 502 151 445 70 c 0
 410 20 370 -4 320 -4 c 0
 257 -4 176 22 176 127 c 0xe8
 176 214 238 330 238 357 c 0
 238 369 229 372 222 372 c 0
 208 372 196 359 193 356 c 0
 146 309 172 267 121 267 c 2xd8
 110 267 l 2
 99 267 74 268 74 297 c 1
EndSplineSet
EndChar

StartChar: w
Encoding: 119 119 167
Width: 525
Flags: HW
TeX: 444 0
ItalicCorrection: 173
HStem: -4 75<169.656 253.674 364.613 438.932> 428 20G<532.5 554>
VStem: 90 70<80.5956 223.693> 148 69<269.54 368.304> 359 62<353.764 442.181> 514 76<246.7 421.71>
AnchorPoint: "affricate-below" 469 -222 basechar 0
AnchorPoint: "affricate-above" 678 611 basechar 0
AnchorPoint: "below" 311 0 basechar 0
AnchorPoint: "above" 392 448 basechar 0
LayerCount: 2
Fore
SplineSet
90 119 m 0xec
 90 214 148 295 148 344 c 0
 148 353 146 359 142 367 c 1
 131 370 107 370 106 398 c 1
 107 425 118 444 143 444 c 0
 173 444 217 420 217 352 c 0xdc
 217 278 160 207 160 128 c 0xec
 160 83 188 71 217 71 c 0
 232 71 241 77 251 88 c 0
 304 147 342 402 359 428 c 0
 369 442 385 444 388 444 c 0
 406 444 421 431 421 412 c 0
 421 385 357 177 357 125 c 0
 357 82 383 71 408 71 c 0xdc
 474 71 514 318 514 340 c 0
 514 379 500 385 500 404 c 0
 500 426 520 448 545 448 c 0
 563 448 590 436 590 375 c 0
 590 347 587 319 566 237 c 0
 535 116 501 -4 405 -4 c 0
 343 -4 316 29 306 44 c 1
 305 44 l 1
 272 -1 232 -4 214 -4 c 0
 163 -4 90 20 90 119 c 0xec
EndSplineSet
EndChar

StartChar: x
Encoding: 120 120 168
Width: 525
Flags: HW
TeX: 444 0
ItalicCorrection: 173
HStem: -4 76<169.254 235.507 341.724 438.357> 373 75<200.22 293.356 401.543 466.103>
VStem: 74 86<268.788 333.209> 84 84<74.4218 159.075> 467 85<284.81 370.513>
AnchorPoint: "affricate-below" 469 -222 basechar 0
AnchorPoint: "affricate-above" 678 611 basechar 0
AnchorPoint: "below" 262 0 basechar 0
AnchorPoint: "above" 374 448 basechar 0
LayerCount: 2
Fore
SplineSet
74 296 m 0
 74 335 141 448 258 448 c 0
 315 448 343 422 353 413 c 1
 376 432 411 448 449 448 c 0
 511 448 552 403 552 344 c 0
 552 288 523 276 503 276 c 0
 482 276 465 293 465 315 c 0
 465 320 467 328 467 341 c 0
 467 356 464 373 445 373 c 0
 390 373 381 304 374 275 c 0
 338 133 337 130 337 114 c 0
 337 87 354 71 382 71 c 0
 422 71 462 107 476 146 c 0
 486 173 490 177 519 177 c 2xe8
 520 177 l 2
 533 177 561 177 561 148 c 0
 561 109 494 -4 378 -4 c 0
 321 -4 293 22 282 31 c 1
 259 12 225 -4 187 -4 c 0
 125 -4 84 42 84 101 c 0
 84 156 113 168 132 168 c 0
 153 168 171 152 171 130 c 0
 171 122 168 109 168 99 c 0xd8
 168 84 176 72 192 72 c 0
 196 72 201 72 206 74 c 0
 243 87 250 120 253 133 c 0
 297 310 298 313 298 330 c 0
 298 363 273 373 253 373 c 0
 216 373 175 340 160 297 c 0
 149 267 141 267 119 267 c 2
 110 267 l 2
 81 267 74 284 74 296 c 0
EndSplineSet
EndChar

StartChar: y
Encoding: 121 121 169
Width: 525
Flags: HW
TeX: 444 222
ItalicCorrection: 173
HStem: -226 76<197.196 276.669> -4 75<255.999 347.595> 372 76<185.46 229.327>
VStem: 74 111<309.912 357.717> 112 85<-148.216 -77.4338> 166 84<77.6765 223.599> 230 84<292.156 371.354> 467 81<334.875 439.185>
AnchorPoint: "affricate-below" 469 -222 basechar 0
AnchorPoint: "affricate-above" 678 611 basechar 0
AnchorPoint: "below" 168 -222 basechar 0
AnchorPoint: "above" 400 448 basechar 0
LayerCount: 2
Fore
SplineSet
74 296 m 0
 74 327 126 448 224 448 c 0
 274 448 314 414 314 361 c 0xf3
 314 312 250 201 250 123 c 0xe5
 250 88 266 71 298 71 c 0
 415 71 443 365 467 417 c 0
 471 425 484 444 509 444 c 0
 530 444 548 428 548 406 c 0
 548 397 545 389 543 381 c 2
 451 12 l 2
 399 -196 261 -226 214 -226 c 0
 153 -226 112 -185 112 -131 c 0
 112 -82 140 -69 159 -69 c 0
 179 -69 198 -85 198 -108 c 0
 198 -115 197 -121 197 -128 c 0xe9
 197 -139 201 -150 222 -150 c 0
 258 -150 336 -109 366 14 c 1
 340 1 320 -4 293 -4 c 0
 239 -4 166 21 166 120 c 0xe5
 166 208 230 335 230 358 c 0
 230 367 225 372 218 372 c 0
 209 372 196 365 185 351 c 0
 147 302 171 267 118 267 c 2
 107 267 l 1
 77 268 74 291 74 296 c 0
EndSplineSet
EndChar

StartChar: z
Encoding: 122 122 170
Width: 525
Flags: HW
TeX: 444 0
ItalicCorrection: 173
HStem: -4 84<287.124 408.873> 364 84<262.899 374.323>
VStem: 162 79<289.889 342.994>
AnchorPoint: "affricate-below" 469 -222 basechar 0
AnchorPoint: "affricate-above" 678 611 basechar 0
AnchorPoint: "below" 289 0 basechar 0
AnchorPoint: "above" 401 448 basechar 0
LayerCount: 2
Fore
SplineSet
88 25 m 0
 88 35 93 42 97 49 c 0
 169 167 282 237 380 340 c 1
 356 349 328 364 306 364 c 0
 259 364 241 306 241 305 c 0
 233 288 216 288 206 288 c 2
 201 288 l 2
 187 288 162 290 162 318 c 0
 162 353 220 448 311 448 c 0
 368 448 404 406 426 406 c 0
 449 406 440 448 484 448 c 2
 494 448 l 2
 508 448 532 447 532 420 c 0
 532 410 526 401 522 394 c 0
 460 294 367 227 249 114 c 1
 290 106 323 80 358 80 c 0
 376 80 394 87 415 106 c 0
 474 162 435 196 496 196 c 0
 503 196 510 197 516 195 c 0
 524 193 538 184 538 167 c 0
 538 128 468 -4 352 -4 c 0
 291 -4 263 40 223 40 c 0
 207 40 190 33 178 22 c 0
 163 9 164 -4 135 -4 c 2
 124 -4 l 2
 92 -4 88 18 88 25 c 0
EndSplineSet
EndChar

StartChar: braceleft
Encoding: 123 123 171
Width: 525
Flags: HW
TeX: 694 83
ItalicCorrection: 173
HStem: -83 72<316.011 432.075> 270 74<156.855 259.59> 624 70<480.143 608.878>
VStem: 273 85<133.006 254.186>
LayerCount: 2
Fore
SplineSet
152 297 m 0
 152 347 191 344 198 344 c 0
 242 347 301 361 318 401 c 0
 321 409 319 401 363 575 c 0
 365 582 379 694 570 694 c 2
 576 694 l 2
 609 694 612 673 612 665 c 0
 612 652 607 632 594 624 c 0
 577 613 536 625 485 606 c 0
 453 594 449 578 443 555 c 0
 399 377 401 378 389 360 c 0
 373 334 348 315 321 302 c 1
 330 294 358 272 358 228 c 0
 358 194 307 31 312 16 c 1
 324 -11 405 -5 419 -11 c 0
 431 -16 436 -28 436 -40 c 0
 436 -54 432 -83 395 -83 c 2
 392 -83 l 2
 253 -83 226 -23 226 17 c 0
 226 51 273 202 273 225 c 0
 273 270 181 266 171 270 c 0
 163 273 152 281 152 297 c 0
EndSplineSet
EndChar

StartChar: bar
Encoding: 124 124 172
Width: 525
Flags: HW
TeX: 694 83
ItalicCorrection: 173
VStem: 210 86<-76.5231 -8.04167> 381 86<622 687.629>
LayerCount: 2
Fore
SplineSet
210 -42 m 0
 210 -35 211 -28 213 -22 c 2
 381 650 l 2
 384 660 390 694 425 694 c 0
 446 694 467 676 467 653 c 0
 467 647 465 641 464 635 c 2
 296 -36 l 2
 293 -47 287 -83 252 -83 c 0
 231 -83 210 -67 210 -42 c 0
EndSplineSet
EndChar

StartChar: braceright
Encoding: 125 125 173
Width: 525
Flags: HW
TeX: 694 83
ItalicCorrection: 173
HStem: -83 70<67.6001 196.399> 269 74<415.141 520.308> 611 83<244.422 362.987>
VStem: 318 86<356.55 484.244> 365 85<499.042 609.931>
LayerCount: 2
Fore
SplineSet
64 -53 m 0
 64 -44 69 -21 82 -13 c 0
 100 -1 192 -16 223 28 c 0
 229 37 224 29 271 208 c 0
 277 231 291 279 356 309 c 1
 356 310 l 1
 335 325 318 349 318 383 c 0xf0
 318 413 365 574 365 590 c 0
 365 600 360 605 341 611 c 0
 292 625 240 606 240 647 c 0
 240 690 267 694 280 694 c 0xe8
 282 694 284 694 286 694 c 0
 428 692 450 634 450 594 c 0xe8
 450 560 404 420 404 382 c 0
 404 379 404 377 405 375 c 0
 411 363 432 345 490 343 c 0
 520 342 525 326 525 314 c 0
 525 309 523 276 499 269 c 0
 492 267 384 269 358 210 c 0
 350 192 315 33 308 14 c 0
 285 -47 214 -83 107 -83 c 2
 101 -83 l 2
 69 -83 64 -63 64 -53 c 0
EndSplineSet
EndChar

StartChar: asciitilde
Encoding: 126 126 174
Width: 525
Flags: HW
TeX: 610 0
ItalicCorrection: 173
HStem: 470 85<417.615 476.262> 526 85<316.856 375.148>
LayerCount: 2
Fore
SplineSet
228 509 m 0
 228 522 237 530 241 535 c 0
 266 563 309 611 355 611 c 0x40
 406 611 424 555 443 555 c 0x80
 467 555 499 610 525 610 c 0
 541 610 565 593 565 572 c 0
 565 558 556 551 543 536 c 0
 518 509 480 470 438 470 c 0x80
 387 470 368 526 350 526 c 0x40
 326 526 294 470 269 470 c 0x80
 256 470 228 486 228 509 c 0
EndSplineSet
EndChar

StartChar: uni00AD
Encoding: 173 173 175
Width: 525
Flags: HW
TeX: 444 0
ItalicCorrection: 173
HStem: 185 75<247.418 387.117>
VStem: 242 150<188.546 255.677>
LayerCount: 2
Fore
SplineSet
242 215 m 0
 242 220 244 260 282 260 c 2
 354 260 l 2
 388 260 392 237 392 229 c 0
 392 223 390 185 354 185 c 2
 281 185 l 2
 246 185 242 207 242 215 c 0
EndSplineSet
EndChar

StartChar: Abreve
Encoding: 258 258 176
Width: 525
Flags: HW
TeX: 819 0
ItalicCorrection: 173
HStem: -0 75<77.0349 134 220 253.849 289.697 342 427 466.228> 150 75<282 348> 599 20<387 447> 657 78<369.59 501.753>
VStem: 73 185<3.37881 72.3308> 273 77<754.909 857.063> 285 186<4.49066 70.6484> 565 79<790.688 857.547>
DStem2: 134 75 220 75 0.391455 0.920197<33.6651 114.815 195.965 439.243> 342 75 427 75 0.086343 0.996265<7.33916 75.238 150.562 400.688>
AnchorPoint: "below" 262 0 basechar 0
AnchorPoint: "above" 476 841 basechar 0
LayerCount: 2
Fore
SplineSet
273 798 m 0
 273 851 290 861 315 861 c 0
 344 861 351 843 352 833 c 0
 353 823 350 816 350 802 c 0
 350 762 383 735 429 735 c 0
 490 735 546 778 565 824 c 0
 572 841 573 861 606 861 c 0
 639 861 644 840 644 829 c 0
 641 777 559 657 425 657 c 0xfd
 336 657 273 717 273 798 c 0
EndSplineSet
Refer: 113 65 S 1 0 0 1 0 -0 3
AlternateSubs2: "Stilistic set 01 subtable" Abreve.vn
AlternateSubs2: "Latin alternatives subtable" Abreve.vn
Substitution2: "Latin Vietnamese substitutions subtable" Abreve.vn
EndChar

StartChar: Aogonek
Encoding: 260 260 177
Width: 525
Flags: HW
TeX: 610 222
ItalicCorrection: 173
HStem: -230 72<329.81 371.059> -0 75<77.174 134 220 253.849 289.622 324> 150 75<282 348> 599 20G<387 447>
VStem: 73 185<3.37881 72.202> 260 69<-157.688 -77.0509> 285 186<2.40579 71.0696>
DStem2: 134 75 220 75 0.391455 0.920197<33.6651 114.815 195.965 439.057> 342 75 427 75 0.086343 0.996265<7.33916 75.238 150.562 400.688>
AnchorPoint: "above" 420 619 basechar 0
LayerCount: 2
Fore
SplineSet
73 31 m 0
 73 72 102 76 113 76 c 0
 115 76 117 75 117 75 c 1
 134 75 l 1
 345 571 l 2
 359 604 368 619 406 619 c 2
 434 619 l 2
 460 619 466 605 466 587 c 0
 466 584 465 582 465 579 c 2
 431 124 l 2
 430 108 429 91 427 75 c 1
 432 75 l 2
 465 75 471 56 471 44 c 0xfa
 471 -14 427 11 364 -60 c 0
 337 -91 329 -118 329 -136 c 0
 329 -146 331 -158 340 -158 c 0
 362 -158 375 -120 401 -120 c 0
 415 -120 442 -135 442 -157 c 0
 442 -183 388 -230 342 -230 c 0
 292 -230 260 -187 260 -133 c 0xfc
 260 -80 289 -36 324 -0 c 1
 322 -0 l 2
 294 0 285 15 285 31 c 0xfa
 285 45 290 75 326 75 c 2
 342 75 l 1
 348 150 l 1
 251 150 l 1
 220 75 l 1
 255 75 258 54 258 45 c 0
 258 0 226 0 217 -0 c 2
 118 -0 l 2
 104 0 73 0 73 31 c 0
282 225 m 1xf8
 355 225 l 1
 356 241 370 417 397 541 c 1
 369 443 338 363 282 225 c 1xf8
EndSplineSet
Ligature2: "Latin ligatures subtable" A uni0328
EndChar

StartChar: Ccaron
Encoding: 268 268 179
Width: 525
Flags: HW
TeX: 819 0
ItalicCorrection: 173
HStem: -8 75<249.671 353.688> 544 75<365.953 466.989> 622 21G<442 462>
VStem: 134 85<100.61 317.967> 403 87<118.562 192.789>
AnchorPoint: "below" 285 0 basechar 0
AnchorPoint: "above" 469 789 basechar 0
LayerCount: 2
Fore
SplineSet
341 778 m 0
 341 794 353 809 371 809 c 0
 382 809 392 808 462 713 c 1
 528 759 576 809 598 809 c 0
 614 809 628 796 628 778 c 0
 628 763 615 754 609 748 c 0
 467 624 471 622 453 622 c 0
 431 622 421 644 414 655 c 0
 341 768 341 765 341 778 c 0
EndSplineSet
Refer: 115 67 S 1 0 0 1 -0 -0 3
EndChar

StartChar: Dcaron
Encoding: 270 270 180
Width: 525
Flags: HW
TeX: 819 0
ItalicCorrection: 173
HStem: -0 75<66.1611 103 103 124 210 323.247> 535 76<200.495 239 325 427.251> 622 21G<393 413>
VStem: 458 87<294.281 504.32>
DStem2: 105.245 -0 191.245 -0 0.242599 0.970127<98.173 551.467>
AnchorPoint: "below" 216 0 basechar 0
AnchorPoint: "above" 416 797 basechar 0
LayerCount: 2
Fore
SplineSet
292 778 m 0
 292 794 304 809 322 809 c 0
 333 809 344 808 414 713 c 1
 480 759 527 809 549 809 c 0
 565 809 580 796 580 778 c 0
 580 763 567 754 561 748 c 0
 419 624 422 622 404 622 c 0
 382 622 373 644 366 655 c 0
 293 768 292 765 292 778 c 0
EndSplineSet
Refer: 116 68 S 1 0 0 1 -0 -0 3
EndChar

StartChar: Ecaron
Encoding: 282 282 181
Width: 525
Flags: HW
TeX: 819 0
ItalicCorrection: 173
HStem: 0 75<67.8615 132 218 403.364> 279 75<287 347> 441 170<502.328 559.572> 535 76<201.448 247 332 495> 622 21G<396 416>
VStem: 342 85<224.507 276.772> 366 91<355.399 406.201> 480 110<488.707 533.325>
DStem2: 113.245 0 199.245 0 0.242599 0.970127<98.173 308.209 385.578 551.467>
AnchorPoint: "below" 259 0 basechar 0
AnchorPoint: "above" 459 797 basechar 0
LayerCount: 2
Fore
SplineSet
295 778 m 0
 295 794 307 809 325 809 c 0
 336 809 345 808 416 713 c 1
 482 759 530 809 552 809 c 0xc9
 568 809 582 796 582 778 c 0
 582 763 570 754 564 748 c 0
 422 624 425 622 407 622 c 0
 385 622 375 644 368 655 c 0
 295 768 295 765 295 778 c 0
EndSplineSet
Refer: 117 69 S 1 0 0 1 -0 -0 3
EndChar

StartChar: Eogonek
Encoding: 280 280 182
Width: 525
Flags: HW
TeX: 610 222
ItalicCorrection: 173
HStem: -230 72<310.802 351.259> -0 75<67.6555 132 218 304> 279 75<287 347> 441 170<502.328 559.572> 535 76<201.448 247 332 495>
VStem: 240 70<-157.691 -79.1302> 342 85<224.507 276.772> 366 91<355.399 406.201> 480 110<488.707 533.325>
DStem2: 55.7287 -230 141.729 -230 0.242599 0.970127<335.255 545.291 622.66 788.549>
AnchorPoint: "above" 397 619 basechar 0
LayerCount: 2
Fore
SplineSet
63 31 m 0
 63 36 65 68 91 74 c 0
 96 75 102 75 107 75 c 2
 132 75 l 1
 247 535 l 1
 234 535 l 2
 208 535 197 547 197 566 c 0
 197 578 201 611 234 611 c 2xee80
 553 611 l 2
 586 611 590 589 590 580 c 0
 590 568 562 463 560 459 c 0
 551 441 534 441 523 441 c 0xf680
 516 441 509 440 502 442 c 0
 485 447 480 461 480 470 c 0
 480 480 486 499 495 535 c 1
 332 535 l 1
 287 354 l 1
 366 354 l 1
 366 355 l 1
 377 404 382 411 413 411 c 0
 422 411 432 411 439 407 c 0
 448 402 457 393 457 380 c 0xed80
 457 374 458 379 427 255 c 0
 419 223 403 222 385 222 c 2
 380 222 l 2
 347 222 342 241 342 253 c 0
 342 262 345 271 347 279 c 1
 268 279 l 1
 218 75 l 1
 398 75 l 1
 423 176 417 186 465 186 c 0
 498 186 502 160 502 156 c 0
 502 147 496 125 473 32 c 1
 465 -5 442 1 429 -1 c 0
 406 -5 310 -69 310 -137 c 0
 310 -153 315 -158 321 -158 c 0
 341 -158 357 -120 381 -120 c 0
 394 -120 422 -134 422 -158 c 0xee80
 422 -181 372 -230 323 -230 c 0
 273 -230 240 -187 240 -133 c 0
 240 -80 269 -36 304 -0 c 1
 98 -0 l 1
 66 1 63 23 63 31 c 0
EndSplineSet
EndChar

StartChar: Gbreve
Encoding: 286 286 183
Width: 525
Flags: HW
TeX: 819 0
ItalicCorrection: 173
HStem: -8 75<235.203 324.741> -1 21G<375 399> 192 76<325.725 381 463.171 513.484> 517 102<502.468 552.619> 544 75<360.213 484.866> 657 78<376.104 508.496>
VStem: 130 84<88.926 310.623> 280 76<754.763 857.045> 321 197<196.219 263.849> 381 87<138.973 192> 571 79<790.688 857.547>
LayerCount: 2
Fore
SplineSet
130 175 m 0
 130 308 218 619 411 619 c 0
 413 619 415 619 417 619 c 0xae60
 448 619 477 618 502 610 c 1
 512 614 521 619 534 619 c 0
 558 619 566 603 566 592 c 0
 566 576 555 538 553 533 c 0
 545 517 529 517 517 517 c 2
 514 517 l 2x3660
 454 517 508 544 426 544 c 0
 287 544 214 289 214 177 c 0
 214 128 227 67 277 67 c 0
 332 67 365 143 381 192 c 1xae60
 358 192 l 2
 332 192 321 206 321 225 c 0
 321 235 325 268 362 268 c 2
 481 268 l 2
 490 268 518 268 518 237 c 0xaea0
 518 217 510 192 476 192 c 2
 468 192 l 1
 465 176 461 161 430 37 c 1
 422 0 409 -1 389 -1 c 2
 382 -1 l 2x6660
 368 -1 357 -1 346 16 c 1
 324 3 298 -8 265 -8 c 0
 211 -8 130 28 130 175 c 0
280 798 m 0
 280 855 301 861 322 861 c 0
 351 861 358 843 359 833 c 0
 360 823 356 816 356 802 c 0
 356 762 390 735 436 735 c 0
 497 735 552 778 571 824 c 0
 578 841 579 861 612 861 c 0
 645 861 650 840 650 829 c 0
 647 777 566 657 432 657 c 0x2720
 342 657 280 717 280 798 c 0
EndSplineSet
EndChar

StartChar: Lacute
Encoding: 313 313 184
Width: 525
Flags: HW
TeX: 771 0
ItalicCorrection: 173
HStem: 0 75<69.313 140 226 391.365> 535 76<204.219 255 340 428.256> 717 84<298.369 425.665>
VStem: 200 232<538.612 607.519>
DStem2: 121.245 0 207.245 0 0.242599 0.970127<98.173 551.467>
LayerCount: 2
Fore
SplineSet
245 727 m 0
 245 753 245 768 278 776 c 0
 371 797 384 801 395 801 c 0
 418 801 433 783 433 763 c 0
 433 724 391 717 390 717 c 0
 299 696 287 692 276 692 c 0
 264 692 245 701 245 727 c 0
EndSplineSet
Refer: 124 76 S 1 0 0 1 0 0 3
EndChar

StartChar: Lcaron
Encoding: 317 317 185
Width: 525
Flags: HW
TeX: 819 0
ItalicCorrection: 173
HStem: 0 75<69.313 140 226 391.365> 535 76<203.696 255>
VStem: 349 162<612.55 698.699>
DStem2: 121.245 0 207.245 0 0.242599 0.970127<98.173 551.467>
LayerCount: 2
Fore
SplineSet
65 31 m 0
 65 72 95 76 106 76 c 0
 109 76 110 75 110 75 c 1
 140 75 l 1
 255 535 l 1
 236 535 l 2
 211 535 199 547 199 566 c 0
 199 587 208 611 241 611 c 2
 357 611 l 1
 351 622 349 633 349 643 c 0
 349 684 384 730 436 730 c 0
 481 730 511 695 511 653 c 0
 511 575 418 489 376 489 c 0
 359 489 345 506 338 525 c 1
 226 75 l 1
 387 75 l 1
 412 176 408 185 448 185 c 2
 452 185 l 2
 466 185 491 184 491 155 c 0
 491 146 488 138 486 130 c 0
 458 16 462 1 424 0 c 1
 103 0 l 2
 69 0 65 23 65 31 c 0
EndSplineSet
EndChar

StartChar: Lslash
Encoding: 321 321 186
Width: 525
Flags: HW
TeX: 610 0
ItalicCorrection: 173
HStem: -0 75<69.313 140 226 391.365> 432 20G<385.5 401.5> 535 76<204.219 255 340 428.256>
VStem: 200 232<538.612 607.519>
DStem2: 121.245 -0 207.245 -0 0.242599 0.970127<98.173 240.051 325.41 349.866 436.268 551.467>
LayerCount: 2
Fore
SplineSet
65 31 m 0
 65 72 95 76 106 76 c 0
 109 76 110 75 110 75 c 1
 140 75 l 1
 179 233 l 1
 175 232 172 232 169 232 c 0
 146 232 132 258 132 273 c 0
 132 287 143 297 156 305 c 0
 213 342 205 338 208 350 c 2
 255 535 l 1
 238 535 l 2
 211 535 200 547 200 566 c 0
 200 588 208 611 240 611 c 2
 393 611 l 2
 425 611 432 592 432 579 c 0
 432 536 403 535 385 535 c 2
 340 535 l 1
 308 403 l 1
 374 446 379 452 392 452 c 0
 411 452 428 430 428 410 c 0
 428 388 425 391 281 298 c 1
 226 75 l 1
 387 75 l 1
 412 176 408 185 448 185 c 1
 448 185 465 186 473 183 c 0
 478 181 491 171 491 155 c 0
 491 144 487 132 464 41 c 0
 457 14 454 1 424 -0 c 1
 102 -0 l 2
 68 0 65 23 65 31 c 0
EndSplineSet
EndChar

StartChar: Ncaron
Encoding: 327 327 188
Width: 525
Flags: HW
TeX: 819 0
ItalicCorrection: 173
HStem: 0 75<67.0129 127 197 238.763> 535 76<200.776 242 438.622 480 544.225 609.676> 622 21G<414 434>
VStem: 63 180<4.00078 71.2792> 306 65<83.8367 526.234> 434 180<538.938 606.999>
DStem2: 108.245 0 178.245 0 0.242599 0.970127<94.2914 551.467> 346.244 0 415.497 0 0.242599 0.970127<85.5558 551.467>
CounterMasks: 1 1c
LayerCount: 2
Fore
SplineSet
313 778 m 0
 313 794 325 809 343 809 c 0
 354 809 364 808 434 713 c 1
 500 759 548 809 570 809 c 0
 586 809 601 796 601 778 c 0
 601 763 588 754 582 748 c 0
 440 624 443 622 425 622 c 0
 403 622 394 644 387 655 c 0
 314 768 313 765 313 778 c 0
EndSplineSet
Refer: 126 78 S 1 0 0 1 -0 -0 3
EndChar

StartChar: Eng
Encoding: 330 330 189
Width: 525
Flags: HW
TeX: 610 0
ItalicCorrection: 152
HStem: -8 76<341.672 381.15> 0 75<66.3926 122 208 238.725> 535 76<198.922 237> 547 83<365.892 461.194>
VStem: 61 182<3.9731 71.5989> 257 84<69.6819 134.992> 477 84<356.695 533.787>
DStem2: 101.244 -8 187.244 -8 0.242599 0.970127<106.419 542.704> 364.739 -8 449.74 -8 0.242599 0.970127<78.4732 487.922>
LayerCount: 2
Fore
SplineSet
61 31 m 0
 61 33 63 68 89 74 c 0
 94 75 100 75 105 75 c 2
 122 75 l 1
 237 535 l 1
 235 535 l 2
 222 535 195 537 195 568 c 0
 195 608 225 611 237 611 c 2
 296 611 l 2x6e
 313 611 318 607 327 598 c 1
 357 617 388 630 428 630 c 0
 508 630 561 568 561 471 c 0
 561 435 554 407 547 380 c 2
 486 137 l 2
 483 125 481 113 477 102 c 0
 453 28 399 -8 347 -8 c 0
 297 -8 257 28 257 82 c 0
 257 131 285 143 304 143 c 0
 323 143 343 130 343 104 c 0
 343 97 341 93 341 85 c 0
 341 77 343 68 351 68 c 0x9e
 361 68 387 77 403 145 c 2
 466 400 l 2
 471 420 477 444 477 468 c 0
 477 507 463 547 422 547 c 0
 371 547 319 491 294 417 c 0
 289 403 287 388 283 374 c 2
 216 110 l 2
 213 99 211 86 208 75 c 1
 229 75 243 62 243 44 c 0x5e
 243 27 237 0 201 0 c 2
 96 0 l 1
 68 1 61 20 61 31 c 0
EndSplineSet
EndChar

StartChar: Ohungarumlaut
Encoding: 336 336 190
Width: 525
Flags: HW
TeX: 771 0
ItalicCorrection: 173
HStem: -8 75<204.418 365.047> 544 75<310.093 473.809> 692 85<315.233 440.696 476.581 600.591> 718 83<523.658 652.212>
VStem: 105 96<12 146.761> 476 96<468.954 595>
AnchorPoint: "above" 459 781 basechar 0
LayerCount: 2
Fore
SplineSet
105 26 m 0
 105 79 203 473 236 564 c 1
 251 602 250 619 402 619 c 2
 431 619 l 2
 559 619 572 606 572 584 c 0
 572 531 470 125 440 45 c 0
 426 8 424 -8 283 -8 c 2
 262 -8 l 2
 134 -8 105 -2 105 26 c 0
201 92 m 0
 201 78 205 68 269 67 c 0
 276 67 283 67 290 67 c 0
 315 67 351 68 365 85 c 0
 387 114 476 498 476 519 c 0
 476 540 459 544 400 544 c 2
 394 544 l 2
 319 544 312 534 304 511 c 0
 288 465 201 130 201 92 c 0
313 727 m 2
 313 736 l 1
 312 768 328 773 347 777 c 0xec
 439 798 452 801 463 801 c 0
 485 801 495 786 500 775 c 0
 501 775 608 801 620 801 c 0
 643 801 659 783 659 763 c 0
 659 745 647 724 619 718 c 0xdc
 580 709 506 692 501 692 c 0
 496 692 476 694 470 720 c 1
 356 694 350 692 344 692 c 0xec
 333 692 313 699 313 727 c 2
EndSplineSet
EndChar

StartChar: Racute
Encoding: 340 340 191
Width: 525
Flags: HW
TeX: 771 0
ItalicCorrection: 173
HStem: -8 21<383 438.5> 0 75<67.7711 127 213 254.57> 268 75<280 346.656> 535 76<200.929 242 328 419.492> 717 84<417.568 545.491>
VStem: 63 196<4.21257 72.0499> 325 83<67.1191 176.626> 353 84<128.166 265.007> 408 97<68.7585 119.299> 437 86<397.174 519.538>
DStem2: 106.244 -8 192.244 -8 0.242599 0.970127<106.419 305.299 382.667 559.713>
AnchorPoint: "below" 214 0 basechar 0
AnchorPoint: "above" 412 789 basechar 0
LayerCount: 2
Fore
SplineSet
364 727 m 0
 364 757 366 769 397 776 c 0
 491 797 503 801 514 801 c 0
 537 801 553 783 553 763 c 0
 553 724 510 717 509 717 c 0
 418 696 406 692 395 692 c 0x3c
 383 692 364 701 364 727 c 0
EndSplineSet
Refer: 130 82 S 1 0 0 1 0 0 3
EndChar

StartChar: Rcaron
Encoding: 344 344 192
Width: 525
Flags: HW
TeX: 819 0
ItalicCorrection: 173
HStem: -8 21<383 438.5> 0 75<67.7711 127 213 254.57> 268 75<280 346.656> 535 76<200.929 242 328 419.492> 622 21G<378 398>
VStem: 63 196<4.21257 72.0499> 325 83<67.1191 176.626> 353 84<128.166 265.007> 408 97<68.7585 119.299> 437 86<397.174 519.538>
DStem2: 106.244 -8 192.244 -8 0.242599 0.970127<106.419 305.299 382.667 559.713>
AnchorPoint: "below" 214 0 basechar 0
AnchorPoint: "above" 414 797 basechar 0
LayerCount: 2
Fore
SplineSet
277 778 m 0
 277 794 290 809 308 809 c 0
 319 809 328 808 399 713 c 1
 465 759 512 809 534 809 c 0x3c
 550 809 565 796 565 778 c 0
 565 763 552 754 546 748 c 0
 404 624 407 622 389 622 c 0
 367 622 358 644 351 655 c 0
 278 768 277 765 277 778 c 0
EndSplineSet
Refer: 130 82 S 1 0 0 1 -0 -0 3
EndChar

StartChar: Sacute
Encoding: 346 346 193
Width: 525
Flags: HW
TeX: 771 0
ItalicCorrection: 173
HStem: -8 75<225.13 349.699> 544 75<325.14 431.631> 717 84<390.568 518.491>
VStem: 91 116<13 154.218> 193 82<380.858 492.384> 405 81<130.088 257.418>
AnchorPoint: "below" 288 0 basechar 0
AnchorPoint: "above" 429 781 basechar 0
LayerCount: 2
Fore
SplineSet
337 727 m 0
 337 757 339 769 370 776 c 0
 464 797 476 801 487 801 c 0
 510 801 526 783 526 763 c 0
 526 724 483 717 482 717 c 0
 391 696 379 692 368 692 c 0xe4
 356 692 337 701 337 727 c 0
EndSplineSet
Refer: 131 83 S 1 0 0 1 0 0 3
EndChar

StartChar: Scaron
Encoding: 352 352 194
Width: 525
Flags: HW
TeX: 819 0
ItalicCorrection: 173
HStem: -8 75<225.13 349.699> 544 75<325.14 431.631> 622 21G<413 433>
VStem: 91 116<13 154.218> 193 82<380.858 492.384> 405 81<130.088 257.418>
AnchorPoint: "below" 288 0 basechar 0
AnchorPoint: "above" 431 789 basechar 0
LayerCount: 2
Fore
SplineSet
312 778 m 0
 312 794 325 809 343 809 c 0
 354 809 363 808 434 713 c 1
 500 759 548 809 570 809 c 0xe4
 586 809 600 796 600 778 c 0
 600 763 587 754 581 748 c 0
 439 624 442 622 424 622 c 0
 402 622 393 644 386 655 c 0
 313 768 312 765 312 778 c 0
EndSplineSet
Refer: 131 83 S 1 0 0 1 -0 -0 3
EndChar

StartChar: Scedilla
Encoding: 350 350 195
Width: 525
Flags: HW
TeX: 610 194
ItalicCorrection: 173
HStem: -210 75<113.703 287.984> -64 131<240.875 304.475> -8 21G<111 132> 544 75<322.598 431.682>
VStem: 91 116<14.5 154.218> 193 82<380.161 492.087> 305 85<-116.252 -67.0914> 405 81<131.131 257.125> 444 119<455.735 595>
LayerCount: 2
Fore
SplineSet
91 21 m 0
 91 28 90 22 127 172 c 0
 135 203 149 203 167 203 c 2
 174 203 l 2
 189 203 211 201 211 174 c 0
 211 162 207 148 207 135 c 0
 207 81 253 67 290 67 c 0
 370 67 405 161 405 206 c 0xdb
 405 262 368 264 347 271 c 0
 291 288 193 300 193 416 c 0
 193 500 260 619 388 619 c 0
 448 619 476 594 487 585 c 1
 506 614 513 619 531 619 c 0
 557 619 563 600 563 590 c 0
 563 583 564 589 527 440 c 0
 520 412 510 408 487 408 c 0
 485 408 482 407 479 407 c 0
 463 407 442 410 442 438 c 0
 442 448 444 459 444 473 c 0xd680
 444 511 432 544 384 544 c 0
 308 544 275 465 275 425 c 0
 275 381 306 373 317 370 c 0
 402 345 436 340 464 296 c 0
 479 272 486 244 486 215 c 0
 486 159 455 35 335 -2 c 1
 354 -11 390 -34 390 -83 c 0
 390 -122 367 -175 291 -197 c 0
 248 -209 203 -210 152 -210 c 2
 149 -210 l 2
 132 -210 110 -207 110 -178 c 0
 110 -139 139 -134 152 -134 c 0
 156 -134 159 -135 159 -135 c 1xd7
 170 -135 l 2
 199 -135 305 -133 305 -87 c 0
 305 -71 283 -65 270 -64 c 0xd7
 265 -64 236 -63 234 -34 c 0
 234 -23 237 -13 240 -4 c 1
 205 2 188 14 168 28 c 1
 148 -3 141 -8 123 -8 c 0xb7
 99 -8 91 8 91 21 c 0
EndSplineSet
EndChar

StartChar: Tcaron
Encoding: 356 356 196
Width: 525
Flags: HW
TeX: 819 0
ItalicCorrection: 173
HStem: -0 75<154.187 238 324 387.939> 441 170<209.74 262.732 518.327 575.793> 535 76<277.767 353 438 510> 622 21G<414 434>
VStem: 495 110<470 580>
DStem2: 219.245 -0 305.245 -0 0.242599 0.970127<98.173 551.467>
AnchorPoint: "below" 262 0 basechar 0
AnchorPoint: "above" 462 797 basechar 0
LayerCount: 2
Fore
SplineSet
313 778 m 0
 313 794 325 809 343 809 c 0
 354 809 363 808 434 713 c 1
 500 759 548 809 570 809 c 0x98
 586 809 600 796 600 778 c 0
 600 763 588 754 582 748 c 0
 440 624 443 622 425 622 c 0
 403 622 393 644 386 655 c 0
 313 768 313 765 313 778 c 0
EndSplineSet
Refer: 132 84 S 1 0 0 1 -0 -0 3
EndChar

StartChar: Tcommaaccent
Encoding: 354 354 197
Width: 525
Flags: HW
TeX: 610 194
ItalicCorrection: 173
HStem: -210 75<92.7134 268.594> -0 75<154.599 219 324 386.829> 441 170<209.806 262.732 518.327 576.395> 535 76<277.767 353 438 510>
VStem: 284 84<-116.815 -67.136> 495 110<470 580>
DStem2: 166.73 -210 252.73 -210 0.242599 0.970127<314.64 767.933>
LayerCount: 2
Fore
SplineSet
88 -179 m 0
 88 -174 90 -139 118 -135 c 0
 123 -134 127 -135 132 -135 c 2
 153 -135 l 1
 189 -134 284 -132 284 -87 c 0
 284 -50 213 -81 213 -34 c 0
 213 -23 216 -11 219 -0 c 1
 188 -0 l 2
 178 0 151 1 150 31 c 1
 153 75 176 75 196 75 c 2
 238 75 l 1
 353 535 l 1
 282 535 l 1xdc
 263 444 257 441 226 441 c 2
 221 441 l 2
 208 441 183 441 182 471 c 0
 182 482 185 494 207 580 c 0
 212 603 223 611 246 611 c 2
 563 611 l 2
 586 611 605 605 605 580 c 0
 605 569 600 558 579 470 c 0
 572 442 552 441 540 441 c 2
 538 441 l 2xec
 531 441 525 440 518 442 c 0
 501 447 495 461 495 470 c 0
 495 480 501 499 510 535 c 1
 438 535 l 1
 324 75 l 1xdc
 355 75 l 2
 365 75 391 75 392 45 c 1
 389 2 365 0 351 -0 c 2
 309 -0 l 1
 349 -17 368 -50 368 -83 c 0
 368 -128 339 -176 271 -196 c 0
 227 -209 183 -210 131 -210 c 2
 125 -210 l 2
 93 -210 88 -188 88 -179 c 0
EndSplineSet
EndChar

StartChar: Uhungarumlaut
Encoding: 368 368 198
Width: 525
Flags: HW
TeX: 771 0
ItalicCorrection: 173
HStem: -8 75<232.905 324.4> 535 76<183.062 229 309.699 379.484 431.062 477 562 626.992> 692 109<326 445 510 629> 715 86<523.124 659.319>
VStem: 138 84<76.0858 250.805> 179 205<539.359 607.466> 427 205<539.641 607.699>
DStem2: 93.4845 -8 178.736 -8 0.242599 0.970127<171.969 559.655> 340.733 -8 426.485 -8 0.242599 0.970127<121.104 559.837>
AnchorPoint: "below" 270 0 basechar 0
AnchorPoint: "above" 459 789 basechar 0
LayerCount: 2
Fore
SplineSet
295 727 m 0
 295 745 295 763 315 772 c 1
 315 772 432 801 445 801 c 0
 468 801 481 787 485 762 c 1
 498 776 489 771 611 799 c 0
 617 800 623 801 629 801 c 0xe2
 653 801 668 782 668 763 c 0
 668 721 619 716 615 715 c 0
 531 696 520 693 510 693 c 0xd2
 474 693 480 730 479 742 c 1
 465 718 455 721 341 695 c 0
 336 694 331 692 326 692 c 0
 314 692 295 701 295 727 c 0
EndSplineSet
Refer: 133 85 S 1 0 0 1 0 -0 3
EndChar

StartChar: Uring
Encoding: 366 366 199
Width: 525
Flags: HW
TeX: 819 0
ItalicCorrection: 173
HStem: -8 75<232.905 324.269> 535 76<183.597 229 309.181 339 562 626.992> 584 73<405 429> 791 75<411.116 498.682>
VStem: 138 84<75.9314 248.422> 320 62<662.772 761.057> 504 62<686.408 785.078>
DStem2: 93.4845 -8 178.986 -8 0.242599 0.970127<171.968 559.655> 340.733 -8 426.485 -8 0.242599 0.970127<121.075 559.837>
LayerCount: 2
Fore
SplineSet
138 137 m 0
 138 166 143 190 149 214 c 2
 229 535 l 1
 214 535 l 2
 188 535 179 554 179 566 c 0
 179 585 186 611 221 611 c 2
 339 611 l 1
 328 627 320 643 320 674 c 0
 320 732 361 866 479 866 c 0
 515 866 566 848 566 774 c 0
 566 726 546 657 490 611 c 1
 594 611 l 2
 628 611 632 588 632 580 c 0
 632 563 625 535 588 535 c 2
 562 535 l 1
 482 214 l 2
 478 196 473 179 467 162 c 0
 430 53 348 -8 268 -8 c 0
 215 -8 138 21 138 137 c 0
222 136 m 0
 222 77 251 67 271 67 c 0
 297 67 363 83 400 229 c 2
 477 535 l 1
 464 535 l 2xde
 436 535 427 549 427 566 c 0
 427 572 428 578 429 584 c 1
 405 582 l 1
 385 584 l 1xbe
 382 537 359 535 341 535 c 2xde
 315 535 l 1
 312 522 308 510 305 497 c 2
 230 196 l 2
 227 184 222 160 222 136 c 0
382 702 m 0
 382 675 399 657 427 657 c 0
 474 657 504 706 504 746 c 0
 504 765 495 791 459 791 c 0xbe
 413 791 382 743 382 702 c 0
EndSplineSet
EndChar

StartChar: Ydieresis
Encoding: 376 376 200
Width: 525
Flags: HW
TeX: 819 0
ItalicCorrection: 173
HStem: 0 75<177.771 238 322 364.743> 535 76<202.103 245 335 377.049 545 607.526> 674 120<301.961 384.422 505.578 588.039>
VStem: 173 196<3.79373 72.0499> 198 183<538.228 607.203> 282 122<693.625 773.883> 427 185<539.193 606.099> 486 122<694.117 774.375>
AnchorPoint: "below" 260 0 basechar 0
AnchorPoint: "above" 456 782 basechar 0
LayerCount: 2
Fore
SplineSet
486 727 m 0
 486 764 520 794 554 794 c 0
 586 794 608 770 608 741 c 0
 608 702 571 674 540 674 c 0xe1
 510 674 486 695 486 727 c 0
EndSplineSet
Refer: 59 729 S 1 0 0 1 -79 183 2
Refer: 137 89 S 1 0 0 1 0 -0 3
EndChar

StartChar: Zcaron
Encoding: 381 381 202
Width: 525
Flags: HW
TeX: 819 0
ItalicCorrection: 173
HStem: -0 75<203 385.872> 535 76<305.783 473> 622 21G<418 438>
DStem2: 107 73 203 75 0.620139 0.784492<61.1023 589.406>
AnchorPoint: "below" 264 0 basechar 0
AnchorPoint: "above" 464 797 basechar 0
LayerCount: 2
Fore
SplineSet
317 778 m 0
 317 794 330 809 348 809 c 0
 359 809 368 808 439 713 c 1
 505 759 553 809 575 809 c 0
 591 809 605 796 605 778 c 0
 605 763 592 754 586 748 c 0
 444 624 447 622 429 622 c 0
 407 622 398 644 391 655 c 0
 318 768 317 765 317 778 c 0
EndSplineSet
Refer: 138 90 S 1 0 0 1 -0 -0 3
EndChar

StartChar: Zdotaccent
Encoding: 379 379 203
Width: 525
Flags: HW
TeX: 771 0
ItalicCorrection: 173
HStem: 0 75<203 385.872> 535 76<305.783 473> 699 119<430.815 513.09>
VStem: 411 121<718.125 798.375>
DStem2: 107 73 203 75 0.620139 0.784492<61.1023 589.406>
AnchorPoint: "below" 264 0 basechar 0
AnchorPoint: "above" 466 806 basechar 0
LayerCount: 2
Fore
SplineSet
411 751 m 0
 411 788 445 818 479 818 c 0
 507 818 532 797 532 765 c 0
 532 728 498 699 464 699 c 0
 436 699 411 719 411 751 c 0
EndSplineSet
Refer: 138 90 S 1 0 0 1 -0 0 3
EndChar

StartChar: IJ
Encoding: 306 306 204
Width: 525
Flags: HW
TeX: 610 0
ItalicCorrection: 173
HStem: -8 151<266.474 320.627> -8 76<322.575 353.679> 0 75<50.3066 105 191 227.714> 535 76<184.391 220 306 361.21 424.322 473 553.527 599.674>
VStem: 46 186<4.32587 70.8868> 180 186<539.125 607.506> 238 84<69.6952 134.901> 420 184<538.899 606.797>
DStem2: 84.2442 -8 170.244 -8 0.242599 0.970127<106.419 559.713> 337.239 -8 422.239 -8 0.242599 0.970127<76.4201 559.714>
LayerCount: 2
Fore
SplineSet
46 30 m 0x39
 46 48 52 75 89 75 c 2
 105 75 l 1
 220 535 l 1
 218 535 l 2
 207 535 180 536 180 565 c 0
 180 588 188 611 221 611 c 2
 329 611 l 2
 362 611 366 587 366 580 c 0x35
 366 563 360 535 323 535 c 2
 306 535 l 1
 191 75 l 1
 195 75 l 2
 206 75 232 74 232 42 c 0x39
 232 30 227 0 190 0 c 2
 82 0 l 2
 50 0 46 22 46 30 c 0x39
238 81 m 0
 238 134 270 143 285 143 c 0x93
 307 143 324 128 324 105 c 0
 324 99 322 92 322 84 c 0
 322 79 323 74 325 68 c 1x53
 352 72 366 106 375 143 c 2
 473 535 l 1
 457 535 l 2
 425 535 420 556 420 567 c 0
 420 586 427 611 463 611 c 2
 566 611 l 2
 601 611 604 587 604 580 c 0x93
 604 538 574 535 562 535 c 2
 558 535 l 1
 555 520 552 506 548 491 c 2
 460 143 l 2x93
 450 103 442 67 411 33 c 0
 389 9 358 -8 325 -8 c 0x53
 273 -8 238 32 238 81 c 0
EndSplineSet
Ligature2: "Latin Dutch ligatures subtable" I J
EndChar

StartChar: Idotaccent
Encoding: 304 304 205
Width: 525
Flags: HW
TeX: 771 0
ItalicCorrection: 173
HStem: 0 75<107.453 237 323 434.287> 535 76<240.705 352 438 568.117> 699 119<409.402 493.09>
VStem: 390 122<718.125 798.375>
DStem2: 218.245 0 304.245 0 0.242599 0.970127<98.173 551.467>
LayerCount: 2
Fore
SplineSet
390 751 m 0
 390 788 424 818 458 818 c 0
 486 818 512 797 512 765 c 0
 512 728 478 699 444 699 c 0
 416 699 390 719 390 751 c 0
EndSplineSet
Refer: 121 73 S 1 0 0 1 -0 0 3
EndChar

StartChar: dcroat
Encoding: 273 273 206
Width: 525
Flags: HW
TeX: 610 0
ItalicCorrection: 173
HStem: -4 76<212.212 299.969 427.234 458.407> 373 75<287.936 372.696> 454 76<332.219 430 535 583.526> 535 76<369.969 450>
VStem: 117 84<80.9074 254.321> 366 180<536.796 607.532> 458 101<75.7344 159.702>
LayerCount: 2
Fore
SplineSet
117 143 m 0
 117 264 197 448 341 448 c 0
 369 448 397 440 422 420 c 1
 430 454 l 1
 364 454 l 1
 338 455 328 468 328 485 c 0
 328 506 336 530 368 530 c 2
 449 530 l 1
 450 535 l 1
 404 535 l 2
 390 535 366 537 366 567 c 0
 366 588 374 611 407 611 c 2
 508 611 l 2
 538 611 546 593 546 581 c 0xfc
 546 571 541 555 535 530 c 1
 550 530 l 2
 584 530 588 508 588 499 c 0
 588 458 559 454 548 454 c 2
 515 454 l 1
 500 388 508 421 434 126 c 0
 432 118 427 105 427 93 c 0
 427 78 435 73 441 73 c 0
 447 73 453 80 458 90 c 0
 484 146 465 177 516 177 c 2
 524 177 l 2
 554 177 559 161 559 150 c 0xfa
 559 122 526 -4 438 -4 c 0
 424 -4 382 -1 356 40 c 1
 324 14 287 -4 243 -4 c 0
 193 -4 117 25 117 143 c 0
201 142 m 0
 201 111 210 72 248 72 c 0
 327 72 384 214 384 300 c 0xf8
 384 362 355 373 336 373 c 0
 311 373 245 348 212 221 c 0
 206 195 201 172 201 142 c 0
EndSplineSet
AlternateSubs2: "Stilistic set 01 subtable" dcroat.vn
AlternateSubs2: "Latin alternatives subtable" dcroat.vn
Substitution2: "Latin Vietnamese substitutions subtable" dcroat.vn
EndChar

StartChar: section
Encoding: 167 167 207
Width: 525
Flags: HW
TeX: 610 222
ItalicCorrection: 173
HStem: -226 75<186.571 285.053> 539 76<337.009 436.789>
VStem: 98 85<-148.814 -59.7182> 156 60<139.098 232.266> 220 60<392.476 486.687> 341 60<-97.382 -5.43009> 405 60<156.925 249.373> 439 84<448.351 534.843>
LayerCount: 2
Fore
SplineSet
98 -117 m 0
 98 -63 127 -51 146 -51 c 0
 169 -51 185 -70 185 -89 c 1
 185 -89 183 -98 183 -109 c 0xee
 183 -142 200 -151 219 -151 c 0
 277 -151 341 -95 341 -46 c 0
 341 -3 277 21 256 30 c 0
 226 43 156 86 156 169 c 0
 156 234 201 300 255 332 c 1
 237 356 220 383 220 424 c 0
 220 520 312 615 408 615 c 0
 471 615 523 571 523 506 c 0
 523 451 494 440 475 440 c 0
 454 440 436 455 436 478 c 0
 436 486 439 494 439 504 c 0xdd
 439 524 427 539 402 539 c 0
 345 539 280 485 280 434 c 0
 280 394 329 373 367 357 c 0
 410 338 465 293 465 219 c 0
 465 184 452 115 366 55 c 1
 396 21 401 -18 401 -36 c 0
 401 -128 313 -226 213 -226 c 0
 150 -226 98 -183 98 -117 c 0
216 179 m 0
 216 136 287 106 298 106 c 0
 332 106 405 154 405 210 c 0xde
 405 253 336 282 323 282 c 0
 291 282 216 236 216 179 c 0
EndSplineSet
EndChar

StartChar: abreve
Encoding: 259 259 208
Width: 525
Flags: HW
TeX: 652 0
ItalicCorrection: 173
HStem: -4 75<211.878 300.196 427.235 456.694> 373 75<287.936 372.721> 514 78<331.87 485.467>
VStem: 117 84<79.6176 254.321> 241 76<608.912 690.466> 473 87<80.2031 174.249> 531 79<631.457 690.547>
AnchorPoint: "below" 229 0 basechar 0
AnchorPoint: "above" 398 674 basechar 0
LayerCount: 2
Fore
SplineSet
241 639 m 0
 241 682 257 694 281 694 c 0
 313 694 319 675 319 663 c 0
 319 656 317 650 317 643 c 0xfa
 317 613 356 592 402 592 c 0
 454 592 511 617 531 658 c 0
 539 675 539 694 572 694 c 0
 605 694 610 673 610 662 c 0
 610 624 540 514 398 514 c 0
 308 514 241 564 241 639 c 0
EndSplineSet
Refer: 145 97 S 1 0 0 1 0 0 3
AlternateSubs2: "Stilistic set 01 subtable" abreve.vn
AlternateSubs2: "Latin alternatives subtable" abreve.vn
Substitution2: "Latin Vietnamese substitutions subtable" abreve.vn
EndChar

StartChar: aogonek
Encoding: 261 261 209
Width: 525
Flags: HW
TeX: 444 222
ItalicCorrection: 173
HStem: -230 70<329.953 374.694> -4 75<211.616 299.147> 373 75<285.122 372.974>
VStem: 117 84<79.187 254.757> 262 67<-159.498 -80.9451> 483 77<99.388 175.749>
AnchorPoint: "above" 341 448 basechar 0
LayerCount: 2
Fore
SplineSet
117 143 m 0
 117 266 198 448 341 448 c 0
 391 448 418 423 424 418 c 1
 425 418 l 1
 436 429 446 435 461 435 c 0
 482 435 500 420 500 397 c 0
 500 390 498 383 496 377 c 2
 432 119 l 2
 430 110 427 101 427 92 c 0
 427 78 436 73 438 73 c 2
 439 73 l 2
 465 73 470 148 483 165 c 0
 492 177 504 177 519 177 c 2
 523 177 l 2
 536 177 560 176 560 148 c 0
 560 142 537 23 465 -0 c 0
 451 -4 451 -2 432 -12 c 0
 348 -59 329 -113 329 -138 c 0
 329 -157 339 -160 341 -160 c 0
 367 -160 376 -125 401 -125 c 0
 418 -125 442 -143 442 -161 c 0
 442 -183 396 -230 347 -230 c 0
 296 -230 262 -185 262 -133 c 0
 262 -69 308 -11 366 26 c 1
 356 40 l 1
 332 20 292 -4 243 -4 c 0
 191 -4 117 29 117 143 c 0
201 142 m 0
 201 109 211 71 247 71 c 0
 326 71 384 212 384 300 c 0
 384 336 374 373 336 373 c 0
 311 373 245 348 212 221 c 0
 206 195 201 172 201 142 c 0
EndSplineSet
EndChar

StartChar: dcaron
Encoding: 271 271 212
Width: 525
Flags: HW
TeX: 610 0
ItalicCorrection: 173
HStem: -4 75<212.249 300.587 427.235 456.899> 373 75<287.936 372.696> 535 76<370.443 450> 635 20G<610.5 658.5>
VStem: 117 84<80.7639 254.321> 366 179<541.141 606.661> 480 80<93.9288 174.974> 548 163<522.224 622.882>
DStem2: 315.97 -4 401.461 -4 0.242599 0.970127<437.056 555.414>
LayerCount: 2
Fore
SplineSet
534 455 m 0
 534 483 557 477 596 508 c 1
 561 517 548 544 548 568 c 0
 548 611 585 655 636 655 c 0
 681 655 711 621 711 578 c 0xf9
 711 498 614 414 572 414 c 0
 553 414 534 440 534 455 c 0
EndSplineSet
Refer: 148 100 S 1 0 0 1 -0 -0 3
EndChar

StartChar: eogonek
Encoding: 281 281 214
Width: 525
Flags: HW
TeX: 444 222
ItalicCorrection: 173
HStem: -230 70<315.699 359.204> -4 75<239.195 310> 2 105<440 492.227> 176 76<233 393.991> 373 75<315.396 432.632>
VStem: 128 84<95.274 175.173> 247 68<-157.985 -82.0305> 438 85<286.395 365.863>
AnchorPoint: "above" 393 448 basechar 0
LayerCount: 2
Fore
SplineSet
128 156 m 0
 128 289 234 448 393 448 c 0
 467 448 523 403 523 335 c 0
 523 278 486 218 394 193 c 0
 364 185 316 176 237 176 c 2
 213 176 l 1
 212 165 212 162 212 158 c 0
 212 82 265 71 309 71 c 0xdf
 473 71 450 107 483 107 c 0
 502 107 527 79 527 62 c 0
 527 29 464 13 440 2 c 0xbf
 340 -46 316 -109 315 -137 c 1
 315 -142 l 1
 317 -156 320 -160 328 -160 c 1
 351 -157 364 -122 388 -122 c 0
 398 -122 429 -134 429 -160 c 1
 428 -183 378 -230 330 -230 c 0
 280 -230 247 -187 247 -134 c 0
 247 -82 276 -37 310 -4 c 1
 302 -4 l 2
 163 -4 128 87 128 156 c 0
233 252 m 1x9f
 245 252 l 2
 304 252 438 252 438 332 c 0
 438 357 417 373 388 373 c 0
 326 373 265 328 233 252 c 1x9f
EndSplineSet
EndChar

StartChar: gbreve
Encoding: 287 287 215
Width: 525
Flags: HW
TeX: 652 222
ItalicCorrection: 173
HStem: -226 75<154.75 290.25> 0 76<227.81 334.452> 373 75<301.046 408.502> 514 78<332.019 486.252>
VStem: 128 84<91.0425 257.762> 241 76<608.912 690.562> 423 117<252.5 408.5> 532 79<631.457 690.547>
LayerCount: 2
Fore
SplineSet
241 639 m 0
 241 682 257 694 281 694 c 0
 315 694 319 673 319 663 c 0
 319 656 317 650 317 643 c 0xfd
 317 613 354 592 402 592 c 0
 454 592 512 617 532 658 c 0
 540 675 540 694 573 694 c 0
 606 694 611 673 611 662 c 0
 611 624 541 514 399 514 c 0
 309 514 241 564 241 639 c 0
EndSplineSet
Refer: 151 103 S 1 0 0 1 -0 -0 3
EndChar

StartChar: lacute
Encoding: 314 314 216
Width: 525
Flags: HW
TeX: 771 0
ItalicCorrection: 173
HStem: -4 76<295.838 376.26> 535 76<190.273 316> 717 84<412.369 540.491>
VStem: 185 226<537.5 606.949> 209 85<77.3516 188.875> 406 81<103.441 175.899>
DStem2: 180.99 -4 267.492 -4 0.242599 0.970127<125.534 555.652>
LayerCount: 2
Fore
SplineSet
359 727 m 0
 359 753 359 768 392 776 c 0
 485 797 498 801 509 801 c 0
 532 801 548 783 548 763 c 0
 548 724 505 717 504 717 c 0
 413 696 401 692 390 692 c 0xe0
 378 692 359 701 359 727 c 0
EndSplineSet
Refer: 156 108 S 1 0 0 1 0 0 3
EndChar

StartChar: lcaron
Encoding: 318 318 217
Width: 525
Flags: HW
TeX: 610 0
ItalicCorrection: 173
HStem: -4 76<295.838 376.26> 535 76<190.273 316> 635 20G<501.5 549.5>
VStem: 185 226<537.5 606.949> 209 85<77.3516 188.875> 406 81<103.441 175.899> 439 163<521.414 622.882>
DStem2: 180.99 -4 267.492 -4 0.242599 0.970127<125.534 555.652>
LayerCount: 2
Fore
SplineSet
412 454 m 0xe2
 412 486 437 475 485 508 c 1
 449 519 439 545 439 568 c 0
 439 611 476 655 527 655 c 0
 572 655 602 620 602 578 c 0
 602 542 574 464 488 425 c 0
 470 417 458 414 450 414 c 0
 429 414 412 440 412 454 c 0xe2
EndSplineSet
Refer: 156 108 S 1 0 0 1 0 0 3
EndChar

StartChar: lslash
Encoding: 322 322 218
Width: 525
Flags: HW
TeX: 610 0
ItalicCorrection: 173
HStem: -4 76<295.594 375.949> 535 76<190.375 317>
VStem: 186 226<537.028 606.844> 209 85<77.5914 188.979> 407 80<106.052 175.787>
DStem2: 159 293 248 262 0.839841 0.542833<-27.4885 54.31 259.625 376.8> 181.481 -4 267.993 -4 0.242599 0.970127<111.6 274.191 360.477 383.038 472.348 553.129>
AnchorPoint: "above" 339 611 basechar 0
LayerCount: 2
Fore
SplineSet
138 263 m 0
 138 275 144 283 159 293 c 0
 286 375 273 362 279 385 c 2
 317 535 l 1
 223 535 l 2
 213 535 186 537 186 568 c 0
 186 588 195 611 229 611 c 2
 375 611 l 2
 408 611 412 588 412 580 c 0xe0
 412 566 397 522 377 434 c 1
 453 483 466 493 479 493 c 0
 502 493 515 465 515 452 c 0
 515 430 514 435 350 329 c 1
 344 299 295 112 294 100 c 1
 294 80 322 72 341 72 c 0
 385 72 401 146 407 159 c 0
 415 176 428 177 443 177 c 2xd8
 456 177 l 2
 475 177 487 163 487 148 c 0
 487 119 439 -4 340 -4 c 0
 278 -4 209 27 209 94 c 0xd8
 209 110 215 128 248 262 c 1
 209 237 189 221 172 221 c 0
 152 221 138 250 138 263 c 0
EndSplineSet
EndChar

StartChar: nacute
Encoding: 324 324 219
Width: 525
Flags: HW
TeX: 610 0
ItalicCorrection: 173
HStem: -4 21<148 166 399 471> 267 181<96 156.201> 373 75<332.751 409.575> 526 84<332.003 436.236> 621 20G<473 488.5>
VStem: 119 78<-0.173157 83.4> 342 84<71.6383 154.012> 411 84<242.023 371.708> 482 79<102.998 175.874>
LayerCount: 2
Fore
SplineSet
329 575 m 0
 329 603 352 608 360 610 c 0
 455 637 467 641 479 641 c 0
 498 641 518 625 518 602 c 0
 518 560 482 559 377 529 c 0
 372 528 367 526 361 526 c 0x9c
 330 526 329 557 329 575 c 0
EndSplineSet
Refer: 158 110 S 1 0 0 1 -0 0 3
EndChar

StartChar: eng
Encoding: 331 331 221
Width: 525
Flags: HW
TeX: 444 222
ItalicCorrection: 173
HStem: -226 114<189.93 251.902> -4 21G<147.5 170> 267 181<96 156.201> 373 75<332.913 409.637>
VStem: 411 84<243.903 372.301>
AnchorPoint: "affricate-below" 469 -222 basechar 0
AnchorPoint: "affricate-above" 678 611 basechar 0
AnchorPoint: "below" 205 -222 basechar 0
AnchorPoint: "above" 373 448 basechar 0
LayerCount: 2
Fore
SplineSet
74 296 m 0
 74 297 96 448 191 448 c 0
 225 448 255 430 270 400 c 1
 295 422 333 448 388 448 c 0
 455 448 495 409 495 343 c 0
 495 274 446 162 429 94 c 0
 401 -17 357 -226 249 -226 c 0
 206 -226 172 -201 172 -162 c 0
 172 -127 198 -112 217 -112 c 0
 249 -112 255 -142 257 -148 c 1
 309 -72 334 87 348 122 c 0
 357 145 411 294 411 342 c 0xd8
 411 361 403 373 384 373 c 0
 264 373 214 51 198 21 c 0
 194 14 182 -4 158 -4 c 0
 137 -4 119 12 119 34 c 0
 119 42 122 50 123 55 c 2
 189 321 l 2
 192 332 195 342 195 355 c 0
 195 366 191 369 187 373 c 1xd8
 144 311 178 267 116 267 c 2
 109 267 l 2xe8
 83 267 74 284 74 296 c 0
EndSplineSet
EndChar

StartChar: ohungarumlaut
Encoding: 337 337 222
Width: 525
Flags: HW
TeX: 652 0
ItalicCorrection: 173
HStem: -4 75<221.631 337.726> 373 75<297.496 413.87> 526 84<252.003 356.553> 526 115<478 597> 621 20<394 411.5>
VStem: 119 84<88.6752 254.916> 249 189<565.778 606.461> 432 83<190.557 354.543>
AnchorPoint: "below" 269 0 basechar 0
AnchorPoint: "above" 410 621 basechar 0
LayerCount: 2
Fore
SplineSet
446 575 m 0
 446 603 469 608 477 610 c 0xe4
 572 637 585 641 597 641 c 0
 620 641 635 621 635 602 c 0
 635 584 623 568 608 562 c 0
 599 558 487 526 478 526 c 0xd4
 447 526 446 557 446 575 c 0
EndSplineSet
Refer: 50 180 S 1 0 0 1 -99 0 2
Refer: 159 111 S 1 0 0 1 0 0 3
EndChar

StartChar: sacute
Encoding: 347 347 225
Width: 525
Flags: HW
TeX: 610 0
ItalicCorrection: 173
HStem: -4 75<185.75 373.387> 373 75<283.572 421.822> 526 84<312.003 416.553> 621 20<454 471.5>
VStem: 98 85<80.5887 144.842> 182 82<288.556 353.861> 309 189<565.778 606.461> 405 82<102.458 175.504> 422 86<312.561 368.499>
AnchorPoint: "below" 273 0 basechar 0
AnchorPoint: "above" 410 621 basechar 0
LayerCount: 2
Fore
SplineSet
98 94 m 0
 98 140 126 153 145 153 c 0
 163 153 184 139 184 116 c 0
 184 111 183 107 183 102 c 0
 183 84 205 71 279 71 c 0
 319 71 383 75 402 132 c 0
 404 137 405 142 405 146 c 0xf9
 405 158 398 168 383 176 c 0
 334 203 226 184 190 265 c 0
 184 277 182 291 182 304 c 0
 182 327 194 448 365 448 c 0
 482 448 508 395 508 360 c 0
 508 318 480 305 461 305 c 0
 437 305 420 320 422 352 c 1xf480
 421 360 417 373 361 373 c 0
 310 373 283 361 270 334 c 0
 268 329 264 322 264 314 c 0
 264 264 387 293 455 229 c 0
 473 212 487 188 487 155 c 0xf5
 487 114 460 -4 272 -4 c 0
 122 -4 98 55 98 94 c 0
EndSplineSet
Refer: 50 180 S 1 0 0 1 -39 0 2
EndChar

StartChar: scaron
Encoding: 353 353 226
Width: 525
Flags: HW
TeX: 652 0
ItalicCorrection: 173
HStem: -4 75<185.387 373.415> 373 75<284.05 421.822> 508 186
VStem: 98 85<78.7644 144.973> 183 82<293.051 354.546> 283 288<651 679> 404 82<99.8311 169.542> 422 86<312.561 368.499>
AnchorPoint: "below" 273 0 basechar 0
AnchorPoint: "above" 424 674 basechar 0
LayerCount: 2
Fore
SplineSet
98 94 m 0
 98 140 126 153 145 153 c 0
 165 153 184 138 184 115 c 0
 184 110 183 105 183 101 c 0
 183 83 205 71 277 71 c 2
 278 71 l 2
 390 71 404 123 404 142 c 0xfa
 404 207 183 173 183 306 c 0
 183 334 198 448 365 448 c 0
 482 448 508 395 508 360 c 0
 508 318 480 305 461 305 c 0xf9
 437 305 420 320 422 352 c 1xf9
 421 360 416 373 361 373 c 0
 334 373 299 371 279 348 c 0
 268 336 265 322 265 316 c 0
 265 261 486 288 486 151 c 0
 486 107 456 56 419 31 c 0
 373 -1 316 -4 273 -4 c 2
 267 -4 l 2
 126 -4 98 55 98 94 c 0
EndSplineSet
Refer: 56 711 S 1 0 0 1 -1 0 2
EndChar

StartChar: scedilla
Encoding: 351 351 227
Width: 525
Flags: HW
TeX: 444 194
ItalicCorrection: 173
HStem: -210 75<85.174 271.328> 373 75<284.416 420.218>
VStem: 98 85<81.1326 144.457> 182 82<288.459 353.354> 290 85<-115.053 -67.6416> 405 82<101.434 175.932> 422 85<312.561 368.499>
LayerCount: 2
Fore
SplineSet
81 -179 m 0
 81 -138 110 -134 121 -134 c 0
 124 -134 126 -135 126 -135 c 1
 148 -135 l 1
 173 -134 290 -133 290 -88 c 0
 290 -77 277 -66 250 -64 c 0
 218 -62 212 -46 212 -34 c 0
 212 -29 213 -21 218 -1 c 1
 149 7 98 37 98 94 c 0
 98 138 126 153 145 153 c 0
 174 153 184 128 184 116 c 0
 184 111 183 107 183 102 c 0
 183 84 205 71 279 71 c 0
 327 71 386 79 403 134 c 0
 404 138 405 142 405 146 c 0xec
 405 208 263 172 204 243 c 0
 189 262 182 283 182 304 c 0
 182 331 197 448 366 448 c 0
 483 448 507 395 507 360 c 0
 507 318 480 305 461 305 c 0
 436 305 420 320 422 352 c 1
 421 362 413 373 360 373 c 0xda
 278 373 264 334 264 314 c 0xda
 264 279 331 280 382 267 c 0
 427 255 487 222 487 155 c 0
 487 111 457 53 408 25 c 0
 376 6 355 4 318 -2 c 1
 347 -14 375 -41 375 -83 c 0
 375 -128 345 -176 275 -196 c 0
 227 -209 180 -210 124 -210 c 2
 119 -210 l 2
 85 -210 81 -188 81 -179 c 0
EndSplineSet
EndChar

StartChar: tcaron
Encoding: 357 357 228
Width: 525
Flags: HW
TeX: 610 0
ItalicCorrection: 173
HStem: -4 76<286.494 369.734> 369 75<160.56 267 372 477.681> 595 20<356.5 377.5>
VStem: 202 84<74.6768 186.893> 417 85<117.897 175.181> 432 162<574.399 676.844>
LayerCount: 2
Fore
SplineSet
412 508 m 0
 412 539 443 531 478 561 c 1
 450 568 432 589 432 621 c 0
 432 663 467 708 519 708 c 0
 565 708 594 673 594 631 c 0xf4
 594 549 494 467 450 467 c 0
 430 467 412 493 412 508 c 0
EndSplineSet
Refer: 164 116 S 1 0 0 1 -0 -0 3
EndChar

StartChar: tcommaaccent
Encoding: 355 355 229
Width: 525
Flags: HW
TeX: 610 194
ItalicCorrection: 173
HStem: -210 75<136.267 311.748> 369 75<160.539 267 372 477.847> 595 20G<356.5 377.5>
VStem: 202 84<72.173 185.914> 329 84<-116.369 -67.2911> 416 86<116.47 174.678>
LayerCount: 2
Fore
SplineSet
132 -179 m 0
 132 -164 137 -135 173 -135 c 2
 196 -135 l 1
 248 -134 311 -130 326 -98 c 0
 328 -94 329 -90 329 -87 c 0
 329 -65 283 -63 279 -62 c 0
 267 -58 256 -46 256 -34 c 0
 256 -28 258 -19 264 5 c 1
 230 18 202 48 202 92 c 0
 202 108 198 95 267 369 c 1
 193 369 l 1
 163 370 156 387 156 399 c 0
 157 444 189 444 197 444 c 2
 286 444 l 1
 286 445 l 1
 286 445 319 582 327 594 c 0
 335 606 349 615 364 615 c 0
 391 615 403 592 403 577 c 0
 403 564 398 550 372 444 c 1
 446 444 l 2
 472 444 482 429 482 412 c 0
 482 401 479 369 442 369 c 2
 353 369 l 1
 341 314 286 112 286 96 c 0
 286 82 298 71 317 71 c 0
 347 71 391 97 416 149 c 0
 418 154 424 177 451 177 c 2
 465 177 l 2
 497 177 502 159 502 148 c 0
 502 129 460 31 351 0 c 1
 382 -12 413 -39 413 -83 c 0
 413 -128 385 -174 320 -195 c 0
 276 -209 232 -210 180 -210 c 2
 167 -210 l 1
 135 -209 132 -187 132 -179 c 0
EndSplineSet
EndChar

StartChar: uhungarumlaut
Encoding: 369 369 230
Width: 525
Flags: HW
TeX: 610 0
ItalicCorrection: 173
HStem: -4 76<249.799 311.303 434.173 459.283> 428 20G<168 241> 526 84<259.003 363.553> 526 115<475 593> 621 20<401 418.5>
VStem: 74 79<268.761 336.64> 162 83<73.6412 263.908> 215 84<308.118 371.904> 256 189<565.778 606.461> 432 77<351.822 440.178> 481 79<93.3145 175.204>
AnchorPoint: "below" 262 0 basechar 0
AnchorPoint: "above" 417 621 basechar 0
LayerCount: 2
Fore
SplineSet
74 296 m 0
 74 322 120 448 216 448 c 0
 266 448 299 411 299 362 c 0xc5
 299 319 277 296 271 280 c 0
 269 273 245 184 245 132 c 0
 245 111 247 72 274 72 c 0
 358 72 419 402 432 422 c 0
 440 435 455 444 470 444 c 0
 490 444 509 429 509 406 c 0xc640
 509 397 506 387 504 378 c 2
 436 105 l 2
 435 100 434 95 434 91 c 0
 434 79 439 73 444 73 c 0
 462 73 473 146 481 161 c 0
 486 171 504 178 522 178 c 0
 541 178 560 170 560 148 c 0
 560 133 533 -4 442 -4 c 0
 409 -4 380 12 364 38 c 1
 341 17 310 -4 269 -4 c 0
 226 -4 162 17 162 134 c 0xc620
 162 204 189 298 194 310 c 0
 203 330 215 341 215 360 c 0xc5
 215 364 215 368 214 373 c 1
 172 367 163 298 153 281 c 1
 144 268 133 267 123 267 c 2
 109 267 l 2
 88 267 74 278 74 296 c 0
443 575 m 0
 443 603 466 608 474 610 c 0xe4
 569 637 581 641 593 641 c 0
 616 641 632 621 632 602 c 0
 632 584 620 568 605 562 c 0
 596 558 484 526 475 526 c 0xd4
 444 526 443 557 443 575 c 0
EndSplineSet
Refer: 50 180 S 1 0 0 1 -92 0 2
EndChar

StartChar: uring
Encoding: 367 367 231
Width: 525
Flags: HW
TeX: 652 0
ItalicCorrection: 173
HStem: -4 75<238.997 316.916> 428 20G<168 241> 491 42<368.079 433.644> 657 43<387.897 454.135>
VStem: 74 79<268.761 336.64> 151 84<74.7022 217.809> 215 84<290.116 371.926> 306 60<533.946 636.2> 432 77<354.236 440.178> 456 60<555.791 656.108> 481 80<93.9288 175.265>
LayerCount: 2
Fore
SplineSet
74 296 m 0
 74 322 120 448 216 448 c 0
 266 448 299 411 299 362 c 0xfb
 299 314 235 192 235 116 c 0
 235 90 242 71 272 71 c 0
 380 71 403 376 432 422 c 0
 440 435 454 444 470 444 c 0
 491 444 509 429 509 406 c 0xf580
 509 397 506 387 504 378 c 2
 439 118 l 2
 437 109 434 101 434 92 c 0
 434 77 443 68 451 78 c 0
 467 99 474 147 481 161 c 0
 487 173 495 177 525 177 c 0
 554 177 561 160 561 148 c 0
 561 142 536 -4 442 -4 c 0
 396 -4 374 24 365 35 c 1
 337 10 306 -4 267 -4 c 0
 216 -4 151 19 151 111 c 0xf520
 151 198 215 335 215 360 c 0
 215 364 215 369 214 373 c 1
 172 367 162 297 153 281 c 0xfb
 145 268 133 267 123 267 c 2
 109 267 l 2
 88 267 74 278 74 296 c 0
306 554 m 0
 306 582 319 653 366 682 c 0
 390 697 417 700 438 700 c 0
 496 700 516 674 516 636 c 0
 516 615 505 530 444 502 c 0
 433 497 414 491 384 491 c 0
 326 491 306 516 306 554 c 0
366 566 m 0
 366 540 381 533 396 533 c 0
 447 533 456 613 456 625 c 0
 456 646 446 657 426 657 c 0xf140
 377 657 366 584 366 566 c 0
EndSplineSet
EndChar

StartChar: ydieresis
Encoding: 255 255 232
Width: 525
Flags: HW
TeX: 652 222
ItalicCorrection: 173
HStem: -226 76<197.196 278.446> -4 75<254.189 347.493> 372 76<185.777 229.781> 491 120<256.961 339.422 460.578 543.168>
VStem: 74 111<309.912 357.717> 112 85<-148.216 -78.2843> 165 84<77.2671 217.612> 230 84<292.225 371.354> 237 122<510.625 590.883> 441 121<510.124 591.375> 467 81<334.875 439.544>
AnchorPoint: "below" 168 -222 basechar 0
AnchorPoint: "above" 436 591 basechar 0
LayerCount: 2
Fore
SplineSet
74 296 m 0
 74 327 126 448 225 448 c 0
 274 448 314 414 314 361 c 0xf9
 314 312 249 197 249 120 c 0xf2
 249 93 258 71 297 71 c 0
 416 71 442 363 467 417 c 0
 475 435 492 444 508 444 c 0
 528 444 548 430 548 406 c 0
 548 397 545 388 543 381 c 2
 451 12 l 2
 442 -22 426 -93 361 -158 c 0
 323 -195 273 -226 214 -226 c 0
 153 -226 112 -185 112 -131 c 0
 112 -82 141 -70 160 -70 c 0
 181 -70 198 -85 198 -108 c 0
 198 -115 197 -121 197 -128 c 0xf420
 197 -139 201 -150 222 -150 c 0
 258 -150 336 -109 366 14 c 1
 340 1 321 -4 293 -4 c 0
 236 -4 165 19 165 115 c 0xf2
 165 199 230 335 230 358 c 0
 230 367 225 372 218 372 c 0
 209 372 196 365 185 351 c 0
 147 302 171 267 118 267 c 2
 107 267 l 1
 77 268 74 291 74 296 c 0
441 544 m 0
 441 581 475 611 509 611 c 0
 537 611 562 590 562 558 c 0
 562 524 532 491 495 491 c 0xf040
 465 491 441 512 441 544 c 0
EndSplineSet
Refer: 59 729 S 1 0 0 1 -124 0 2
EndChar

StartChar: zacute
Encoding: 378 378 233
Width: 525
Flags: HW
TeX: 610 0
ItalicCorrection: 173
HStem: -4 84<287.124 408.873> 364 84<262.899 374.323> 526 84<320.003 424.346> 621 20G<462 477.5>
VStem: 162 79<289.889 342.994>
AnchorPoint: "below" 289 0 basechar 0
AnchorPoint: "above" 444 621 basechar 0
LayerCount: 2
Fore
SplineSet
317 575 m 0
 317 603 340 608 348 610 c 0
 443 637 456 641 468 641 c 0
 487 641 506 625 506 602 c 0
 506 560 470 559 365 529 c 0
 360 528 355 526 349 526 c 0
 318 526 317 557 317 575 c 0
EndSplineSet
Refer: 170 122 S 1 0 0 1 -0 0 3
EndChar

StartChar: zdotaccent
Encoding: 380 380 235
Width: 525
Flags: HW
TeX: 610 0
ItalicCorrection: 173
HStem: -4 84<287.124 408.873> 364 84<262.899 374.323> 528 83<383.178 453.419>
VStem: 162 79<289.889 342.994> 376 84<535.066 603.617>
AnchorPoint: "below" 289 0 basechar 0
AnchorPoint: "above" 437 591 basechar 0
LayerCount: 2
Fore
SplineSet
376 566 m 0
 376 592 399 611 421 611 c 0
 444 611 460 591 460 572 c 0
 460 546 437 528 415 528 c 0
 392 528 376 547 376 566 c 0
EndSplineSet
Refer: 170 122 S 1 0 0 1 -0 0 3
EndChar

StartChar: ij
Encoding: 307 307 236
Width: 525
Flags: HW
TeX: 610 222
ItalicCorrection: 173
HStem: -226 109<214.975 281.243> -4 21G<177.5 247.5> 372 76<412.754 458.803> 528 83<259.178 328.822 524.066 594.419>
VStem: 74 73<268.819 323.851> 121 84<71.9705 150.774> 209 84<293.226 372.03> 252 84<535.594 603.617> 268 72<117.67 175.416> 295 78<268.804 323.827> 460 85<259.109 371.905> 517 84<535.066 603.947>
DStem2: 317.235 -226 403.237 -226 0.242599 0.970127<98.2794 597.914>
LayerCount: 2
Fore
SplineSet
74 296 m 0
 74 319 117 448 212 448 c 0
 260 448 293 412 293 363 c 2
 293 357 l 2xfa
 293 324 205 109 205 81 c 0
 205 78 205 74 206 71 c 1
 250 82 250 156 268 170 c 0
 277 177 281 177 296 177 c 2
 300 177 l 2
 318 177 340 175 340 147 c 0
 340 120 293 -4 202 -4 c 0
 153 -4 121 32 121 81 c 2
 121 87 l 2xf480
 121 120 209 335 209 363 c 0
 209 366 210 370 209 373 c 1
 166 362 165 288 147 274 c 0xfa
 139 267 134 267 120 267 c 0
 117 267 113 267 110 267 c 0
 79 267 74 286 74 296 c 0
200 -166 m 0
 200 -138 220 -117 246 -117 c 0
 269 -117 282 -134 285 -150 c 1
 343 -131 360 -55 371 -11 c 2
 456 327 l 2
 459 338 460 347 460 355 c 0
 460 365 457 372 448 372 c 0
 407 372 376 285 373 281 c 0xf060
 365 268 353 267 344 267 c 2
 331 267 l 2
 303 267 295 283 295 294 c 0
 295 330 359 448 455 448 c 0
 511 448 545 405 545 356 c 0
 545 336 539 319 535 302 c 2
 451 -35 l 2
 408 -206 308 -226 272 -226 c 0
 231 -226 200 -202 200 -166 c 0
252 566 m 0
 252 592 275 611 297 611 c 0
 320 611 336 591 336 572 c 0xf1
 336 548 313 528 291 528 c 0
 268 528 252 547 252 566 c 0
517 566 m 0xf010
 517 591 539 611 562 611 c 0
 581 611 601 595 601 572 c 0
 601 546 578 528 556 528 c 0
 536 528 517 543 517 566 c 0xf010
EndSplineSet
Ligature2: "Latin Dutch ligatures subtable" i j
EndChar

StartChar: exclamdown
Encoding: 161 161 237
Width: 525
Flags: HW
TeX: 388 222
ItalicCorrection: 173
HStem: 239 149<296.689 385.477>
VStem: 233 122<109.487 163.654> 264 152<269.964 355.682>
LayerCount: 2
Fore
SplineSet
146 -168 m 0
 146 -154 151 -141 155 -129 c 2
 233 133 l 2
 242 164 254 166 274 166 c 2xc0
 317 166 l 2
 330 166 355 164 355 136 c 0
 355 129 353 122 352 117 c 2
 300 -145 l 2
 299 -150 288 -230 212 -230 c 0
 176 -230 146 -203 146 -168 c 0
EndSplineSet
Refer: 94 46 S 1 0 0 1 60 239 2
EndChar

StartChar: questiondown
Encoding: 191 191 238
Width: 525
Flags: HW
TeX: 388 222
ItalicCorrection: 173
HStem: -230 75<171.673 290.862> 269 120<302.961 385.422>
VStem: 89 79<-149.773 -67.1572> 283 122<288.625 368.883> 323 86<-126.232 -64.0271>
LayerCount: 2
Fore
SplineSet
89 -120 m 0
 89 -84 102 -19 183 30 c 0
 284 91 276 82 284 111 c 1
 237 96 267 64 215 64 c 2
 209 64 l 2
 195 64 171 66 171 94 c 0xe8
 171 138 236 189 296 189 c 0
 336 189 363 163 363 120 c 0
 363 92 351 52 325 26 c 0
 281 -18 168 -42 168 -118 c 0
 168 -133 174 -155 217 -155 c 0
 261 -155 307 -134 323 -99 c 0
 326 -93 333 -56 370 -56 c 0
 390 -56 409 -71 409 -94 c 0
 409 -147 332 -230 213 -230 c 0
 143 -230 89 -193 89 -120 c 0
EndSplineSet
Refer: 59 729 S 1 0 0 1 -78 -222 2
EndChar

StartChar: sterling
Encoding: 163 163 239
Width: 525
Flags: HW
TeX: 610 0
ItalicCorrection: 173
HStem: -4 126<113.12 187.578> 268 75<190.19 229 334 389.897> 603 20G<405.5 450>
VStem: 186 208<271.105 339.899> 331 100<73.8991 135.892> 430 81<454.81 545.546>
DStem2: 160.981 -4 245.741 -4 0.242599 0.970127<153.53 280.376 378.608 579.21>
LayerCount: 2
Fore
SplineSet
86 43 m 0
 86 88 126 119 161 122 c 0
 170 123 179 122 188 121 c 1
 198 145 l 1
 229 268 l 2
 228 268 225 267 221 267 c 0
 206 267 186 273 186 297 c 0
 186 340 213 343 224 343 c 0
 232 343 240 343 248 343 c 1
 249 346 280 475 287 494 c 0
 316 577 376 623 435 623 c 0
 465 623 511 608 511 532 c 0
 511 508 503 454 494 439 c 0
 486 426 470 417 455 417 c 0
 434 417 416 431 416 454 c 0
 416 471 430 506 430 541 c 2
 430 548 l 1
 372 537 357 435 334 343 c 1
 356 343 l 2
 383 343 394 332 394 314 c 0
 394 270 366 268 355 268 c 2xf4
 314 268 l 1
 287 158 l 1
 279 129 l 1
 266 94 l 1
 286 85 305 75 331 73 c 1
 359 126 334 152 397 152 c 0
 418 152 431 141 431 124 c 0xe8
 431 96 395 -4 318 -4 c 0
 269 -4 227 25 215 25 c 0
 206 25 179 -4 132 -4 c 0
 103 -4 86 16 86 43 c 0
EndSplineSet
EndChar

StartChar: Acircumflex
Encoding: 194 194 242
Width: 525
Flags: HW
TeX: 819 0
ItalicCorrection: 173
HStem: -0 75<77.0349 134 220 253.849 289.697 342 427 466.228> 150 75<282 348> 599 20<387 447>
VStem: 73 185<3.37881 72.3308> 285 186<4.49066 70.6484>
DStem2: 134 75 220 75 0.391455 0.920197<33.6651 114.815 195.965 439.243> 342 75 427 75 0.086343 0.996265<7.33916 75.238 150.562 400.688>
AnchorPoint: "below" 262 0 basechar 0
AnchorPoint: "above" 477 845 basechar 0
LayerCount: 2
Fore
SplineSet
262 711 m 0
 262 731 258 724 435 853 c 0
 442 858 451 865 462 865 c 0
 479 865 476 864 584 741 c 0
 593 731 600 723 600 711 c 0
 600 691 568 664 550 664 c 0
 531 664 528 672 452 772 c 1
 374 714 326 665 304 665 c 0
 279 665 262 699 262 711 c 0
EndSplineSet
Refer: 113 65 S 1 0 0 1 -0 -0 3
AlternateSubs2: "Stilistic set 01 subtable" Acircumflex.vn
AlternateSubs2: "Latin alternatives subtable" Acircumflex.vn
Substitution2: "Latin Vietnamese substitutions subtable" Acircumflex.vn
EndChar

StartChar: Atilde
Encoding: 195 195 243
Width: 525
Flags: HW
TeX: 819 0
ItalicCorrection: 173
HStem: -0 75<77.0349 134 220 253.849 289.697 342 427 466.228> 150 75<282 348> 599 20<387 447> 708 84<486.507 568.787> 777 84<348.448 428.792>
VStem: 73 185<3.37881 72.3308> 285 186<4.49066 70.6484>
DStem2: 134 75 220 75 0.391455 0.920197<33.6651 114.815 195.965 439.243> 342 75 427 75 0.086343 0.996265<7.33916 75.238 150.562 400.688>
AnchorPoint: "below" 262 0 basechar 0
AnchorPoint: "above" 476 841 basechar 0
LayerCount: 2
Fore
SplineSet
245 747 m 0
 245 760 255 769 259 774 c 0
 294 812 340 861 395 861 c 0xee
 462 861 489 792 525 792 c 0
 566 792 604 860 631 860 c 0
 651 860 671 840 671 822 c 0
 671 809 662 800 658 795 c 0
 625 759 576 708 521 708 c 0xf6
 454 708 428 777 392 777 c 2
 391 777 l 1
 349 776 314 709 286 709 c 0xee
 269 709 245 726 245 747 c 0
EndSplineSet
Refer: 113 65 S 1 0 0 1 -0 -0 3
AlternateSubs2: "Stilistic set 01 subtable" Atilde.vn
AlternateSubs2: "Latin alternatives subtable" Atilde.vn
Substitution2: "Latin Vietnamese substitutions subtable" Atilde.vn
EndChar

StartChar: AE
Encoding: 198 198 246
Width: 525
Flags: HW
TeX: 610 0
ItalicCorrection: 173
HStem: -0 75<73.4529 122 241.586 281 351 416.546> 169 75<260 305> 279 75<421 517.212> 535 76<381 396 466 520>
VStem: 69 151<3.71875 71.0627> 505 95<489.454 534.008>
DStem2: 122 75 191 75 0.380347 0.924844<26.2439 127.632 208.786 506.62> 262.245 -0 332.245 -0 0.242599 0.970127<94.2914 174.324 252.663 304.57 381.939 551.467>
AnchorPoint: "below" 261 0 basechar 0
AnchorPoint: "above" 452 619 basechar 0
LayerCount: 2
Fore
SplineSet
69 31 m 0
 69 44 73 75 110 75 c 2
 122 75 l 1
 312 537 l 1
 301 543 291 550 291 566 c 0
 291 585 299 611 333 611 c 2
 559 611 l 2
 569 611 600 610 600 580 c 0
 600 568 572 464 570 460 c 0
 565 449 554 441 539 441 c 0
 512 441 505 461 505 471 c 0
 505 482 515 514 520 535 c 1
 466 535 l 1
 421 354 l 1
 486 354 l 2
 511 354 521 341 521 323 c 0
 521 277 486 279 481 279 c 2
 402 279 l 1
 351 75 l 1
 412 75 l 1
 433 160 432 185 466 185 c 0
 492 185 500 166 500 154 c 0
 500 149 501 154 472 39 c 0
 467 19 464 0 432 -0 c 2
 275 -0 l 2
 265 0 238 1 238 34 c 0
 238 49 243 75 281 75 c 1
 305 169 l 1
 229 169 l 1
 191 75 l 1
 218 69 220 50 220 44 c 0
 220 29 215 0 179 -0 c 2
 106 -0 l 2
 72 0 69 23 69 31 c 0
260 244 m 1
 323 244 l 1
 324 245 l 1
 396 535 l 1
 381 535 l 1
 260 244 l 1
EndSplineSet
EndChar

StartChar: Ccedilla
Encoding: 199 199 247
Width: 525
Flags: HW
TeX: 610 194
ItalicCorrection: 173
HStem: -210 75<107.883 281.939> -64 131<248.887 297.931> 407 212<424 513 525.899 555.721> 544 75<367.671 466.631>
VStem: 134 84<99.0772 319.387> 298 85<-116.635 -67.3372> 403 86<121.324 192.811> 477 119<455.735 595>
AnchorPoint: "above" 424 619 basechar 0
LayerCount: 2
Fore
SplineSet
103 -179 m 0
 103 -173 105 -135 143 -135 c 2
 156 -135 l 2
 228 -135 298 -126 298 -87 c 0
 298 -69 274 -65 259 -64 c 0
 237 -63 227 -49 227 -32 c 0
 227 -22 229 -12 235 -1 c 1
 148 29 134 123 134 183 c 0
 134 279 182 483 299 572 c 0
 335 600 378 619 424 619 c 0xee
 465 619 489 606 515 585 c 1
 541 616 548 619 563 619 c 0xde
 589 619 596 600 596 590 c 0
 596 583 596 589 559 439 c 0
 551 407 537 407 518 407 c 2
 513 407 l 2
 496 407 475 408 475 437 c 0
 475 447 477 460 477 474 c 0xed
 477 523 457 544 428 544 c 0
 393 544 345 513 314 474 c 0
 243 386 218 249 218 188 c 0
 218 132 236 68 299 67 c 0
 341 67 385 109 403 160 c 0
 411 182 412 196 447 196 c 0
 472 196 489 190 489 166 c 0xde
 489 132 442 30 328 -3 c 1
 347 -12 383 -35 383 -83 c 0
 383 -128 352 -176 284 -196 c 0
 240 -208 198 -210 147 -210 c 2
 141 -210 l 2
 107 -210 103 -189 103 -179 c 0
EndSplineSet
EndChar

StartChar: Egrave
Encoding: 200 200 248
Width: 525
Flags: HW
TeX: 771 0
ItalicCorrection: 173
HStem: 0 75<67.8615 132 218 403.364> 279 75<287 347> 441 170<502.328 559.572> 535 76<201.448 247 332 495> 692 109<408.752 489.897> 715 86<362.179 486.38>
VStem: 342 85<224.507 276.772> 366 91<355.399 406.201> 480 110<488.707 533.325>
DStem2: 113.245 0 199.245 0 0.242599 0.970127<98.173 308.209 385.578 551.467>
AnchorPoint: "below" 259 0 basechar 0
AnchorPoint: "above" 457 789 basechar 0
LayerCount: 2
Fore
SplineSet
355 757 m 0xc480
 355 779 375 801 399 801 c 0xc480
 409 801 420 798 505 776 c 0
 509 775 535 769 535 744 c 0
 535 737 524 692 495 692 c 0xc880
 486 692 476 696 402 715 c 0
 387 719 355 723 355 757 c 0xc480
EndSplineSet
Refer: 117 69 S 1 0 0 1 0 0 3
AlternateSubs2: "Stilistic set 01 subtable" Egrave.vn
AlternateSubs2: "Latin alternatives subtable" Egrave.vn
Substitution2: "Latin Vietnamese substitutions subtable" Egrave.vn
EndChar

StartChar: Ecircumflex
Encoding: 202 202 250
Width: 525
Flags: HW
TeX: 819 0
ItalicCorrection: 173
HStem: 0 75<67.8615 132 218 403.364> 279 75<287 347> 441 170<502.328 559.572> 535 76<201.448 247 332 495>
VStem: 342 85<224.507 276.772> 366 91<355.399 406.201> 480 110<488.707 533.325>
DStem2: 113.245 0 199.245 0 0.242599 0.970127<98.173 308.209 385.578 551.467>
AnchorPoint: "below" 259 0 basechar 0
AnchorPoint: "above" 473 853 basechar 0
LayerCount: 2
Fore
SplineSet
270 711 m 0
 270 731 266 725 443 853 c 0
 450 858 459 865 470 865 c 0
 484 865 491 857 504 842 c 0
 600 733 608 729 608 711 c 0
 608 691 576 664 558 664 c 0
 539 664 536 672 460 772 c 1
 381 714 334 665 312 665 c 0xc2
 287 665 270 698 270 711 c 0
EndSplineSet
Refer: 117 69 S 1 0 0 1 -0 0 3
AlternateSubs2: "Stilistic set 01 subtable" Ecircumflex.vn
AlternateSubs2: "Latin alternatives subtable" Ecircumflex.vn
Substitution2: "Latin Vietnamese substitutions subtable" Ecircumflex.vn
EndChar

StartChar: Icircumflex
Encoding: 206 206 254
Width: 525
Flags: HW
TeX: 819 0
ItalicCorrection: 173
HStem: -0 75<107.453 237 323 434.287> 535 76<240.705 352 438 568.117>
DStem2: 218.245 -0 304.245 -0 0.242599 0.970127<98.173 551.467>
AnchorPoint: "below" 261 0 basechar 0
AnchorPoint: "above" 475 853 basechar 0
LayerCount: 2
Fore
SplineSet
270 711 m 0
 270 731 266 725 443 853 c 0
 450 858 459 865 470 865 c 0
 484 865 491 857 504 842 c 0
 600 733 608 729 608 711 c 0
 608 691 576 664 558 664 c 0
 539 664 536 672 460 772 c 1
 381 714 334 665 312 665 c 0
 287 665 270 698 270 711 c 0
EndSplineSet
Refer: 121 73 S 1 0 0 1 -0 -0 3
EndChar

StartChar: Eth
Encoding: 208 208 256
Width: 525
Flags: HW
TeX: 610 0
ItalicCorrection: 173
HStem: -0 75<66.1611 124 210 323.247> 262 76<132.035 171 276 372.22> 535 76<200.495 239 325 427.251>
VStem: 458 87<294.281 504.32>
DStem2: 105.245 -0 191.245 -0 0.242599 0.970127<98.173 270.125 369.328 551.467>
LayerCount: 2
Fore
SplineSet
62 30 m 0
 62 72 91 76 101 76 c 0
 103 76 104 75 104 75 c 1
 124 75 l 1
 171 262 l 1
 170 262 l 2
 154 262 128 263 128 294 c 0
 128 335 156 338 167 338 c 2
 190 338 l 1
 239 535 l 1
 235 535 l 2
 222 535 195 537 195 566 c 0
 195 577 199 611 238 611 c 2
 418 611 l 2
 519 611 545 518 545 440 c 0
 545 293 453 0 265 -0 c 2
 100 -0 l 2
 65 0 62 21 62 30 c 0
210 75 m 1
 262 75 l 2
 400 75 458 327 458 416 c 0
 458 474 442 535 377 535 c 2
 325 535 l 1
 276 338 l 1
 338 338 l 2
 371 338 377 317 377 306 c 0
 377 296 373 262 336 262 c 2
 256 262 l 1
 210 75 l 1
EndSplineSet
EndChar

StartChar: Ntilde
Encoding: 209 209 257
Width: 525
Flags: HW
TeX: 819 0
ItalicCorrection: 173
HStem: 0 75<67.0129 127 197 238.763> 535 76<200.776 242 438.622 480 544.225 609.676> 708 84<486.507 568.787> 777 84<348.448 428.792>
VStem: 63 180<4.00078 71.2792> 306 65<83.8367 526.234> 434 180<538.938 606.999>
DStem2: 108.245 0 178.245 0 0.242599 0.970127<94.2914 551.467> 346.244 0 415.497 0 0.242599 0.970127<85.5558 551.467>
CounterMasks: 1 0e
LayerCount: 2
Fore
SplineSet
245 747 m 0
 245 760 255 769 259 774 c 0
 294 812 340 861 395 861 c 0xde
 462 861 489 792 525 792 c 0
 566 792 604 860 631 860 c 0
 651 860 671 840 671 822 c 0
 671 809 662 800 658 795 c 0
 625 759 576 708 521 708 c 0xee
 454 708 428 777 392 777 c 2
 391 777 l 1
 349 776 314 709 286 709 c 0xde
 269 709 245 726 245 747 c 0
EndSplineSet
Refer: 126 78 S 1 0 0 1 -0 -0 3
EndChar

StartChar: Ograve
Encoding: 210 210 258
Width: 525
Flags: HW
TeX: 771 0
ItalicCorrection: 173
HStem: -8 75<204.418 365.047> 544 75<310.093 474.383> 693 109<394.022 479.363> 715 87<354.594 479.363>
VStem: 105 96<12 146.761> 347 181<723.044 773.312> 476 96<467.959 594.5>
AnchorPoint: "above" 459 782 basechar 0
LayerCount: 2
Fore
SplineSet
105 26 m 0
 105 79 203 473 236 564 c 1
 251 602 250 619 402 619 c 2
 431 619 l 2
 561 619 572 605 572 584 c 0
 572 528 468 121 440 45 c 0
 426 8 424 -8 283 -8 c 2
 262 -8 l 2
 134 -8 105 -2 105 26 c 0
201 92 m 0
 201 78 205 68 269 67 c 0xca
 276 67 283 67 290 67 c 0
 315 67 351 68 365 85 c 0
 387 114 476 498 476 519 c 0
 476 540 459 544 400 544 c 2
 394 544 l 2
 319 544 312 534 304 511 c 0
 288 465 201 130 201 92 c 0
EndSplineSet
Refer: 304 -1 S 1 0 0 1 52 167 2
AlternateSubs2: "Stilistic set 01 subtable" Ograve.vn
AlternateSubs2: "Latin alternatives subtable" Ograve.vn
Substitution2: "Latin Vietnamese substitutions subtable" Ograve.vn
EndChar

StartChar: Oacute
Encoding: 211 211 259
Width: 525
Flags: HW
TeX: 771 0
ItalicCorrection: 173
HStem: -8 75<204.418 365.047> 544 75<310.093 474.383> 693 109<417.684 500.716>
VStem: 105 96<12 146.761> 368 189<726.034 773.133> 476 96<467.959 594.5>
AnchorPoint: "above" 459 782 basechar 0
LayerCount: 2
Fore
SplineSet
105 26 m 0
 105 79 203 473 236 564 c 1
 251 602 250 619 402 619 c 2
 431 619 l 2
 561 619 572 605 572 584 c 0
 572 528 468 121 440 45 c 0
 426 8 424 -8 283 -8 c 2
 262 -8 l 2
 134 -8 105 -2 105 26 c 0
201 92 m 0
 201 78 205 68 269 67 c 0xf4
 276 67 283 67 290 67 c 0
 315 67 351 68 365 85 c 0
 387 114 476 498 476 519 c 0
 476 540 459 544 400 544 c 2
 394 544 l 2
 319 544 312 534 304 511 c 0
 288 465 201 130 201 92 c 0
EndSplineSet
Refer: 305 -1 S 1 0 0 1 32 167 2
AlternateSubs2: "Stilistic set 01 subtable" Oacute.vn
AlternateSubs2: "Latin alternatives subtable" Oacute.vn
Substitution2: "Latin Vietnamese substitutions subtable" Oacute.vn
EndChar

StartChar: Ocircumflex
Encoding: 212 212 260
Width: 525
Flags: HW
TeX: 819 0
ItalicCorrection: 173
HStem: -8 75<217.383 351.211> 544 75<324.084 461.376>
VStem: 120 91<58.5 209.016> 467 89<401.913 577>
AnchorPoint: "below" 261 0 basechar 0
AnchorPoint: "above" 475 845 basechar 0
LayerCount: 2
Fore
SplineSet
271 711 m 0
 271 731 266 725 443 853 c 0
 450 858 460 865 471 865 c 0
 485 865 492 857 505 842 c 0
 601 733 609 729 609 711 c 0
 609 691 577 664 559 664 c 0
 540 664 537 672 461 772 c 1
 382 714 334 665 312 665 c 0
 287 665 271 698 271 711 c 0
EndSplineSet
Refer: 127 79 S 1 0 0 1 -0 0 3
AlternateSubs2: "Stilistic set 01 subtable" Ocircumflex.vn
AlternateSubs2: "Latin alternatives subtable" Ocircumflex.vn
Substitution2: "Latin Vietnamese substitutions subtable" Ocircumflex.vn
EndChar

StartChar: Otilde
Encoding: 213 213 261
Width: 525
Flags: HW
TeX: 819 0
ItalicCorrection: 173
HStem: -8 75<217.383 351.211> 544 75<324.084 461.376> 708 84<487.208 568.136> 777 84<347.015 428.706>
VStem: 120 91<58.5 209.016> 467 89<401.913 577>
AnchorPoint: "below" 261 0 basechar 0
AnchorPoint: "above" 474 841 basechar 0
LayerCount: 2
Fore
SplineSet
245 747 m 0
 245 760 254 769 258 774 c 0
 293 812 340 861 395 861 c 0xdc
 462 861 488 792 525 792 c 2
 526 792 l 1
 568 794 603 860 630 860 c 0xec
 650 860 671 840 671 822 c 0
 671 809 662 800 658 795 c 0
 625 759 576 708 521 708 c 0xec
 454 708 427 777 391 777 c 2
 390 777 l 1
 361 776 321 732 319 730 c 0
 305 716 298 709 285 709 c 0
 268 709 245 726 245 747 c 0
EndSplineSet
Refer: 127 79 S 1 0 0 1 0 -0 3
AlternateSubs2: "Stilistic set 01 subtable" Otilde.vn
AlternateSubs2: "Latin alternatives subtable" Otilde.vn
Substitution2: "Latin Vietnamese substitutions subtable" Otilde.vn
EndChar

StartChar: Odieresis
Encoding: 214 214 262
Width: 525
Flags: HW
TeX: 819 0
ItalicCorrection: 173
HStem: -8 75<217.383 351.211> 544 75<324.084 461.376> 674 120<301.961 384.422 506.578 589.168>
VStem: 120 91<58.5 209.016> 282 122<693.625 773.883> 467 89<401.913 577> 487 121<693.124 774.375>
AnchorPoint: "below" 261 0 basechar 0
AnchorPoint: "above" 457 774 basechar 0
LayerCount: 2
Fore
SplineSet
487 727 m 0
 487 764 521 794 555 794 c 0
 583 794 608 773 608 741 c 0
 608 707 578 674 541 674 c 0xfa
 511 674 487 695 487 727 c 0
EndSplineSet
Refer: 59 729 S 1 0 0 1 -79 183 2
Refer: 127 79 S 1 0 0 1 0 -0 3
EndChar

StartChar: OE
Encoding: 338 338 263
Width: 525
Flags: HW
TeX: 610 0
ItalicCorrection: 173
HStem: -8 75<178.134 272.939> -0 75<350 418.564> 279 75<420 521.847> 535 76<465 523> 544 75<284.6 381.006>
VStem: 95 76<40.5 194.055> 508 95<470 580>
DStem2: 259.486 -8 329.244 -8 0.242599 0.970127<103.98 312.515 390.126 528.894>
AnchorPoint: "above" 451 619 basechar 0
LayerCount: 2
Fore
SplineSet
95 61 m 0
 95 138 185 514 233 576 c 0
 261 612 305 619 362 619 c 0xae
 394 619 419 611 451 611 c 2
 564 611 l 2
 597 611 603 592 603 580 c 0
 603 569 598 558 576 470 c 0
 573 456 563 441 542 441 c 0
 515 441 508 461 508 470 c 0
 508 480 514 499 523 535 c 1
 465 535 l 1
 420 354 l 1
 490 354 l 2
 516 354 526 339 526 322 c 0
 526 311 523 279 486 279 c 2
 400 279 l 1
 350 75 l 1
 414 75 l 1x76
 435 160 435 186 469 186 c 0
 496 186 503 162 503 156 c 0
 503 146 496 125 473 31 c 0
 470 20 465 0 436 -0 c 2
 309 -0 l 2x76
 257 0 246 -8 204 -8 c 0
 109 -8 95 20 95 61 c 0
171 111 m 0xae
 171 76 202 67 229 67 c 0
 277 67 289 110 309 190 c 2
 373 448 l 2
 379 473 383 492 383 507 c 0
 383 532 373 544 346 544 c 0
 275 544 263 494 249 451 c 0
 219 355 171 155 171 111 c 0xae
EndSplineSet
EndChar

StartChar: Oslash
Encoding: 216 216 264
Width: 525
Flags: HW
TeX: 666 55
ItalicCorrection: 173
HStem: -8 75<277 363.875> 544 75<314.118 400>
VStem: 120 76<58.5 210.335> 480 76<403.82 565.5>
DStem2: 167 -0 245 -8 0.393561 0.919299<-56.9952 0 104.885 591.798 696.683 753.806>
LayerCount: 2
Fore
SplineSet
120 66 m 0
 120 122 134 182 175 347 c 0
 236 591 261 619 409 619 c 2
 432 619 l 1
 458 686 465 698 487 698 c 0
 498 698 530 694 530 665 c 0
 530 656 525 646 510 611 c 1
 541 600 556 587 556 544 c 0
 556 464 481 156 439 70 c 0
 409 8 369 -8 268 -8 c 2
 245 -8 l 1
 219 -69 215 -87 189 -87 c 0
 178 -87 147 -83 147 -54 c 0
 147 -42 155 -32 167 -0 c 1
 120 14 120 51 120 66 c 0
196 116 m 0
 196 99 200 94 205 87 c 1
 400 544 l 1
 301 544 288 521 242 341 c 0
 213 230 197 161 196 116 c 0
277 67 m 1
 362 67 380 87 408 174 c 0
 423 221 480 429 480 493 c 0
 480 511 475 519 472 524 c 1
 277 67 l 1
EndSplineSet
EndChar

StartChar: Uacute
Encoding: 218 218 266
Width: 525
Flags: HW
TeX: 771 0
ItalicCorrection: 173
HStem: -8 75<232.905 324.4> 535 76<183.062 229 309.699 379.484 431.062 477 562 626.992> 717 84<440.568 568.491>
VStem: 138 84<76.0858 250.805> 179 205<539.359 607.466> 427 205<539.641 607.699>
DStem2: 93.4845 -8 178.736 -8 0.242599 0.970127<171.969 559.655> 340.733 -8 426.485 -8 0.242599 0.970127<121.104 559.837>
AnchorPoint: "below" 270 0 basechar 0
AnchorPoint: "above" 459 789 basechar 0
LayerCount: 2
Fore
SplineSet
387 727 m 0
 387 757 389 769 420 776 c 0
 514 797 526 801 537 801 c 0
 560 801 576 783 576 763 c 0
 576 724 533 717 532 717 c 0
 441 696 429 692 418 692 c 0xe4
 406 692 387 701 387 727 c 0
EndSplineSet
Refer: 133 85 S 1 0 0 1 0 0 3
AlternateSubs2: "Stilistic set 01 subtable" Uacute.vn
AlternateSubs2: "Latin alternatives subtable" Uacute.vn
Substitution2: "Latin Vietnamese substitutions subtable" Uacute.vn
EndChar

StartChar: Ucircumflex
Encoding: 219 219 267
Width: 525
Flags: HW
TeX: 819 0
ItalicCorrection: 173
HStem: -8 75<232.905 324.4> 535 76<183.062 229 309.699 379.484 431.062 477 562 626.992>
VStem: 138 84<76.0858 250.805> 179 205<539.359 607.466> 427 205<539.641 607.699>
DStem2: 93.4845 -8 178.736 -8 0.242599 0.970127<171.969 559.655> 340.733 -8 426.485 -8 0.242599 0.970127<121.104 559.837>
AnchorPoint: "below" 270 0 basechar 0
AnchorPoint: "above" 475 853 basechar 0
LayerCount: 2
Fore
SplineSet
271 711 m 0
 271 731 266 724 443 853 c 0
 450 858 460 865 471 865 c 0
 488 865 485 864 593 741 c 0
 602 731 609 723 609 711 c 0
 609 691 577 664 559 664 c 0
 540 664 533 677 461 772 c 1
 380 712 334 665 312 665 c 0xc8
 287 665 271 698 271 711 c 0
EndSplineSet
Refer: 133 85 S 1 0 0 1 0 0 3
EndChar

StartChar: Thorn
Encoding: 222 222 270
Width: 525
Flags: HW
TeX: 610 0
ItalicCorrection: 173
HStem: -0 75<68.9595 140 226 276.7> 159 75<265 391.505> 439 75<335 435.421> 535 76<204.062 255 340 410.688>
VStem: 65 216<3.60507 71.8195> 200 215<538.798 607.621> 449 86<296.009 426.701>
DStem2: 121.245 -0 207.245 -0 0.242599 0.970127<98.173 184.516 261.885 473.133 550.502 551.467>
LayerCount: 2
Fore
SplineSet
65 31 m 0xfa
 66 73 93 75 105 75 c 2
 140 75 l 1
 255 535 l 1
 237 535 l 2
 211 535 200 547 200 566 c 0
 200 608 228 611 239 611 c 2
 377 611 l 2
 409 611 415 593 415 580 c 0xf6
 415 539 386 535 375 535 c 2
 340 535 l 1
 335 514 l 1
 414 514 l 2
 511 514 535 453 535 397 c 0
 535 329 492 159 320 159 c 2
 246 159 l 1
 226 75 l 1
 243 75 l 2
 271 75 281 63 281 45 c 0
 281 2 251 0 241 -0 c 2
 104 -0 l 2
 72 0 65 18 65 31 c 0xfa
265 234 m 1xf2
 324 234 l 2
 425 234 449 335 449 375 c 0
 449 434 407 439 387 439 c 2
 316 439 l 1
 265 234 l 1xf2
EndSplineSet
EndChar

StartChar: Germandbls
Encoding: 61699 61699 271
Width: 525
Flags: HW
TeX: 610 0
ItalicCorrection: 173
HStem: -8 211<115.728 132.719 133.471 197.621 336.683 353.719 354.471 418.621> 407 212<252.556 310.532 311.281 326.13 473.556 531.532 532.281 546.164>
LayerCount: 2
Fore
SplineSet
77 21 m 0
 77 28 76 22 112 169 c 0
 120 202 133 203 155 203 c 2
 160 203 l 2
 177 203 190 202 198 181 c 1
 208 213 227 248 229 271 c 1
 192 286 160 301 160 351 c 0
 160 380 196 516 223 567 c 0
 237 594 253 619 284 619 c 0
 292 619 301 617 311 613 c 1
 317 616 322 619 333 619 c 0
 359 619 365 600 365 590 c 0
 365 583 367 588 329 438 c 0
 321 407 306 407 289 407 c 2
 288 407 l 2
 267 407 264 408 252 415 c 1
 246 398 238 383 234 364 c 1
 263 351 303 339 303 283 c 0
 303 247 295 240 268 140 c 0
 240 34 209 -8 169 -8 c 0
 156 -8 143 -5 133 -0 c 1
 127 -4 121 -8 111 -8 c 2
 109 -8 l 2
 89 -8 77 5 77 21 c 0
298 18 m 0
 298 29 304 56 333 169 c 0
 341 202 354 203 376 203 c 2
 381 203 l 2
 398 203 411 202 419 181 c 1
 429 213 448 248 450 271 c 1
 415 285 381 299 381 351 c 0
 381 380 417 516 444 567 c 0
 458 594 474 619 505 619 c 0
 513 619 522 617 532 613 c 1
 538 616 543 619 554 619 c 0
 580 619 586 600 586 590 c 0
 586 583 587 588 549 438 c 0
 541 407 527 407 510 407 c 2
 509 407 l 2
 488 407 485 408 473 415 c 1
 467 398 459 383 455 364 c 1
 484 351 524 339 524 283 c 0
 524 247 516 240 489 140 c 0
 461 34 430 -8 390 -8 c 0
 377 -8 364 -5 354 -0 c 1
 348 -4 342 -8 332 -8 c 2
 330 -8 l 2
 304 -8 298 13 298 18 c 0
EndSplineSet
EndChar

StartChar: acircumflex
Encoding: 226 226 274
Width: 525
Flags: HW
TeX: 652 0
ItalicCorrection: 173
HStem: -4 75<211.878 300.196 427.235 456.694> 373 75<287.936 372.721>
VStem: 117 84<79.6176 254.321> 473 87<80.2031 174.249>
AnchorPoint: "below" 229 0 basechar 0
AnchorPoint: "above" 398 674 basechar 0
LayerCount: 2
Fore
SplineSet
239 581 m 0
 239 604 242 601 404 686 c 0
 411 690 420 694 428 694 c 0
 441 694 451 683 461 677 c 0
 563 604 574 602 574 581 c 0
 574 564 548 531 527 531 c 0
 514 531 511 534 420 608 c 1
 292 535 289 531 277 531 c 0
 247 531 239 574 239 581 c 0
EndSplineSet
Refer: 145 97 S 1 0 0 1 -0 0 3
AlternateSubs2: "Stilistic set 01 subtable" acircumflex.vn
AlternateSubs2: "Latin alternatives subtable" acircumflex.vn
Substitution2: "Latin Vietnamese substitutions subtable" acircumflex.vn
EndChar

StartChar: aring
Encoding: 229 229 277
Width: 525
Flags: HW
TeX: 652 0
ItalicCorrection: 173
HStem: -4 75<211.878 300.196 427.235 456.694> 373 75<287.936 372.721> 491 42<341.693 410.186> 657 42<362.955 430.004>
VStem: 117 84<79.6176 254.321> 279 59<535.469 633.569> 433 59<555.802 654.829> 473 87<80.2031 174.249>
LayerCount: 2
Fore
SplineSet
279 564 m 0
 279 624 326 699 411 699 c 0
 458 699 492 674 492 626 c 0
 492 565 445 491 360 491 c 0
 310 491 279 517 279 564 c 0
338 572 m 0
 338 550 349 533 371 533 c 0
 410 533 433 584 433 618 c 0
 433 639 423 657 401 657 c 0xfe
 363 657 338 608 338 572 c 0
EndSplineSet
Refer: 145 97 S 1 0 0 1 0 0 3
EndChar

StartChar: ae
Encoding: 230 230 278
Width: 525
Flags: HW
TeX: 444 0
ItalicCorrection: 173
HStem: -4 76<151.259 217.453 352.206 485.044> 176 76<362 462.473> 373 75<221.635 286.858 428.681 506.557>
VStem: 63 83<73.6443 253.856> 509 69<289.044 370.38>
AnchorPoint: "below" 275 0 basechar 0
AnchorPoint: "above" 375 448 basechar 0
LayerCount: 2
Fore
SplineSet
63 135 m 0
 63 193 85 312 149 387 c 0
 170 411 213 448 266 448 c 0
 306 448 327 425 332 420 c 1
 335 432 345 448 366 448 c 0
 385 448 396 435 399 418 c 1
 422 434 450 448 486 448 c 0
 533 448 578 415 578 345 c 0
 578 210 429 176 354 176 c 0
 350 176 346 177 342 177 c 1
 341 166 339 155 339 144 c 0
 339 108 351 71 397 71 c 0
 485 71 488 107 516 107 c 0
 530 107 549 90 549 72 c 0
 549 41 469 -4 390 -4 c 0
 326 -4 297 35 284 63 c 1
 256 28 217 -4 168 -4 c 0
 126 -4 63 25 63 135 c 0
146 134 m 0
 146 103 152 72 175 72 c 1
 197 73 223 95 237 115 c 0
 277 170 294 262 294 306 c 0
 294 352 280 373 261 373 c 0
 210 373 146 244 146 134 c 0
362 252 m 1
 487 258 509 304 509 338 c 0
 509 355 503 372 480 372 c 0
 443 372 394 336 362 252 c 1
EndSplineSet
EndChar

StartChar: ccedilla
Encoding: 231 231 279
Width: 525
Flags: HW
TeX: 444 194
ItalicCorrection: 173
HStem: -210 75<125.225 291.176> -2 109<436.475 484.092> 373 75<316.58 426.23>
VStem: 129 84<96.5626 256.551> 307 84<-116.919 -67.374> 426 86<295.657 369.523>
AnchorPoint: "above" 392 448 basechar 0
LayerCount: 2
Fore
SplineSet
121 -179 m 0
 121 -174 122 -140 149 -135 c 0
 160 -133 307 -145 307 -87 c 0
 307 -52 240 -80 240 -34 c 0
 240 -27 242 -18 247 1 c 1
 158 23 129 92 129 159 c 0
 129 286 225 448 392 448 c 0
 460 448 512 408 512 348 c 0
 512 305 488 287 465 287 c 0
 445 287 426 301 426 325 c 0
 426 334 429 342 427 351 c 0
 423 366 407 373 387 373 c 0
 288 373 213 263 213 161 c 0
 213 116 232 71 306 71 c 2
 310 71 l 2
 470 71 451 107 483 107 c 1
 504 106 527 77 527 61 c 0
 527 36 481 5 379 -2 c 1
 341 -4 l 1
 384 -26 391 -63 391 -83 c 0
 391 -128 362 -174 299 -194 c 0
 257 -208 200 -210 162 -210 c 2
 157 -210 l 2
 125 -210 121 -188 121 -179 c 0
EndSplineSet
EndChar

StartChar: ecircumflex
Encoding: 234 234 282
Width: 525
Flags: HW
TeX: 652 0
ItalicCorrection: 173
HStem: -4 75<239.195 450.133> 176 76<233 395.782> 373 75<317.228 432.539>
VStem: 128 84<94.5721 214.081> 438 85<286.639 366.116>
AnchorPoint: "below" 306 0 basechar 0
AnchorPoint: "above" 450 674 basechar 0
LayerCount: 2
Fore
SplineSet
240 581 m 0
 240 604 243 601 405 686 c 0
 412 690 420 694 428 694 c 0
 441 694 447 688 552 613 c 0
 555 611 574 600 574 581 c 0
 574 564 548 531 527 531 c 0
 514 531 511 534 420 608 c 1
 292 535 289 531 277 531 c 0
 247 531 240 574 240 581 c 0
EndSplineSet
Refer: 149 101 S 1 0 0 1 -0 0 3
AlternateSubs2: "Stilistic set 01 subtable" ecircumflex.vn
AlternateSubs2: "Latin alternatives subtable" ecircumflex.vn
Substitution2: "Latin Vietnamese substitutions subtable" ecircumflex.vn
EndChar

StartChar: icircumflex
Encoding: 238 238 286
Width: 525
Flags: HW
TeX: 652 0
ItalicCorrection: 173
HStem: -4 76<314.135 380.063> 372 76<256.085 322.514>
VStem: 137 81<268.451 329.502> 227 86<73.6819 146.83> 323 85<297.546 370.318> 414 84<108.73 174.993>
AnchorPoint: "below" 261 0 basechar 0
AnchorPoint: "above" 431 674 basechar 0
LayerCount: 2
Fore
SplineSet
210 581 m 0
 210 604 216 602 375 686 c 0
 382 690 390 694 398 694 c 2
 401 694 l 2
 411 694 412 691 522 613 c 0
 537 602 545 594 545 581 c 0
 545 564 519 531 498 531 c 0
 485 531 482 534 391 608 c 1
 257 531 259 531 247 531 c 0
 217 531 210 574 210 581 c 0
EndSplineSet
Refer: 73 305 S 1 0 0 1 0 -0 3
Ligature2: "Latin ligatures excepting Turkic subtable" i uni0302
EndChar

StartChar: idieresis
Encoding: 239 239 287
Width: 525
Flags: HW
TeX: 652 0
ItalicCorrection: 173
HStem: -4 76<314.135 380.063> 372 76<256.085 322.514> 491 120<256.162 339.431 460.961 543.598>
VStem: 137 81<268.451 329.502> 227 86<73.6819 146.83> 237 121<509.984 591.409> 323 85<297.546 370.318> 414 84<108.73 174.993> 441 122<510.625 590.883>
AnchorPoint: "above" 409 591 basechar 0
LayerCount: 2
Fore
SplineSet
237 544 m 0
 237 578 268 611 305 611 c 0
 336 611 358 588 358 558 c 0xf4
 358 521 325 491 291 491 c 0
 260 491 237 514 237 544 c 0
441 544 m 0
 441 583 478 611 509 611 c 0
 537 611 563 590 563 558 c 0
 563 521 529 491 495 491 c 0xf080
 464 491 441 514 441 544 c 0
EndSplineSet
Refer: 73 305 S 1 0 0 1 0 -0 3
Ligature2: "Latin ligatures excepting Turkic subtable" i uni0308
EndChar

StartChar: eth
Encoding: 240 240 288
Width: 525
Flags: HW
TeX: 610 0
ItalicCorrection: 173
HStem: -4 75<236.456 334.073> 375 75<298.305 381.19> 591 20G<312.373 346 377 389>
VStem: 130 87<90.9719 258.141> 419 87<189.354 355.85>
LayerCount: 2
Fore
SplineSet
130 140 m 0
 130 245 201 450 382 450 c 1
 366 477 354 490 338 508 c 1
 318 499 l 1
 304 544 310 534 268 560 c 1
 341 611 l 1
 351 605 355 602 360 602 c 0
 365 602 371 605 383 611 c 1
 395 575 392 577 407 562 c 0
 435 535 506 460 506 306 c 0
 506 165 408 -4 261 -4 c 0
 206 -4 130 25 130 140 c 0
217 160 m 0
 217 88 256 71 281 71 c 0
 346 71 419 167 419 298 c 0
 419 349 390 375 355 375 c 0
 264 375 217 238 217 160 c 0
EndSplineSet
EndChar

